<svg width="132" height="132" viewBox="0 0 132 132" fill="none" xmlns="http://www.w3.org/2000/svg">
<circle cx="66" cy="66" r="64" stroke="#F4F4F4" stroke-width="4" stroke-linecap="round" stroke-linejoin="round"/>
<path d="M66 130C53.342 130 40.9682 126.246 30.4435 119.214C19.9188 112.182 11.7157 102.186 6.87171 90.4917C2.0277 78.7973 0.760288 65.929 3.22974 53.5142C5.6992 41.0994 11.7946 29.6957 20.7452 20.7452C29.6957 11.7946 41.0994 5.69919 53.5142 3.22974C65.929 0.760288 78.7973 2.0277 90.4917 6.87171C102.186 11.7157 112.182 19.9188 119.214 30.4435C126.246 40.9683 130 53.342 130 66" stroke="#EEE809" stroke-width="4" stroke-linecap="round" stroke-linejoin="round"/>
<path d="M50.128 56.544C43.408 63.36 38.656 69.792 35.2 81.84L43.504 83.136C47.104 72 50.128 64.896 58.576 55.824L59.44 51.024H35.632L34 60.528L40.048 60.24L40.48 57.84C40.672 56.88 40.96 56.544 41.872 56.544H50.128Z" fill="#121212"/>
<path d="M58.8696 67.008H60.6456C64.8216 67.008 69.2856 67.248 69.2856 70.8C69.2856 74.976 64.7256 76.128 57.8136 76.128C57.2376 76.128 56.6136 76.08 56.0376 76.08L56.3256 82.56C57.0936 82.608 57.8616 82.608 58.5816 82.608C70.1976 82.608 77.6376 79.056 77.6376 70.656C77.6376 64.368 72.1656 62.64 67.4616 62.016L69.1896 56.544H79.6056L81.0936 48H75.0936L74.8056 49.728C74.6616 50.592 74.1816 51.024 73.2696 51.024H63.5736L58.8696 67.008Z" fill="#121212"/>
<path d="M84.7679 82.296L94.4879 67.224L92.1599 66.192L82.5119 81.216L84.7679 82.296ZM84.4319 66.168C81.7919 66.168 79.7999 68.184 79.7999 71.736C79.7999 73.848 81.0719 74.88 82.9919 74.88C86.0399 74.88 87.5759 72.432 87.5759 69.264C87.5759 67.08 86.3279 66.168 84.4319 66.168ZM83.2559 73.008C82.7519 73.008 82.4159 72.768 82.4159 71.928C82.4159 71.28 82.4879 70.704 82.6079 70.152C82.8959 68.616 83.3759 68.04 84.1199 68.04C84.5999 68.04 84.9119 68.328 84.9119 69.264C84.9119 70.248 84.7679 71.232 84.5039 71.904C84.2399 72.696 83.8079 73.008 83.2559 73.008ZM94.0079 73.632C91.3439 73.632 89.3759 75.648 89.3759 79.224C89.3759 81.336 90.6239 82.344 92.5679 82.344C95.5679 82.344 97.1279 79.92 97.1279 76.752C97.1279 74.544 95.8559 73.632 94.0079 73.632ZM92.8319 80.472C92.3279 80.472 91.9679 80.232 91.9679 79.392C91.9679 78.744 92.0639 78.168 92.1599 77.616C92.4479 76.104 92.9279 75.504 93.6719 75.504C94.1759 75.504 94.4879 75.792 94.4879 76.728C94.4879 77.712 94.3439 78.696 94.0799 79.368C93.7919 80.208 93.3839 80.472 92.8319 80.472Z" fill="#121212"/>
</svg>
