<svg width="132" height="132" viewBox="0 0 132 132" fill="none" xmlns="http://www.w3.org/2000/svg">
<circle cx="66" cy="66" r="64" stroke="#F4F4F4" stroke-width="4" stroke-linecap="round" stroke-linejoin="round"/>
<path d="M66 130C52.3127 130 38.986 125.612 27.9762 117.48C16.9665 109.348 8.85386 97.9008 4.82924 84.8186C0.804634 71.7364 1.08011 57.7085 5.61522 44.7944C10.1503 31.8803 18.7062 20.7602 30.0267 13.0668C41.3472 5.37345 54.8359 1.51198 68.5126 2.04934C82.1894 2.58671 95.3336 7.49459 106.016 16.0525C116.698 24.6103 124.355 36.3674 127.862 49.5975C131.37 62.8276 130.544 76.8339 125.506 89.56" stroke="#EEE809" stroke-width="4" stroke-linecap="round" stroke-linejoin="round"/>
<path d="M53.416 60.664C55.208 59.488 57.896 56.744 57.896 52.936C57.896 48.96 54.704 45.208 47.144 45.208C37.568 45.208 33.144 50.192 33.144 55.848C33.144 59.376 35.272 61.728 37.512 63.072C32.696 65.368 29 68.728 29 73.936C29 78.136 31.968 82.672 40.816 82.672C51.792 82.672 55.992 76.568 55.992 70.856C55.992 65.032 51.064 62.456 46.248 59.6C43.952 58.256 42.216 56.912 42.216 54.728C42.216 52.544 43.56 51.088 46.528 51.088C48.544 51.088 49.888 52.04 49.888 53.832C49.888 55.568 49.048 56.576 47.984 57.64L53.416 60.664ZM46.304 71.584C46.304 73.656 44.792 76.12 41.376 76.12C38.632 76.12 37.512 74.44 37.512 72.704C37.512 69.904 39.752 68.28 42.44 66.768C44.4 68.056 46.304 69.344 46.304 71.584Z" fill="#121212"/>
<path d="M67.6046 74.44C67.3246 75.952 66.9886 76.176 65.9246 76.232L60.6606 76.624L59.6526 82H81.8286L82.7806 76.568L76.6766 76.176L81.9966 45.936H73.8206C70.6846 48.344 65.9246 50.808 60.9966 51.76L62.7326 58.312C64.7486 57.976 68.7806 56.352 71.0766 54.56L67.6046 74.44Z" fill="#121212"/>
<path d="M89.8202 82.36L99.5402 67.288L97.2122 66.256L87.5642 81.28L89.8202 82.36ZM89.4842 66.232C86.8442 66.232 84.8522 68.248 84.8522 71.8C84.8522 73.912 86.1242 74.944 88.0442 74.944C91.0922 74.944 92.6282 72.496 92.6282 69.328C92.6282 67.144 91.3802 66.232 89.4842 66.232ZM88.3082 73.072C87.8042 73.072 87.4682 72.832 87.4682 71.992C87.4682 71.344 87.5402 70.768 87.6602 70.216C87.9482 68.68 88.4282 68.104 89.1722 68.104C89.6522 68.104 89.9642 68.392 89.9642 69.328C89.9642 70.312 89.8202 71.296 89.5562 71.968C89.2922 72.76 88.8602 73.072 88.3082 73.072ZM99.0602 73.696C96.3962 73.696 94.4282 75.712 94.4282 79.288C94.4282 81.4 95.6762 82.408 97.6202 82.408C100.62 82.408 102.18 79.984 102.18 76.816C102.18 74.608 100.908 73.696 99.0602 73.696ZM97.8842 80.536C97.3802 80.536 97.0202 80.296 97.0202 79.456C97.0202 78.808 97.1162 78.232 97.2122 77.68C97.5002 76.168 97.9802 75.568 98.7242 75.568C99.2282 75.568 99.5402 75.856 99.5402 76.792C99.5402 77.776 99.3962 78.76 99.1322 79.432C98.8442 80.272 98.4362 80.536 97.8842 80.536Z" fill="#121212"/>
</svg>
