<svg width="122" height="236" viewBox="0 0 122 236" fill="none" xmlns="http://www.w3.org/2000/svg">
<path d="M48.4508 186.667C42.5581 186.667 37.9749 186.018 35.1377 185.152C32.3005 184.287 32.3005 182.556 32.9553 179.31L35.1377 167.409L6.54741 169.14L0 205.708C9.38462 210.035 21.8247 212.632 34.0465 213.713L30.3363 236H59.3631L63.2916 213.064C94.7191 208.52 112.179 189.48 112.179 162.433C112.179 137.333 93.4097 131.275 77.6959 125C65.0376 119.807 57.6172 117.211 57.6172 108.988C57.6172 98.6023 67.22 94.924 76.1682 94.924C81.1878 94.924 84.898 95.3567 87.7352 96.0058C90.5724 96.8713 90.5724 98.6023 89.9177 101.848L87.9535 112.234L115.889 110.503L122 75.883C114.361 71.7719 103.231 68.9591 89.4812 67.4445L92.3184 51H63.2916L60.0179 68.9591C34.483 74.152 17.4597 90.3801 17.4597 116.561C17.4597 141.228 37.3202 149.667 51.9428 154.211C63.2916 158.322 70.9302 160.485 70.9302 170.006C70.9302 182.556 59.5814 186.667 48.4508 186.667Z" fill="#EEE809" fill-opacity="0.05"/>
<path d="M48.4508 169.667C42.5581 169.667 37.9749 169.018 35.1377 168.152C32.3005 167.287 32.3005 165.556 32.9553 162.31L35.1377 150.409L6.54741 152.14L0 188.708C9.38462 193.035 21.8247 195.632 34.0465 196.713L30.3363 219H59.3631L63.2916 196.064C94.7191 191.52 112.179 172.48 112.179 145.433C112.179 120.333 93.4097 114.275 77.6959 108C65.0376 102.807 57.6172 100.211 57.6172 91.9883C57.6172 81.6023 67.22 77.924 76.1682 77.924C81.1878 77.924 84.898 78.3567 87.7352 79.0058C90.5724 79.8713 90.5724 81.6023 89.9177 84.848L87.9535 95.2339L115.889 93.5029L122 58.883C114.361 54.7719 103.231 51.9591 89.4812 50.4445L92.3184 34H63.2916L60.0179 51.9591C34.483 57.152 17.4597 73.3801 17.4597 99.5614C17.4597 124.228 37.3202 132.667 51.9428 137.211C63.2916 141.322 70.9302 143.485 70.9302 153.006C70.9302 165.556 59.5814 169.667 48.4508 169.667Z" fill="#EEE809" fill-opacity="0.1"/>
<path d="M48.4508 152.667C42.5581 152.667 37.9749 152.018 35.1377 151.152C32.3005 150.287 32.3005 148.556 32.9553 145.31L35.1377 133.409L6.54741 135.14L0 171.708C9.38462 176.035 21.8247 178.632 34.0465 179.713L30.3363 202H59.3631L63.2916 179.064C94.7191 174.52 112.179 155.48 112.179 128.433C112.179 103.333 93.4097 97.2749 77.6959 91C65.0376 85.807 57.6172 83.2105 57.6172 74.9883C57.6172 64.6023 67.22 60.924 76.1682 60.924C81.1878 60.924 84.898 61.3567 87.7352 62.0058C90.5724 62.8713 90.5724 64.6023 89.9177 67.848L87.9535 78.2339L115.889 76.5029L122 41.883C114.361 37.7719 103.231 34.9591 89.4812 33.4445L92.3184 17H63.2916L60.0179 34.9591C34.483 40.152 17.4597 56.3801 17.4597 82.5614C17.4597 107.228 37.3202 115.667 51.9428 120.211C63.2916 124.322 70.9302 126.485 70.9302 136.006C70.9302 148.556 59.5814 152.667 48.4508 152.667Z" fill="#EEE809" fill-opacity="0.2"/>
<path d="M48.4508 135.667C42.5581 135.667 37.9749 135.018 35.1377 134.152C32.3005 133.287 32.3005 131.556 32.9553 128.31L35.1377 116.409L6.54741 118.14L0 154.708C9.38462 159.035 21.8247 161.632 34.0465 162.713L30.3363 185H59.3631L63.2916 162.064C94.7191 157.52 112.179 138.48 112.179 111.433C112.179 86.3333 93.4097 80.2749 77.6959 74C65.0376 68.807 57.6172 66.2105 57.6172 57.9883C57.6172 47.6023 67.22 43.924 76.1682 43.924C81.1878 43.924 84.898 44.3567 87.7352 45.0058C90.5724 45.8713 90.5724 47.6023 89.9177 50.848L87.9535 61.2339L115.889 59.5029L122 24.883C114.361 20.7719 103.231 17.9591 89.4812 16.4445L92.3184 0H63.2916L60.0179 17.9591C34.483 23.152 17.4597 39.3801 17.4597 65.5614C17.4597 90.2281 37.3202 98.6667 51.9428 103.211C63.2916 107.322 70.9302 109.485 70.9302 119.006C70.9302 131.556 59.5814 135.667 48.4508 135.667Z" fill="#EEE809"/>
</svg>
