<svg xmlns="http://www.w3.org/2000/svg" viewBox="0 0 345.87 581.02"><defs><style>.cls-1{fill:#e0e300;}.cls-2{fill:#ff0053;}</style></defs><g id="Layer_2" data-name="Layer 2"><g id="Layer_1-2" data-name="Layer 1"><path d="M172.69,0c-4,0-7.82,2.64-10.62,7.34l-44.51,74.5H227.74L183.3,7.35C180.5,2.65,176.67,0,172.69,0Z"/><path d="M257.77,453.51c1-2.29,1.81-4.77,2.72-7.13l71.42,125.88A7.44,7.44,0,0,0,338.4,576l1.93-.25a7.45,7.45,0,0,0,5.54-7.23l-.33-169.31a7.45,7.45,0,0,0-1.29-4.19l-51.34-75.58a7.43,7.43,0,0,0-5.77-3.22c.81-12.47,1.34-25.1,1.34-37.95l0-14.53c0-22.22.05-43.23-.47-63.37.32-3.59.45-6.71.45-9.73A115.07,115.07,0,0,0,286.71,171a118.23,118.23,0,0,0-3.2-13.94,116.15,116.15,0,0,0-30.78-50l-.56-.57-20-20.24h-119L90.68,108.93l-.88,1a116.15,116.15,0,0,0-27.94,47.17c-.65,2.13-1.17,4.32-1.69,6.51a117.3,117.3,0,0,0-3.3,27.09c0,1.17,0,2.59-.09,4.1a110.16,110.16,0,0,0,.07,11.65c-.5,15.54-.34,30.41-.16,46.12.09,8.26.18,16.77.18,25.76,0,12.87.53,25.52,1.36,38A7.47,7.47,0,0,0,53,319.48L1.62,395.06a7.69,7.69,0,0,0-1.29,4.19L0,568.56a7.48,7.48,0,0,0,5.57,7.23l1.91.25A7.44,7.44,0,0,0,14,572.26L85.07,446.93c.85,2.17,1.62,4.46,2.51,6.58,17.54,41.61,40.81,68,66.83,76.39l-17.2-78.44a7.36,7.36,0,0,1,0-3.43L166.05,334.3a7.46,7.46,0,0,1,7.24-5.63h0a7.48,7.48,0,0,1,7.23,5.7l27.24,112a7.37,7.37,0,0,1,.07,3.27l-16.43,80.1C217.27,521.18,240.37,494.87,257.77,453.51ZM172.52,310.86A76.91,76.91,0,1,1,249.42,234,76.92,76.92,0,0,1,172.52,310.86Z"/><polygon class="cls-1" points="162.49 531.84 173.29 581.02 183.38 531.76 200.53 448.13 173.29 336.13 144.5 449.86 162.49 531.84"/><path class="cls-2" d="M172.52,172a62,62,0,1,0,62,62A62,62,0,0,0,172.52,172ZM142.37,258a4.1,4.1,0,0,1-3.2-6.66L181.62,198a4.11,4.11,0,1,1,6.44,5.11L145.59,256.5A4.08,4.08,0,0,1,142.37,258Zm63.49-37.15L163.4,274.3a4.11,4.11,0,0,1-6.44-5.11l42.47-53.42a4.11,4.11,0,1,1,6.43,5.12Z"/><path class="cls-1" d="M172.52,157A76.91,76.91,0,1,0,249.42,234,76.92,76.92,0,0,0,172.52,157Zm0,138.88a62,62,0,1,1,62-62A62,62,0,0,1,172.52,295.92Z"/></g></g></svg>