<svg xmlns="http://www.w3.org/2000/svg" viewBox="0 0 558.71 570.73"><defs><style>.cls-1{fill:#ff0053;}</style></defs><g id="Layer_2" data-name="Layer 2"><g id="Layer_1-2" data-name="Layer 1"><path class="cls-1" d="M383.45,130a14.92,14.92,0,0,0,18.05-11l17.6-72a14.94,14.94,0,0,0-11-18L341.43,12.72a14.93,14.93,0,0,0-7.11,29l29.43,7.2L160.87,196.31a14.93,14.93,0,1,0,17.55,24.15l203.72-148-9.65,39.46A14.94,14.94,0,0,0,383.45,130Z"/><rect x="41.66" y="378.26" width="126.98" height="119.47"/><rect x="223.62" y="268.91" width="126.99" height="228.81"/><polygon class="cls-1" points="532.59 405.7 532.59 381.6 440.76 497.73 459.82 497.73 532.59 405.7"/><polygon class="cls-1" points="532.59 375.37 532.59 351.25 416.77 497.73 435.84 497.73 532.59 375.37"/><polygon class="cls-1" points="424.44 148.09 405.6 148.09 405.6 171.92 424.44 148.09"/><polygon class="cls-1" points="532.59 223.69 532.59 199.56 405.6 360.18 405.6 384.28 532.59 223.69"/><polygon class="cls-1" points="532.59 254.01 532.59 229.91 405.6 390.51 405.6 414.61 532.59 254.01"/><polygon class="cls-1" points="411.84 497.73 532.59 345.03 532.59 320.92 405.6 481.52 405.6 497.73 411.84 497.73"/><polygon class="cls-1" points="532.59 193.34 532.59 169.24 405.6 329.82 405.6 353.94 532.59 193.34"/><polygon class="cls-1" points="532.59 314.69 532.59 290.58 405.6 451.19 405.6 475.29 532.59 314.69"/><polygon class="cls-1" points="405.6 202.26 448.43 148.09 429.37 148.09 405.6 178.15 405.6 202.26"/><polygon class="cls-1" points="532.59 284.36 532.59 260.24 405.6 420.84 405.6 444.96 532.59 284.36"/><polygon class="cls-1" points="405.6 262.93 496.4 148.09 477.35 148.09 405.6 238.82 405.6 262.93"/><polygon class="cls-1" points="532.59 466.38 532.59 442.27 488.75 497.73 507.8 497.73 532.59 466.38"/><polygon class="cls-1" points="532.59 496.71 532.59 472.61 512.73 497.73 531.78 497.73 532.59 496.71"/><polygon class="cls-1" points="405.6 293.27 520.39 148.09 501.33 148.09 405.6 269.16 405.6 293.27"/><polygon class="cls-1" points="532.59 436.04 532.59 411.93 464.75 497.73 483.82 497.73 532.59 436.04"/><polygon class="cls-1" points="405.6 232.59 472.43 148.09 453.36 148.09 405.6 208.49 405.6 232.59"/><polygon class="cls-1" points="405.6 323.6 532.59 163.01 532.59 148.09 525.33 148.09 405.6 299.49 405.6 323.6"/><path d="M0,0V555.2a15.53,15.53,0,0,0,15.53,15.53H558.71V539.66H31.05V0Z"/></g></g></svg>