<svg width="63" height="70" viewBox="0 0 63 70" fill="none" xmlns="http://www.w3.org/2000/svg">
<path d="M29.4175 36.7982C29.4175 39.4342 30.1984 42.0109 31.6614 44.2026C33.1245 46.3943 35.204 48.1025 37.637 49.1113C40.0699 50.12 42.7471 50.3839 45.33 49.8697C47.9128 49.3554 50.2853 48.0861 52.1474 46.2222C54.0095 44.3583 55.2776 41.9836 55.7914 39.3983C56.3051 36.813 56.0415 34.1333 55.0337 31.698C54.0259 29.2627 52.3193 27.1812 50.1297 25.7168C47.9401 24.2523 45.3658 23.4707 42.7323 23.4707C39.2018 23.4732 35.8165 24.8781 33.3201 27.377C30.8236 29.8758 29.42 33.2643 29.4175 36.7982Z" fill="black"/>
<path d="M35.0222 51.3902C31.7018 51.3902 28.5174 52.7104 26.1696 55.0605C23.8217 57.4106 22.5027 60.5981 22.5027 63.9216V70H62.9526V63.9216C62.9551 60.6054 61.6433 57.4236 59.305 55.0743C56.9667 52.725 53.7928 51.4001 50.4798 51.3902H35.0222ZM47.6727 67.8459H37.7731L34.9006 52.7576C35.1842 52.7433 35.4684 52.7433 35.7521 52.7576H49.7125C49.9962 52.7433 50.2804 52.7433 50.564 52.7576L47.6727 67.8459Z" fill="black"/>
<path d="M39.6165 67.8459H45.8388L44.3043 57.7027H44.2481L45.7639 54.9117H45.7546H39.7007L41.2165 57.7027H41.1603L39.6165 67.8459Z" fill="#FF0053"/>
<path d="M28.2853 20.2114C28.3078 17.5269 27.2651 14.9432 25.3863 13.0275C23.5075 11.1118 20.946 10.0205 18.2641 9.99331C15.989 10.0447 13.7957 10.8527 12.0302 12.29C10.2647 13.7273 9.02753 15.712 8.51378 17.931C8.00003 20.1501 8.23897 22.4772 9.19291 24.5452C10.1469 26.6133 11.7615 28.3046 13.7821 29.3524V29.5491V34.7284C13.7796 35.1764 13.9544 35.6071 14.2682 35.9265C14.5821 36.246 15.0095 36.428 15.457 36.433H15.9997H20.5378H21.0805C21.5281 36.428 21.9555 36.246 22.2693 35.9265C22.5831 35.6071 22.7579 35.1764 22.7554 34.7284V29.5491V29.3524C24.4282 28.4855 25.8295 27.1735 26.8052 25.5607C27.7809 23.9478 28.2931 22.0968 28.2853 20.2114ZM12.3225 18.5817C12.3036 18.6593 12.2591 18.7283 12.1964 18.7776C12.1336 18.8268 12.056 18.8535 11.9763 18.8534H11.8827C11.8268 18.8537 11.7716 18.8413 11.7213 18.8169C11.671 18.7925 11.627 18.7569 11.5926 18.7129C11.5607 18.6671 11.5391 18.6149 11.5294 18.5599C11.5197 18.5049 11.5221 18.4484 11.5365 18.3944C11.869 17.0407 12.5783 15.8092 13.582 14.8427C14.5856 13.8762 15.8425 13.2145 17.2068 12.9342C17.2591 12.9246 17.3129 12.9266 17.3643 12.94C17.4158 12.9535 17.4637 12.978 17.5047 13.0119C17.5457 13.0458 17.5788 13.0883 17.6017 13.1363C17.6246 13.1844 17.6367 13.2368 17.6372 13.2901V13.3837C17.6356 13.468 17.6064 13.5495 17.5539 13.6155C17.5015 13.6815 17.4288 13.7284 17.3471 13.749C16.1401 13.9996 15.0283 14.5861 14.1394 15.441C13.2506 16.2959 12.6208 17.3846 12.3225 18.5817ZM22.1285 34.9251C22.1261 34.9559 22.1177 34.9859 22.1037 35.0134C22.0897 35.0409 22.0704 35.0654 22.0469 35.0854C22.0235 35.1054 21.9963 35.1206 21.9669 35.13C21.9375 35.1395 21.9066 35.143 21.8759 35.1405H14.6523C14.5918 35.1431 14.5326 35.1221 14.4873 35.0819C14.4419 35.0418 14.4138 34.9855 14.4091 34.9251V34.5411C14.4138 34.4806 14.4419 34.4244 14.4873 34.3842C14.5326 34.344 14.5918 34.323 14.6523 34.3257H21.8759C21.9066 34.3231 21.9375 34.3266 21.9669 34.3361C21.9963 34.3456 22.0235 34.3607 22.0469 34.3808C22.0704 34.4008 22.0897 34.4252 22.1037 34.4528C22.1177 34.4803 22.1261 34.5103 22.1285 34.5411V34.9251ZM22.1285 32.9957C22.1261 33.0265 22.1177 33.0565 22.1037 33.084C22.0897 33.1115 22.0704 33.136 22.0469 33.156C22.0235 33.1761 21.9963 33.1912 21.9669 33.2007C21.9375 33.2101 21.9066 33.2137 21.8759 33.2111H14.6523C14.5918 33.2137 14.5326 33.1928 14.4873 33.1526C14.4419 33.1124 14.4138 33.0562 14.4091 32.9957V32.6117C14.4138 32.5513 14.4419 32.495 14.4873 32.4549C14.5326 32.4147 14.5918 32.3937 14.6523 32.3963H21.8759C21.9066 32.3937 21.9375 32.3973 21.9669 32.4067C21.9963 32.4162 22.0235 32.4314 22.0469 32.4514C22.0704 32.4714 22.0897 32.4959 22.1037 32.5234C22.1177 32.5509 22.1261 32.5809 22.1285 32.6117V32.9957ZM22.1285 31.0664C22.1261 31.0971 22.1177 31.1272 22.1037 31.1547C22.0897 31.1822 22.0704 31.2067 22.0469 31.2267C22.0235 31.2467 21.9963 31.2619 21.9669 31.2713C21.9375 31.2808 21.9066 31.2843 21.8759 31.2818H14.6523C14.5918 31.2844 14.5326 31.2634 14.4873 31.2232C14.4419 31.183 14.4138 31.1268 14.4091 31.0664V30.6824C14.4138 30.6219 14.4419 30.5657 14.4873 30.5255C14.5326 30.4853 14.5918 30.4643 14.6523 30.4669H21.8759C21.9374 30.4642 21.9977 30.4849 22.0446 30.5248C22.0915 30.5648 22.1214 30.6211 22.1285 30.6824V31.0664Z" fill="black"/>
<path d="M15.9716 37.0324C15.9716 37.969 16.7482 37.969 17.7026 37.969H18.8348C19.7705 37.969 20.5658 37.969 20.5658 37.0324V36.4704H15.9716V37.0324Z" fill="#FF0053"/>
<path d="M17.5248 0.749264V6.55606C17.5248 6.75229 17.6027 6.94049 17.7413 7.07925C17.88 7.21801 18.068 7.29596 18.264 7.29596C18.3619 7.2972 18.459 7.27898 18.5498 7.24235C18.6406 7.20572 18.7231 7.15142 18.7928 7.08259C18.8624 7.01376 18.9177 6.93177 18.9554 6.84139C18.9932 6.751 19.0126 6.65402 19.0126 6.55606V0.749264C19.0126 0.550547 18.9337 0.359969 18.7933 0.219454C18.653 0.0789401 18.4626 2.37493e-09 18.264 2.37493e-09C18.1662 -7.84588e-06 18.0693 0.0194361 17.979 0.0572037C17.8887 0.0949714 17.8068 0.150311 17.738 0.220012C17.6692 0.289713 17.615 0.372388 17.5784 0.46324C17.5418 0.554093 17.5236 0.651314 17.5248 0.749264Z" fill="#FF0053"/>
<path d="M1.00057 11.4169C0.824882 11.3522 0.631353 11.3558 0.458146 11.4268C0.284939 11.4979 0.144627 11.6314 0.0648794 11.8009C0.0246535 11.8906 0.00267572 11.9873 0.00022946 12.0856C-0.0022168 12.1839 0.0149174 12.2816 0.0506317 12.3732C0.0863459 12.4647 0.139924 12.5482 0.208239 12.6188C0.276553 12.6894 0.358234 12.7457 0.448512 12.7843L5.7258 15.1351C5.81548 15.1759 5.91231 15.1985 6.01073 15.2017C6.10916 15.2049 6.20725 15.1886 6.29939 15.1538C6.39152 15.119 6.47589 15.0664 6.54767 14.9989C6.61944 14.9314 6.6772 14.8504 6.71763 14.7605C6.79421 14.5775 6.79704 14.3719 6.72552 14.1868C6.654 14.0017 6.51369 13.8515 6.334 13.7677L1.00057 11.4169Z" fill="#FF0053"/>
<path d="M35.3966 11.4169L30.1099 13.7677C29.9302 13.8515 29.7899 14.0017 29.7184 14.1868C29.6469 14.3719 29.6497 14.5775 29.7263 14.7605C29.7667 14.8504 29.8245 14.9314 29.8963 14.9989C29.968 15.0664 30.0524 15.119 30.1445 15.1538C30.2367 15.1886 30.3348 15.2049 30.4332 15.2017C30.5316 15.1985 30.6285 15.1759 30.7181 15.1351L35.9954 12.7843C36.0857 12.7457 36.1674 12.6894 36.2357 12.6188C36.304 12.5482 36.3576 12.4647 36.3933 12.3732C36.429 12.2816 36.4461 12.1838 36.4437 12.0856C36.4413 11.9873 36.4193 11.8906 36.3791 11.8009C36.2991 11.6201 36.1509 11.4782 35.9669 11.4063C35.7828 11.3344 35.5778 11.3382 35.3966 11.4169Z" fill="#FF0053"/>
</svg>
