<svg width="176" height="30" viewBox="0 0 176 30" fill="none" xmlns="http://www.w3.org/2000/svg">
<path d="M157.157 29.8763L158.699 25.8713H170.204L171.76 29.8763H176L164.451 0L152.903 29.8763H157.157Z" fill="#121212"/>
<path d="M133.963 29.8026V0.468018H141.661C142.757 0.448897 143.846 0.654542 144.86 1.07237C145.875 1.4902 146.794 2.11142 147.561 2.89801C148.334 3.65111 148.951 4.54993 149.378 5.54298C149.805 6.53604 150.032 7.60382 150.047 8.68516C150.061 9.76649 149.864 10.8401 149.464 11.8446C149.065 12.849 148.472 13.7646 147.72 14.5387C148.883 15.2775 149.837 16.3049 150.489 17.5216C151.361 19.1049 151.692 20.9317 151.43 22.7217C151.168 24.5117 150.328 26.166 149.039 27.4308C148.273 28.2193 147.355 28.8428 146.34 29.2631C145.326 29.6834 144.237 29.8917 143.139 29.8753L133.963 29.8026Z" fill="#121212"/>
<path d="M106.461 29.8762H102.551V0.466797L116.186 21.6235L129.806 0.466797V29.8762H106.461Z" fill="#121212"/>
<path d="M18.0158 29.8762H1.38586V0.466797H5.29298V25.9355H17.9876L18.0158 29.8762Z" fill="#121212"/>
<path d="M39.857 25.9325H27.9759L26.5253 29.8181H22.1732L33.9237 0L45.7323 29.8763H41.3802L39.857 25.9325Z" fill="#121212"/>
<path d="M51.4479 29.1169C51.2232 29.3624 50.9495 29.557 50.645 29.6878C50.3404 29.8186 50.0119 29.8827 49.681 29.8758C49.3442 29.8781 49.0104 29.8122 48.6993 29.6818C48.3882 29.5514 48.1062 29.3593 47.8699 29.1169C47.6294 28.8846 47.4387 28.605 47.3095 28.2953C47.1804 27.9855 47.1155 27.6523 47.1189 27.3162C47.1098 26.9771 47.172 26.6399 47.3015 26.3269C47.4309 26.0139 47.6247 25.7323 47.8699 25.5006C48.1041 25.2554 48.3858 25.0614 48.6973 24.9309C49.0089 24.8003 49.3437 24.7359 49.681 24.7417C50.3503 24.7533 50.9884 25.0293 51.459 25.5104C51.9296 25.9915 52.1951 26.6397 52.1989 27.3162C52.2059 27.6528 52.1427 27.9871 52.0133 28.2974C51.8839 28.6077 51.6913 28.8869 51.4479 29.1169Z" fill="#121212"/>
<path d="M54.0472 29.8762V0.466848H61.4967C63.634 0.459089 65.687 1.33187 67.2049 2.89359C68.7228 4.4553 69.5816 6.57833 69.5927 8.79659C69.6147 9.84759 69.436 10.8927 69.0669 11.8717C68.6978 12.8506 68.1456 13.7441 67.4422 14.5005C68.5727 15.2615 69.5026 16.3029 70.1481 17.5306C70.7935 18.7582 71.134 20.1334 71.1388 21.5319C71.1477 22.6213 70.9415 23.7011 70.5329 24.7046C70.1244 25.7082 69.5222 26.6143 68.7634 27.3671C68.0194 28.1563 67.1288 28.7804 66.1454 29.2017C65.1621 29.623 64.1066 29.8326 63.0428 29.8179L54.0472 29.8762Z" fill="#121212"/>
<path d="M76.9938 24.8883C75.7239 23.6136 74.7162 22.098 74.0285 20.4286C73.3408 18.7593 72.9868 16.9691 72.9868 15.1612C72.9868 13.3532 73.3408 11.5631 74.0285 9.89372C74.7162 8.22438 75.7239 6.70878 76.9938 5.43409C78.8978 3.50864 81.3248 2.19702 83.9677 1.66536C86.6105 1.13371 89.3501 1.40593 91.8396 2.44756C94.329 3.48918 96.4563 5.25335 97.952 7.5166C99.4476 9.77985 100.244 12.4404 100.241 15.1612C100.251 17.8851 99.4586 20.5504 97.9641 22.8182C96.4696 25.086 94.3408 26.8537 91.8485 27.8965C89.3562 28.9393 86.613 29.2101 83.9678 28.6744C81.3226 28.1388 78.8951 26.8208 76.9938 24.8883Z" fill="#121212"/>
</svg>
