<svg width="82" height="72" viewBox="0 0 82 72" fill="none" xmlns="http://www.w3.org/2000/svg">
<g clip-path="url(#clip0)">
<path d="M51.293 26.1088C51.4008 26.4653 51.4568 26.8354 51.4594 27.2079C51.5008 28.3484 51.6475 29.4645 51.75 30.5881C51.812 31.2509 51.9155 31.8941 51.938 32.5372C51.9932 33.7393 51.9863 34.9435 51.9173 36.1449C51.8966 36.442 51.8966 36.7401 51.9173 37.0372C51.9794 37.4725 52.2286 37.701 52.6225 37.7424C52.954 37.7665 53.2871 37.7596 53.6173 37.7217C54.0536 37.701 54.2811 37.4518 54.3638 37.0165C54.4069 36.861 54.4281 36.7002 54.4268 36.5389C54.4475 35.9794 54.4475 35.419 54.4475 34.8803C54.4268 33.8225 54.3855 32.7864 54.3855 31.7286C54.3638 30.463 54.3855 29.1777 54.3855 27.9131L54.3018 24.8441C54.2694 23.3927 54.1438 21.9449 53.9257 20.5096C53.9151 20.3905 53.8943 20.2726 53.8636 20.157C53.7602 19.701 53.4283 19.4932 52.9723 19.5148C52.7438 19.5355 52.537 19.5769 52.3085 19.6183C51.849 19.6922 51.385 19.7346 50.9197 19.7452C50.6922 19.7659 50.443 19.7866 50.2155 19.8279C49.8836 19.8693 49.6758 20.0564 49.5517 20.3676C49.4774 20.5265 49.4215 20.6934 49.3853 20.865C49.1784 21.7357 48.9913 22.5866 48.8051 23.4573L48.3905 25.6556C48.2861 26.2357 48.162 26.7961 48.0144 27.3555C47.9464 27.6794 47.8562 27.9983 47.7445 28.3099C47.7032 28.434 47.6618 28.5581 47.4954 28.5581C47.4434 28.5182 47.3999 28.4683 47.3676 28.4113C47.3353 28.3542 47.3148 28.2913 47.3073 28.2262L47.2246 27.646L47.1202 26.2771C47.0582 25.7797 47.0375 25.2616 46.9547 24.7633L46.3737 21.3831C46.3323 21.1349 46.2909 20.8857 46.2289 20.6572C46.0841 20.2219 45.8142 20.015 45.3582 19.9991C45.0263 19.9991 44.6737 19.9991 44.3239 20.0197C43.9176 20.0576 43.509 20.0645 43.1016 20.0404C42.6663 19.9991 42.23 19.9991 41.8154 19.9991C41.6684 19.9993 41.5257 20.0483 41.4095 20.1383C41.2933 20.2283 41.2102 20.3542 41.1732 20.4964C41.1042 20.7389 41.0759 20.9912 41.0895 21.243V29.3723C41.0895 30.0352 41.1111 30.699 41.1318 31.3628C41.1318 31.8602 41.1732 32.3576 41.1732 32.8352V36.726C41.2146 37.3691 41.4835 37.6587 42.1266 37.7217C42.166 37.7386 42.2089 37.7457 42.2516 37.7424H43.0396C43.599 37.7217 43.8689 37.4932 43.9516 36.9328C43.9687 36.8513 43.9757 36.7679 43.9723 36.6846C43.9895 36.4914 43.9964 36.2974 43.993 36.1035C43.993 34.5277 44.0137 32.9518 44.0137 31.376V31.1682C44.0757 30.2355 44.0964 29.3018 44.0757 28.3475C44.055 27.9883 44.055 27.6282 44.0757 27.269C44.0757 27.081 44.055 26.7303 44.2421 26.7096C44.3249 26.7096 44.3456 26.813 44.3663 26.875C44.4473 27.064 44.5167 27.2577 44.574 27.4552C44.7188 28.1397 44.8636 28.8242 44.9887 29.5294L45.4654 32.1837C45.5688 32.7224 45.6534 33.2828 45.7352 33.8422C45.8594 34.6302 45.9628 35.4407 46.0672 36.2276C46.1085 36.4552 46.1499 36.6837 46.2119 36.9112C46.3154 37.3268 46.6059 37.5336 47.0206 37.575L47.6016 37.6164C48.3059 37.6371 48.6171 37.4283 48.7835 36.725C48.8456 36.4965 48.8869 36.2483 48.9283 35.9992L49.7369 31.9345L50.0284 30.2759C50.1732 29.4466 50.3189 28.638 50.4844 27.8313C50.5878 27.3132 50.6922 26.797 50.8163 26.2968C50.8784 26.0674 51.1068 25.5691 51.293 26.1088Z" fill="#B0AFAE"/>
<path d="M57.0802 32.0192C57.1009 33.47 57.1009 34.9217 57.1423 36.3734C57.1423 36.6433 57.163 36.9329 57.163 37.2027L57.2044 37.4105C57.2664 37.7631 57.4949 37.97 57.8682 37.97C58.3786 37.9699 58.887 37.9067 59.382 37.7819C59.7759 37.6785 59.9828 37.4293 60.0034 36.994C60.0034 36.7862 60.0035 36.5784 59.9828 36.3716C59.9414 35.7905 59.8793 35.1897 59.8587 34.6086C59.8173 33.5508 59.7759 32.4733 59.7552 31.4118C59.7345 31.0178 59.7552 30.6032 59.7552 30.2092C59.7492 30.129 59.7608 30.0483 59.7894 29.9731C59.818 29.8979 59.8629 29.8299 59.9207 29.7739C59.9396 29.7491 59.9632 29.7284 59.9902 29.7128C60.0172 29.6973 60.0471 29.6873 60.078 29.6835C60.1089 29.6796 60.1402 29.682 60.1702 29.6904C60.2002 29.6988 60.2282 29.7131 60.2526 29.7325C60.339 29.8053 60.4157 29.8887 60.4811 29.9807L60.6052 30.3333C60.9164 31.4118 61.206 32.5109 61.4514 33.6101C61.742 34.8324 62.0325 36.0547 62.3437 37.277C62.3804 37.4354 62.4359 37.5888 62.5092 37.734C62.6333 38.0029 62.8618 38.1101 63.1523 38.1279C63.2499 38.1229 63.3468 38.109 63.4419 38.0866C63.8782 37.9822 64.3342 37.9408 64.7902 37.8788L65.0601 37.8167C65.1606 37.7857 65.2479 37.7219 65.3079 37.6355C65.3679 37.5491 65.3972 37.445 65.391 37.34C65.4127 37.1322 65.329 36.9639 65.2669 36.7759C64.9557 35.8845 64.6454 34.9715 64.3549 34.0802C64.1264 33.4371 63.9196 32.8156 63.8152 32.1518C63.7032 31.4729 63.5509 30.8013 63.3592 30.1406L63.048 29.1242C62.9991 28.9855 62.9909 28.8357 63.0242 28.6925C63.0575 28.5493 63.131 28.4185 63.236 28.3156L63.6507 27.8802C64.3765 27.113 64.8532 26.2207 64.9773 25.1423C65.054 24.3696 65.0471 23.591 64.9566 22.8199C64.9353 22.5885 64.8938 22.3595 64.8325 22.1354C64.6671 21.5139 64.3351 20.9742 63.9412 20.4768C63.6337 20.0679 63.2444 19.7276 62.7981 19.4777C62.3517 19.2277 61.8582 19.0736 61.3489 19.025C60.7835 18.9738 60.2157 18.953 59.648 18.963C59.2296 18.9702 58.8129 19.019 58.4041 19.1087C58.2122 19.1299 58.0231 19.1715 57.84 19.2328C57.4874 19.3363 57.3209 19.6089 57.2758 19.9587C57.2587 20.0403 57.2517 20.1237 57.2551 20.2069L57.1931 21.9078C57.1931 22.3638 57.1724 22.7992 57.1517 23.2345C57.069 24.5414 56.9853 25.8268 57.069 27.1337C57.069 27.2371 57.0483 27.3405 57.0483 27.4656C57.0483 27.9216 57.0276 28.3983 57.0276 28.876C57.0276 29.3743 57.069 29.8924 57.069 30.3897C57.069 30.7216 57.0483 31.0329 57.0483 31.3441C57.0483 31.5716 57.069 31.8001 57.0896 32.0079L57.0802 32.0192ZM59.8793 24.1644L59.9207 23.1301L59.9621 22.5491C60.0034 22.173 60.2733 21.9689 60.6259 21.9069C61.3104 21.7405 61.9526 22.031 62.2017 22.7155C62.6784 23.9378 62.6164 25.1413 61.725 26.2198C61.3931 26.6137 60.9578 26.8215 60.4388 26.9043C60.0241 26.9663 59.7806 26.7802 59.7552 26.3401C59.7447 26.215 59.7447 26.0892 59.7552 25.964L59.8793 24.1644Z" fill="#B0AFAE"/>
<path d="M70.8077 35.5028C70.725 34.8597 70.4551 34.6942 69.9784 34.6106C69.4829 34.5444 68.9789 34.5943 68.506 34.7563C68.0293 34.9218 67.7801 35.2537 67.7594 35.7718C67.7388 36.0623 67.6974 36.3528 67.6974 36.6434C67.7002 36.8442 67.714 37.0448 67.7388 37.2442C67.8008 37.6381 68.0293 37.8459 68.4233 37.908C68.4902 37.9318 68.5601 37.9457 68.631 37.9494C69.1116 37.9351 69.5901 37.8798 70.0612 37.7839C70.6009 37.6381 70.7663 37.3072 70.8077 36.8502C70.8284 36.6434 70.8077 36.4356 70.8077 36.2287C70.8077 36.0002 70.8284 35.7294 70.8077 35.5028Z" fill="#B0AFAE"/>
<path d="M50.049 50.383C50.049 49.2632 50.0077 48.1264 50.0077 46.9821C49.987 46.0692 50.0077 45.1365 49.987 44.2037C49.9663 43.8276 49.9456 43.4365 49.9043 43.0632C49.8413 42.6486 49.593 42.358 49.2198 42.3374C48.5766 42.296 47.9335 42.3167 47.312 42.3167H47.2706C46.9594 42.3787 46.7723 42.5649 46.7309 42.8761C46.6958 43.0254 46.6818 43.1789 46.6896 43.3321L46.7723 44.7632C46.793 45.2192 46.8137 45.6545 46.8137 46.0908C46.793 46.6916 46.5861 46.937 45.9844 46.937H44.9069C44.779 46.9368 44.652 46.9158 44.5308 46.875C44.4358 46.8616 44.3477 46.8177 44.2798 46.7498C44.212 46.682 44.168 46.5939 44.1547 46.4989C44.1103 46.3509 44.0962 46.1955 44.1133 46.0419C44.1133 45.7316 44.134 45.4204 44.134 45.0885C44.1547 44.3833 44.1547 43.6781 44.134 42.973C44.1338 42.7984 44.113 42.6245 44.0719 42.4549C44.0596 42.3372 44.0111 42.2262 43.9331 42.1372C43.8552 42.0481 43.7516 41.9854 43.6366 41.9575C43.489 41.9131 43.3338 41.899 43.1806 41.9161C42.7455 41.9902 42.3209 42.1165 41.916 42.2922C41.7212 42.3704 41.554 42.5048 41.4358 42.6782C41.3176 42.8517 41.2537 43.0564 41.2522 43.2663V44.0542C41.2935 45.2154 41.2935 46.3766 41.2315 47.5378C41.1694 48.5956 41.1487 49.6534 41.1074 50.7112C41.1074 51.2753 41.0857 51.831 41.0857 52.3697C41.0857 52.6603 41.0651 52.9339 41.0651 53.199C41.0651 53.4896 41.0857 53.7801 41.0857 54.0706V55.2318L41.1694 59.3792V59.7553C41.2108 60.2114 41.4177 60.4812 41.8737 60.5433C42.3373 60.595 42.8062 60.574 43.2633 60.4812C43.5952 60.4182 43.7617 60.2114 43.8275 59.9001C43.8449 59.7756 43.8518 59.6498 43.8482 59.524C43.8482 58.9016 43.8482 58.2801 43.8275 57.6577C43.8275 56.787 43.8895 55.9163 43.8689 55.0447C43.8482 53.6974 43.8689 52.3697 43.8689 51.0224C43.8723 50.8281 43.8862 50.6341 43.9102 50.4413C43.9723 50.1301 44.1171 49.9853 44.4283 49.9439C45.0461 49.8544 45.6713 49.8267 46.2947 49.8612C46.6266 49.8819 46.8344 50.0887 46.9171 50.4206C46.9577 50.5266 46.9787 50.639 46.9792 50.7525C47.0205 51.3533 47.0619 51.9551 47.0826 52.5775C47.124 53.1577 47.124 53.7594 47.1653 54.3395C47.2283 55.3146 47.2697 56.268 47.249 57.243V59.3586C47.2664 59.5532 47.2941 59.7469 47.3318 59.9387C47.3624 60.0441 47.4179 60.1405 47.4937 60.2199C47.5695 60.2992 47.6632 60.3592 47.7671 60.3947C47.9014 60.4362 48.0412 60.4575 48.1817 60.4577C48.5262 60.4783 48.8715 60.4783 49.216 60.4577C49.3144 60.4444 49.4115 60.4233 49.5065 60.3947C49.6233 60.3771 49.7318 60.3239 49.8171 60.2422C49.9025 60.1606 49.9605 60.0546 49.9832 59.9387C50.0209 59.7677 50.0485 59.5948 50.066 59.4206V58.4287L50.128 54.9037V54.489L50.049 50.383Z" fill="#B0AFAE"/>
<path d="M52.6207 52.3717C52.6423 52.7863 52.6207 53.2179 52.6423 53.6579C52.6837 54.4252 52.725 55.1924 52.7871 55.9596C52.8192 56.4607 52.882 56.9594 52.9751 57.4528C53.245 59.0079 54.2407 59.9613 55.6294 60.5838C55.7359 60.6304 55.8472 60.6651 55.9614 60.6872C56.6664 60.8364 57.3956 60.8294 58.0976 60.6665C58.6201 60.5375 59.1063 60.2912 59.5194 59.9463C59.9326 59.6015 60.2618 59.167 60.482 58.676C60.7181 58.1875 60.8655 57.6609 60.9174 57.1209C60.9587 56.6846 61.0011 56.2746 61.0217 55.8346C61.0424 55.3786 61.0424 54.9019 61.0424 54.4459C61.0217 53.782 60.9587 53.1389 60.9381 52.4967C60.9174 51.2744 60.8553 50.0286 60.7726 48.8053C60.7105 47.771 60.6071 46.7105 60.5027 45.6734C60.42 45.1139 60.3147 44.5545 60.0674 44.0355C59.6321 43.0407 58.9062 42.3769 57.8277 42.1484C57.3078 42.029 56.7906 42.029 56.2707 42.029C55.9246 42.0216 55.5801 42.0777 55.2543 42.1945C54.3629 42.485 53.7621 43.1074 53.3465 43.9367C52.9746 44.6913 52.7816 45.5213 52.7824 46.3626C52.7824 46.6117 52.7617 46.8402 52.7617 47.0677L52.6996 47.9807C52.6996 48.4367 52.7203 48.8721 52.679 49.3074C52.5746 50.1536 52.6376 50.9867 52.616 51.8376L52.6207 52.3717ZM57.7431 53.2179C57.7638 54.0058 57.7638 54.774 57.7638 55.5412C57.7698 55.7773 57.7202 56.0115 57.619 56.2248C57.5568 56.394 57.473 56.5546 57.3698 56.7024C57.2663 56.8148 57.1476 56.9123 57.0172 56.992C56.9213 57.0452 56.8128 57.0713 56.7032 57.0677C56.5936 57.0641 56.487 57.0308 56.3948 56.9714C56.2363 56.8883 56.1009 56.7672 56.0008 56.6188C55.7319 56.2248 55.6482 55.7895 55.6247 55.3128L55.5862 54.1581C55.5655 53.782 55.5241 53.3909 55.4828 53.0176C55.4621 52.8098 55.4414 52.603 55.4414 52.3952C55.4207 51.69 55.4414 50.9848 55.4 50.2806C55.3587 49.2228 55.4207 48.165 55.4414 47.0837C55.4484 46.7436 55.476 46.4041 55.5241 46.0673C55.5477 45.886 55.6041 45.7104 55.6906 45.5492C55.7407 45.4421 55.8158 45.3486 55.9096 45.2765C56.0033 45.2043 56.1129 45.1557 56.2293 45.1346C56.4785 45.0932 56.6853 45.1967 56.8724 45.3424C57.0313 45.4789 57.1467 45.6591 57.2044 45.8605C57.2871 46.1303 57.3924 46.3785 57.4112 46.6484C57.4939 47.2915 57.5569 47.913 57.5993 48.5562L57.7431 53.2179Z" fill="#B0AFAE"/>
<path d="M63.55 48.6614C63.5913 50.5898 63.4672 52.4985 63.6327 54.427C63.6948 55.1735 63.7361 55.9408 63.8208 56.6836C63.9035 57.4517 63.9656 58.1983 63.9862 58.9655C63.9862 59.4009 64.0069 59.8362 64.0483 60.2922C64.069 60.6683 64.2975 60.9147 64.7328 60.9767C64.8285 60.9975 64.9276 60.9975 65.0233 60.9767L66.099 60.8338C66.6631 60.7708 66.8455 60.4398 66.8455 59.9876C66.8662 59.9344 66.8662 59.8753 66.8455 59.8221C66.8455 59.2203 66.8239 58.5998 66.8032 57.9971L66.6998 55.3014C66.6998 55.0936 66.6791 54.8661 66.6998 54.6376C66.6998 54.2023 66.8455 54.0152 67.2808 53.9324L67.986 53.829C68.7326 53.7049 69.4161 53.3523 70.0179 52.8963C70.4532 52.5437 70.7851 52.129 70.9506 51.5893L71.1997 50.76C71.3256 50.378 71.3813 49.9763 71.3643 49.5744C71.322 48.9726 71.2599 48.3521 71.2599 47.7494C71.2599 46.9201 71.1358 46.1115 70.991 45.2812C70.8246 44.1623 69.8505 42.814 68.2737 42.6692C67.6522 42.6062 67.0514 42.5028 66.428 42.3994C65.7445 42.2753 65.0393 42.3167 64.3341 42.358C64.1583 42.36 63.9894 42.4266 63.8594 42.545C63.7294 42.6633 63.6474 42.8253 63.629 43.0002C63.5939 43.1918 63.58 43.3867 63.5876 43.5813C63.5876 44.183 63.6083 44.7838 63.6083 45.4063C63.629 46.4641 63.6496 47.5209 63.5462 48.558L63.55 48.6614ZM66.225 46.1115C66.2663 45.5718 66.5362 45.3442 67.0542 45.3235C67.6184 45.3029 67.9879 45.5511 68.2361 46.0485C68.4242 46.4246 68.4646 46.8167 68.5266 47.2106C68.568 47.5867 68.6301 47.9355 68.6508 48.3088C68.696 48.7083 68.7098 49.1107 68.6921 49.5123C68.6548 49.8934 68.485 50.2493 68.2124 50.5181C67.9398 50.787 67.5815 50.9518 67.2 50.9838C66.743 51.0054 66.5362 50.839 66.4534 50.383C66.4111 50.1131 66.3904 49.8442 66.3697 49.5744L66.2456 47.5002C66.2456 47.2313 66.2249 46.9615 66.2043 46.6709C66.2008 46.4842 66.2077 46.2974 66.225 46.1115Z" fill="#B0AFAE"/>
<path d="M81.1974 45.6132C81.1561 45.0744 81.094 44.515 80.8862 43.996C80.638 43.3735 80.244 42.8348 79.6423 42.5029C79.1121 42.1943 78.5132 42.0233 77.9 42.0055C77.1741 41.9848 76.4896 42.171 75.8061 42.3994C75.3078 42.5649 74.9354 42.9175 74.6656 43.3528C74.3329 43.8848 74.1074 44.4767 74.0018 45.0951C73.8983 45.6546 73.8363 46.2356 73.7526 46.8167C73.7112 47.1693 73.6285 47.5209 73.6078 47.8735C73.5251 48.5787 73.7112 49.2425 73.8983 49.9063C73.9834 50.2419 74.1311 50.5583 74.3337 50.8391C74.5618 51.1707 74.79 51.4819 75.0182 51.7727C75.765 52.7183 76.4639 53.7009 77.1121 54.7166C77.3189 55.0265 77.4863 55.361 77.6104 55.7123C77.7017 55.9848 77.7437 56.2714 77.7345 56.5586C77.7259 56.7699 77.6734 56.977 77.5803 57.1669C77.4872 57.3568 77.3556 57.5252 77.1939 57.6615C77.0787 57.7523 76.9335 57.7963 76.7873 57.7848C76.6411 57.7733 76.5046 57.7071 76.405 57.5994C76.2629 57.4319 76.1509 57.2411 76.0741 57.0353C75.8663 56.4344 75.6792 55.8327 75.6378 55.1905C75.6375 55.0361 75.6166 54.8824 75.5757 54.7336C75.493 54.506 75.3482 54.3575 75.0783 54.3575C74.6534 54.3336 74.2285 54.4046 73.8344 54.5652C73.7001 54.6032 73.5806 54.6811 73.4916 54.7886C73.4026 54.896 73.3483 55.028 73.3361 55.167C73.2907 55.3428 73.2767 55.5251 73.2947 55.7058C73.3568 56.2238 73.4198 56.74 73.5232 57.2609C73.7021 58.2494 74.2065 59.1496 74.9561 59.8184C75.7223 60.5086 76.7275 60.8729 77.758 60.8338C78.4218 60.8122 79.002 60.6261 79.521 60.1907C80.1432 59.6412 80.6142 58.9413 80.889 58.1579C81.2003 57.3117 81.2003 56.4166 81.0968 55.5459C81.0348 54.9235 80.827 54.3236 80.6408 53.7416C80.5241 53.3844 80.3636 53.043 80.1632 52.7252L79.458 51.6467L78.9399 50.8588C78.7535 50.5872 78.5368 50.3377 78.294 50.1151C77.9882 49.8336 77.6976 49.536 77.4233 49.2237C76.6768 48.2901 76.4906 47.2332 76.7388 46.0927C76.8001 45.8226 76.9296 45.5727 77.1149 45.3668C77.4468 44.9908 77.8408 44.9908 78.1727 45.4082C78.2413 45.4935 78.2907 45.5926 78.3175 45.6988C78.3828 45.8611 78.4383 46.0272 78.4839 46.1961C78.5593 46.5924 78.594 46.9954 78.5873 47.3987C78.5805 47.5656 78.5944 47.7327 78.6287 47.8961C78.7124 48.2487 78.8985 48.3944 79.2718 48.3944C79.7485 48.4151 80.2045 48.2694 80.6408 48.0625C80.9097 47.9375 81.0555 47.6864 81.1382 47.3987C81.2416 47.0226 81.2416 46.6522 81.2416 46.2789L81.1974 45.6132Z" fill="#B0AFAE"/>
<path d="M19.2844 21.1613L18.1561 19.8082C18.1442 19.7941 18.1361 19.7773 18.1324 19.7593C18.1287 19.7412 18.1295 19.7225 18.1349 19.7049C18.1402 19.6873 18.1498 19.6713 18.1629 19.6583C18.1759 19.6453 18.192 19.6358 18.2097 19.6305C18.8876 19.4312 21.5945 18.7646 24.0476 19.9634C24.0683 19.9737 24.0854 19.9901 24.0964 20.0104C24.1075 20.0307 24.1121 20.0539 24.1095 20.0769C24.1069 20.0999 24.0974 20.1215 24.0821 20.1389C24.0668 20.1563 24.0466 20.1685 24.0241 20.174L19.3944 21.1989C19.3744 21.2033 19.3535 21.2021 19.3341 21.1955C19.3147 21.1888 19.2975 21.177 19.2844 21.1613Z" fill="#B0AFAE"/>
<path d="M21.9207 62.3382C21.0793 62.3741 20.2364 62.3565 19.3971 62.2855C19.3683 62.4885 19.3814 62.6952 19.4357 62.8929C21.444 62.6654 21.7778 64.5449 21.7778 64.5449C21.3249 64.599 20.8656 64.5577 20.4295 64.4236C20.2274 64.9173 19.6961 65.2454 19.6961 65.2454C19.6961 65.2454 19.101 65.0573 18.786 64.6248C18.3949 64.8598 17.959 65.0104 17.5063 65.0668C17.5063 65.0668 17.4396 63.3019 18.9834 62.9174C18.9292 62.7059 18.9165 62.4859 18.9458 62.2695C11.894 61.6114 10.1075 56.158 10.1075 56.158C7.08467 62.4106 8.67556 66.5693 8.67556 66.5693C8.33801 65.5049 8.90216 64.4067 8.90216 64.4067C9.54058 69.924 12.208 70.7815 12.208 70.7815C11.5969 69.8836 12.3237 67.8442 12.3237 67.8442C12.6058 68.8352 13.5122 69.957 13.5122 69.957C13.1285 69.3392 12.8681 68.1573 12.8681 68.1573C13.3739 69.1465 13.9437 69.9363 14.585 70.5079C14.1487 69.4107 15.1369 68.3219 15.1369 68.3219C15.4002 68.4065 15.654 68.5024 15.8985 68.6039C18.6506 69.7745 20.1992 71.9888 20.1992 71.9888L26.0287 70.1647C28.0107 69.6006 28.8118 70.5211 28.8118 70.5211C28.7648 69.7473 28.2909 69.3768 28.2909 69.3768C29.9203 69.7398 30.0774 71.2959 30.0774 71.2959C32.4637 69.9428 32.223 67.3534 32.223 67.3534C32.7533 67.7935 32.9874 69.2283 32.9874 69.2283L33.0269 66.4075C34.1082 67.0986 33.9117 68.3604 33.9117 68.3604C35.7498 66.1979 34.6488 64.0889 34.5698 63.9488C35.3267 65.2454 35.4273 66.7244 35.4273 66.7244C35.9454 62.5516 35.4837 58.7652 34.977 56.2266C32.1431 59.6895 27.3065 62.1078 21.9207 62.3382ZM19.399 65.9534C19.4451 65.8254 19.4767 65.6926 19.493 65.5576L19.5871 65.5914L19.746 65.6422L19.8879 65.5547L19.9716 65.4983C20.0737 65.7702 20.2386 66.0141 20.453 66.2101C20.4539 66.4026 20.4068 66.5922 20.316 66.762C20.2252 66.9317 20.0936 67.0761 19.9331 67.1823C19.7521 67.1177 19.5899 67.0091 19.4613 66.8663C19.3326 66.7235 19.2414 66.551 19.1959 66.3643C19.281 66.2373 19.3493 66.0998 19.399 65.9553V65.9534ZM17.8316 65.4005C17.8316 65.3921 17.8373 65.3864 17.8392 65.3789C18.1408 65.3169 18.4336 65.2178 18.7108 65.0837C18.8396 65.2011 18.9812 65.3036 19.1329 65.3893C19.1291 65.5404 19.1008 65.69 19.0492 65.8321C18.7672 66.6285 18.0658 66.6783 18.0658 66.6783C18.0658 66.6783 17.5505 66.1997 17.8316 65.4024V65.4005ZM18.9674 68.0012C18.7922 67.8947 18.6467 67.7457 18.5441 67.5681C18.4416 67.3904 18.3854 67.1899 18.3807 66.9848C18.5781 66.9203 18.7606 66.817 18.9176 66.6811C19.0437 66.9839 19.2652 67.2371 19.5485 67.4023C19.4345 67.6667 19.2279 67.8803 18.9674 68.0031V68.0012ZM20.1155 68.6754C19.8376 68.5764 19.6084 68.3745 19.4752 68.1113C19.6541 67.9564 19.7963 67.7637 19.8917 67.5471L19.9801 67.5725L20.0609 67.5264C20.2053 67.7154 20.3896 67.8701 20.6006 67.9796C20.5342 68.2657 20.3606 68.5154 20.1155 68.6773V68.6754ZM21.067 67.7446C20.7852 67.6882 20.5335 67.5311 20.359 67.3026C20.5934 67.0736 20.7472 66.7747 20.7972 66.4508C20.9823 66.545 21.1843 66.6015 21.3914 66.6172C21.4365 66.8175 21.4305 67.026 21.3738 67.2234C21.3171 67.4207 21.2116 67.6006 21.067 67.7464V67.7446ZM21.6227 66.2402C21.6227 66.2402 20.9288 66.3596 20.4643 65.6544C20.3803 65.5286 20.3168 65.3902 20.2763 65.2445C20.4028 65.1243 20.5156 64.9906 20.6129 64.8458C20.9134 64.9096 21.2207 64.9364 21.5277 64.9257C21.5329 64.9312 21.5377 64.9372 21.5418 64.9436C22.0073 65.6544 21.6255 66.2449 21.6255 66.2449L21.6227 66.2402Z" fill="#B0AFAE"/>
<path d="M36.9148 8.60241C36.8337 7.57417 36.6227 6.56035 36.2867 5.58518C36.2265 5.37268 36.0723 5.00599 36.0723 5.00599C35.809 4.31796 35.4733 3.65986 35.071 3.04276C29.8263 -3.8793 30.7026 3.983 30.7026 3.983C30.6086 10.1971 28.1386 13.549 28.1386 13.549L27.3262 14.447C27.3168 14.2768 27.3046 14.1066 27.2848 13.9373C27.2853 13.9311 27.2853 13.9248 27.2848 13.9185C26.8217 12.822 26.1414 11.8305 25.2849 11.0038C25.4984 12.2261 25.599 13.3741 24.9662 14.0361C24.6565 13.1428 24.0369 12.3966 23.1073 11.7974C23.2192 12.3615 23.3179 12.9256 22.9296 13.4823C22.2893 13.1635 21.3434 12.8815 20.3571 12.653L19.6049 11.0828C19.6049 11.0828 19.5109 10.9107 19.3849 10.6127C18.8817 9.45119 18.642 8.19271 18.683 6.9276C18.724 5.6625 19.0446 4.42216 19.6218 3.29569C20.4728 1.61547 21.209 -0.885573 17.2064 0.315117H17.1979H17.1894C15.8606 0.778819 14.6436 1.51546 13.6165 2.47767C13.6165 2.47767 14.4627 2.00755 15.2149 1.91353C15.2149 1.91353 13.5225 3.60597 12.3942 3.88804C12.8156 3.98215 13.2525 3.98215 13.6739 3.88804L13.6137 3.98206C13.1276 4.28858 12.5428 4.73426 12.4854 5.11035C12.702 4.96621 12.9365 4.85114 13.1831 4.76811C12.1488 6.91186 11.8188 9.75703 13.8657 13.141C13.2884 13.5227 12.8615 13.9759 12.6123 14.4394C12.0661 15.7558 12.3303 16.5813 12.8709 17.0561C12.3735 17.514 11.8949 17.9898 11.437 18.4891C11.0455 18.4848 10.6553 18.5371 10.2787 18.6442C10.2578 18.6501 10.2391 18.6622 10.2252 18.6789C10.2113 18.6955 10.2027 18.716 10.2006 18.7376C10.1984 18.7592 10.2029 18.781 10.2133 18.8C10.2237 18.8191 10.2396 18.8346 10.2589 18.8445L10.8578 19.151C10.7168 19.3202 10.5758 19.4885 10.4413 19.6644C10.0547 20.1571 9.72181 20.6898 9.44843 21.2534C9.3482 21.4662 9.26397 21.6862 9.19644 21.9115L4.02981 21.495C3.93076 21.4872 3.83217 21.515 3.75182 21.5734C3.67148 21.6319 3.61467 21.7171 3.59166 21.8138C2.83194 24.8902 3.60858 27.4421 3.88689 28.308C3.09051 28.6841 1.85033 29.7438 1.49116 30.2703C1.30518 30.5368 1.17472 30.838 1.10754 31.156C1.06253 31.3936 1.06508 31.6378 1.11506 31.8744C1.11171 31.878 1.10887 31.8821 1.1066 31.8866C0.992828 32.0934 0.892222 32.273 0.801019 32.4714C0.709815 32.6698 0.617671 32.8588 0.53399 33.0553C0.364144 33.4502 0.229174 33.8592 0.130626 34.2776C0.0277766 34.7174 -0.0146115 35.1691 0.0046335 35.6203C0.027114 36.0956 0.160071 36.5592 0.392954 36.9742C0.452189 37.0786 0.522707 37.1745 0.588524 37.2742C0.654341 37.3738 0.738963 37.4622 0.818883 37.545L0.861194 37.5863C0.861194 37.8336 0.870597 38.1082 0.871537 38.1505C0.871537 38.3084 0.8847 38.4673 0.896923 38.6253C0.921084 38.947 0.962514 39.2671 1.02104 39.5843C1.13575 40.2423 1.36589 40.8748 1.70083 41.4526C2.05849 42.0571 2.5651 42.5598 3.17231 42.9128C3.77507 43.2518 4.44566 43.4525 5.13554 43.5005C5.79301 43.5477 6.45385 43.5072 7.10064 43.3801C9.16917 42.9965 12.7421 40.8339 12.7421 40.8339C11.6016 45.5483 8.47339 51.2621 8.76393 56.0151C10.0314 53.3053 11.2339 52.9038 11.2339 52.9038C11.1061 53.4033 10.9166 53.885 10.6698 54.3377C13.1812 58.6572 15.8054 60.484 21.9866 60.218C27.3102 59.9885 31.8892 57.4913 34.4184 53.9183C34.2445 53.3034 34.1232 52.9602 34.1232 52.9602C34.5624 54.1297 35.2341 55.198 36.0977 56.1006C34.6742 51.3345 34.1683 45.946 34.1683 45.946C34.9205 48.2778 35.8664 49.6966 35.8664 49.6966L34.9553 43.3566L36.0103 44.892C34.7297 40.8057 33.6907 37.088 33.3042 34.3613C34.2736 36.5079 34.4128 36.8793 35.4433 38.0423C34.6601 35.7623 34.1524 28.7086 34.1524 28.7086C34.1589 28.3936 34.1618 28.0871 34.1627 27.7871C34.9356 28.1632 35.8683 27.6987 35.9783 26.6522L36.0836 25.6537C36.106 25.4518 36.0876 25.2474 36.0294 25.0527C35.9712 24.858 35.8745 24.6771 35.7449 24.5206C35.6153 24.3641 35.4556 24.2352 35.2752 24.1417C35.0948 24.0482 34.8974 23.992 34.6949 23.9763L34.0113 23.9208C33.7791 21.3765 33.3127 19.6333 32.7993 18.4402C33.2281 18.0171 33.6177 17.5943 33.9681 17.1718C33.874 17.7049 33.7368 18.2408 33.5308 18.5944C33.5308 18.5944 34.6808 18.1026 34.7748 16.1281C34.7748 16.1281 34.7644 16.4168 35.3389 17.2564C35.2449 16.5042 35.527 15.3759 36.3676 13.0159C36.4838 13.7653 36.5172 14.5252 36.4672 15.2819C36.4672 15.2819 37.4667 12.763 36.9148 8.60241ZM14.349 5.02949C14.2736 5.38837 14.2911 5.76053 14.3997 6.11077C14.5392 5.33352 14.7505 4.57086 15.0306 3.83256C15.0306 3.83256 14.0283 8.11631 15.4754 12.5768C15.1933 12.6426 14.9423 12.715 14.7307 12.7856C14.1036 11.095 13.0223 7.44404 14.348 5.02949H14.349ZM10.2392 21.6172C10.4805 21.1049 10.7728 20.6183 11.1117 20.1646C11.2684 19.9508 11.4317 19.7402 11.6016 19.5327L13.0937 20.2953C13.1132 20.305 13.1352 20.3087 13.1568 20.3059C13.1785 20.303 13.1987 20.2938 13.215 20.2793L14.1327 19.4434C14.1451 19.4322 14.1547 19.4183 14.1608 19.4028C14.1669 19.3872 14.1692 19.3705 14.1677 19.3538C14.1661 19.3372 14.1607 19.3212 14.1518 19.307C14.143 19.2929 14.131 19.281 14.1167 19.2723C13.5893 18.9608 13.0158 18.7349 12.4177 18.6028C12.6998 18.2963 12.9931 17.9954 13.2931 17.7049C13.6611 17.8023 14.0455 17.8215 14.4214 17.7613L14.8595 17.6936L14.5304 17.451C14.3171 17.287 14.1433 17.0772 14.0218 16.8371C13.9969 16.7797 13.9783 16.7198 13.9663 16.6584C13.9954 16.7082 14.0255 16.7571 14.0603 16.8032C14.2048 17.0015 14.3781 17.1771 14.5746 17.3241C14.7642 17.4672 14.9662 17.5931 15.1783 17.7002C15.3904 17.8103 15.6104 17.9046 15.8364 17.9823L16.4119 18.1778L16.0264 17.7077C15.94 17.6072 15.8745 17.4906 15.8336 17.3645C15.7984 17.2559 15.8071 17.1377 15.8581 17.0354C15.918 16.9218 16.0052 16.8249 16.1119 16.7534C16.1601 16.7185 16.2107 16.6871 16.2633 16.6593C16.2886 16.8727 16.3323 17.0835 16.394 17.2893C16.4354 17.4322 16.4824 17.5714 16.5341 17.7105C16.5858 17.8497 16.6394 17.9832 16.7033 18.1224L16.866 18.474L17.0268 18.1101C17.0622 18.0222 17.1097 17.9396 17.1678 17.8647C17.2283 17.7883 17.2985 17.72 17.3765 17.6616C17.416 17.6316 17.4574 17.6043 17.4997 17.578C17.4645 17.713 17.4645 17.8548 17.4997 17.9898C17.5448 18.1416 17.6269 18.2799 17.7385 18.3922C17.8425 18.4993 17.9632 18.5889 18.0958 18.6574L18.4343 18.8351L18.3403 18.459C18.2801 18.2098 18.2801 17.9512 18.408 17.7952C18.5359 17.6391 18.7841 17.5639 19.037 17.5601C19.5954 17.5367 20.1547 17.5484 20.7116 17.5949C21.8167 17.6907 22.8858 18.0353 23.8388 18.6028C24.7844 19.1799 25.5759 19.9778 26.1452 20.9281C26.4198 21.4076 26.6934 21.9172 26.9971 22.3976C27.2049 22.7258 27.3986 23.0558 27.5772 23.3999L10.0887 21.9896C10.1339 21.8655 10.1837 21.7404 10.2392 21.6172ZM19.6106 26.609C19.4116 26.4092 19.1979 26.2247 18.9712 26.0571C18.7439 25.8847 18.5069 25.7255 18.2613 25.5804C17.7513 25.2852 17.2164 25.0351 16.6629 24.8329C16.6467 24.8266 16.6328 24.8153 16.6234 24.8006C16.6139 24.786 16.6093 24.7687 16.6103 24.7513C16.6112 24.7339 16.6176 24.7172 16.6286 24.7037C16.6396 24.6901 16.6545 24.6804 16.6714 24.6759H16.677C17.3352 24.5123 18.0046 24.595 18.6412 24.7962C19.2863 25.011 19.8741 25.3698 20.3599 25.8455C20.8465 26.322 21.2155 26.9054 21.4375 27.5492C21.6579 28.1753 21.7123 28.8478 21.5954 29.5012V29.5143C21.5913 29.5352 21.5791 29.5537 21.5615 29.5656C21.5439 29.5776 21.5223 29.5821 21.5014 29.5783C21.4886 29.5754 21.4767 29.5696 21.4665 29.5613C21.4564 29.5529 21.4484 29.5423 21.4431 29.5303C21.2175 28.9824 20.9558 28.45 20.6599 27.9366C20.513 27.6929 20.351 27.4586 20.1747 27.2352C20.0041 27.0114 19.8154 26.802 19.6106 26.609ZM19.7695 29.6497V29.6544C19.768 29.6652 19.7643 29.6756 19.7588 29.685C19.7532 29.6944 19.7458 29.7025 19.7371 29.709C19.7283 29.7155 19.7184 29.7202 19.7078 29.7227C19.6972 29.7253 19.6862 29.7257 19.6754 29.724C19.6621 29.7221 19.6494 29.717 19.6384 29.7092C19.6274 29.7013 19.6185 29.6909 19.6124 29.6789C19.5241 29.4908 19.4733 29.3028 19.3849 29.127C19.306 28.9502 19.2175 28.7779 19.1198 28.6108C19.068 28.5299 19.0257 28.4443 18.9721 28.3654L18.8048 28.1331C18.7488 28.0574 18.6885 27.9848 18.6243 27.9159L18.5302 27.8097C18.4983 27.7749 18.4616 27.7448 18.4277 27.7157C18.1586 27.4476 17.8536 27.2182 17.5213 27.034L17.2665 26.8986C17.1782 26.8582 17.0917 26.814 17.0014 26.7764C16.8221 26.6963 16.6381 26.6273 16.4504 26.5695C16.4402 26.5661 16.4308 26.5607 16.4228 26.5537C16.4147 26.5466 16.4081 26.538 16.4034 26.5284C16.3986 26.5188 16.3959 26.5083 16.3952 26.4976C16.3946 26.4869 16.3961 26.4762 16.3996 26.4661C16.4039 26.4527 16.4116 26.4407 16.422 26.4312C16.4324 26.4218 16.4451 26.4153 16.4589 26.4125H16.4645C16.9018 26.3228 17.3552 26.3554 17.7752 26.5065C18.2066 26.6495 18.5989 26.8905 18.9214 27.2108C19.2487 27.5275 19.4956 27.9179 19.6416 28.3494C19.7161 28.5578 19.7657 28.7743 19.7892 28.9944C19.8065 29.212 19.7999 29.4308 19.7695 29.6469V29.6497ZM1.651 36.9169L1.55697 36.8228C1.4968 36.7589 1.44226 36.6912 1.38397 36.6254C1.32567 36.5596 1.2796 36.4872 1.23541 36.4148C1.04089 36.1337 0.902633 35.8176 0.828286 35.4839C0.760515 35.1311 0.747828 34.7698 0.790676 34.413C0.891282 33.218 1.54945 32.1837 1.65382 32.0286C2.45679 31.7465 3.48071 32.4319 3.78441 35.1426C3.59072 35.4933 3.44874 35.8525 3.25223 36.1769C3.05572 36.5013 2.8122 36.8304 2.54987 37.01C2.44487 37.0927 2.31817 37.1433 2.18506 37.1557C2.07473 37.1643 1.96423 37.1414 1.86631 37.0899C1.81367 37.0634 1.76468 37.0302 1.72058 36.9912C1.72058 36.9912 1.68015 36.946 1.651 36.9169ZM28.9594 30.3756C28.8517 31.489 28.6151 32.5861 28.2542 33.6448C27.9027 34.7039 27.4264 35.7174 26.8354 36.6639L26.7686 36.7636L26.8316 36.8576C27.0425 37.1721 27.1939 37.5227 27.2782 37.8919C27.3595 38.2641 27.3729 38.6479 27.3177 39.0249C27.2637 39.4066 27.1581 39.7792 27.0037 40.1325C26.9179 40.3319 26.8196 40.5256 26.7094 40.7126C26.663 40.4687 26.5763 40.2341 26.4527 40.0187C26.2431 39.6584 25.9742 39.3361 25.6573 39.0653C25.3499 38.8006 25.0184 38.5651 24.6672 38.362C24.3185 38.1539 23.9549 37.972 23.5793 37.8176L23.0782 37.6098L23.3678 38.0715C23.4551 38.2192 23.5239 38.3771 23.5727 38.5416C23.6167 38.6834 23.6528 38.8274 23.6809 38.9732C23.5504 38.8325 23.4051 38.7064 23.2474 38.5971C23.0811 38.48 22.9026 38.381 22.7152 38.3018L22.3138 38.1317L22.4905 38.5369C22.6701 38.9459 22.7124 39.4283 22.7068 39.8993C22.7035 40.1397 22.6878 40.3798 22.6598 40.6186C22.6504 40.7004 22.6381 40.7822 22.6259 40.865C22.5798 40.8085 22.5319 40.754 22.4858 40.7014C22.4057 40.6182 22.3206 40.54 22.231 40.4672L22.0956 40.3544L21.9555 40.2604C21.5835 40.0079 21.1838 39.7987 20.7642 39.637C20.5574 39.5561 20.3458 39.4866 20.1352 39.417C19.9246 39.3474 19.7093 39.291 19.494 39.2421C19.2787 39.1932 19.0643 39.1405 18.8471 39.1011L18.1955 38.9873C17.8595 38.9343 17.5208 38.9001 17.181 38.8848C16.8406 38.8748 16.5009 38.8804 16.1618 38.9017C15.4857 38.9506 14.8149 39.0556 14.1562 39.2158C13.498 39.3737 9.50672 41.54 8.43108 41.9425C7.35545 42.3449 6.21963 42.6194 5.13459 42.5395C4.60918 42.5081 4.09642 42.3655 3.63021 42.1211C3.1787 41.8717 2.79891 41.5103 2.5273 41.0718C2.23991 40.6074 2.03001 40.0993 1.9058 39.5674C1.84019 39.2901 1.78903 39.0095 1.75254 38.7268C1.73562 38.5849 1.81366 38.2567 1.80238 38.11C1.99812 38.1411 2.19817 38.1315 2.39003 38.0818C2.53474 38.0384 2.67248 37.9744 2.79903 37.8919C2.91174 37.815 3.0155 37.7258 3.10837 37.6258C3.34098 37.3586 3.52091 37.0498 3.63867 36.7157C3.65381 36.8978 3.67956 37.079 3.71577 37.2582C3.79643 37.6367 3.93503 38.0004 4.12666 38.3366C4.33938 38.6852 4.6167 38.99 4.94373 39.2346C5.27775 39.4699 5.65274 39.6408 6.04945 39.7385C6.14912 39.763 6.2516 39.7827 6.35315 39.8034C6.45469 39.8241 6.5506 39.8213 6.65027 39.8297C6.83831 39.8391 7.02636 39.841 7.20877 39.8363C7.94044 39.8105 8.66474 39.681 9.36004 39.4518C10.0427 39.2252 10.7131 38.9722 11.311 38.6055C13.263 37.4114 14.0453 36.4721 15.025 35.5084C13.845 36.2117 13.4698 36.4825 12.7167 36.9056C12.1325 37.2337 11.5304 37.5291 10.9133 37.7904C10.3166 38.0621 9.69867 38.2847 9.06575 38.4561C8.45359 38.6294 7.82141 38.722 7.18526 38.7315C7.03012 38.7315 6.87404 38.725 6.72172 38.7127C6.65121 38.7043 6.57599 38.7005 6.50923 38.6902L6.31178 38.6526C6.04276 38.5924 5.78651 38.4851 5.55488 38.3357C5.31862 38.192 5.11211 38.0043 4.94655 37.7828C4.76045 37.5491 4.60791 37.2906 4.49335 37.0147C4.25038 36.4312 4.08261 35.8192 3.99408 35.1934C6.26665 31.1109 8.25714 35.0928 9.19926 32.9782C9.73238 31.1071 4.94373 29.4796 2.57902 30.2082C3.80133 28.4218 6.81011 28.2337 8.22987 26.6109C8.36339 26.4586 8.48186 26.2959 8.60597 26.1342C10.573 25.5287 12.9847 26.4021 13.7538 28.5873L14.0095 29.3131C14.2352 29.9528 14.6377 30.5154 15.1703 30.9354C15.7028 31.3555 16.3437 31.6159 17.0183 31.6863L20.3496 32.037C21.2953 32.1362 22.2417 31.8558 22.9806 31.2574C23.7196 30.6589 24.1906 29.7915 24.2901 28.8458L24.5722 26.1991C24.5881 26.0466 24.6338 25.8987 24.7069 25.7639C24.7799 25.6291 24.8789 25.5101 24.998 25.4136C25.1171 25.3171 25.2541 25.245 25.4011 25.2015C25.5481 25.158 25.7023 25.1439 25.8547 25.1601L28.4385 25.4318C28.6082 25.9601 28.7411 26.4995 28.8362 27.0462C29.0249 28.1456 29.0663 29.2653 28.9594 30.3756ZM32.5652 16.7618C33.2234 15.3515 32.7373 14.5203 32.7373 14.5203C32.2982 16.4328 31.4839 16.6988 31.4839 16.6988C31.9381 16.1817 31.9926 15.3186 31.9926 15.3186C31.3429 16.3068 30.8258 16.3528 30.8258 16.3528C34.2887 11.3075 33.3955 4.25567 33.3955 4.25567C33.8298 6.5226 34.6883 7.21744 34.6883 7.21744C34.2652 6.23018 34.4608 5.88511 34.4608 5.88511C36.613 12.4367 32.5624 16.7618 32.5624 16.7618H32.5652Z" fill="#B0AFAE"/>
</g>
<defs>
<clipPath id="clip0">
<rect width="81.2388" height="72" fill="white"/>
</clipPath>
</defs>
</svg>
