<svg width="118" height="72" viewBox="0 0 118 72" fill="none" xmlns="http://www.w3.org/2000/svg">
<g clip-path="url(#clip0)">
<path d="M115.139 44.5189C113.516 42.9631 111.458 42.1755 109.025 42.1755C107.127 42.133 105.265 42.7051 103.718 43.8066V42.7844L104.601 42.505V36.8854L96.7188 39.4466C96.6154 39.3473 96.5062 39.254 96.392 39.1673C95.6477 38.6163 94.7396 38.332 93.814 38.3601C92.6938 38.3517 91.6063 38.7373 90.7416 39.4494C89.4707 40.4661 89.2026 41.6364 89.2026 42.438C89.2012 42.7322 89.2387 43.0252 89.3143 43.3095C88.3486 42.5516 87.1478 42.1563 85.9207 42.1922C84.9552 42.2077 84.0055 42.4396 83.1416 42.8709C82.7904 43.0391 82.4482 43.2256 82.1165 43.4296C81.9271 43.2739 81.7274 43.1312 81.5188 43.0022C80.8363 42.585 80.0722 42.3191 79.278 42.2228C78.4839 42.1264 77.6783 42.2017 76.9158 42.4436L76.941 42.1866H74.3713L68.6651 43.7787L68.6288 43.748C67.5115 42.7117 66.0284 42.1866 64.2185 42.1866C63.595 42.1854 62.9729 42.2452 62.3611 42.3654L60.0205 41.5107L57.3224 37.7065L56.2051 38.631C55.8965 38.4296 55.5691 38.2584 55.2276 38.1199C54.2868 37.7215 53.2745 37.52 52.2529 37.5278C50.8148 37.5273 49.3982 37.8762 48.1248 38.5445C46.8159 39.2369 45.6606 40.187 44.7284 41.3375C43.8583 42.3652 43.1826 43.5425 42.7341 44.8121C42.5476 45.3461 42.401 45.8932 42.2956 46.4489C41.8922 45.7338 41.3838 45.0832 40.7873 44.5189C39.1646 42.9631 37.1061 42.1755 34.6705 42.1755C32.2349 42.1755 30.1457 42.9603 28.5006 44.5189L28.4056 44.611C28.1863 44.29 27.9335 43.9932 27.6515 43.7256C27.3414 43.4424 27.0003 43.195 26.6348 42.9883C26.8357 42.8285 27.0226 42.6519 27.1934 42.4604C27.8107 41.7397 28.266 40.7035 28.59 39.2958L29.129 36.9329H25.2913L23.7579 36.9692L23.5624 37.7792L23.0262 37.6311C22.8062 37.5584 22.5824 37.4978 22.3558 37.4496L22.1352 37.4049C21.8906 37.3634 21.643 37.342 21.395 37.3406C20.819 37.3304 20.2479 37.4481 19.7229 37.6852C19.1979 37.9224 18.732 38.2731 18.3589 38.7121C18.1953 38.8972 18.0467 39.0952 17.9148 39.3042L14.6497 37.2652L13.9654 38.2372C13.5939 38.092 13.2252 37.9579 12.8649 37.8574C12.0622 37.6243 11.2316 37.5013 10.3958 37.4915C8.29493 37.481 6.27095 38.2814 4.74544 39.7259C3.1059 41.2593 2.27357 43.0553 2.27357 45.0635C2.26226 46.1508 2.55228 47.2201 3.11149 48.1527C3.27977 48.443 3.47224 48.7186 3.68687 48.9766L0 54.4231L1.32113 55.5403C2.51197 56.5644 3.86575 57.3819 5.3264 57.9592C6.74222 58.5229 8.25186 58.8138 9.77578 58.8166C11.8349 58.8504 13.8403 58.1582 15.4401 56.8615C15.5295 56.962 15.6189 57.0598 15.7195 57.1408C16.2654 57.6839 16.9161 58.1104 17.632 58.3942C18.348 58.6779 19.1141 58.8131 19.8839 58.7915C20.6311 58.7943 21.3717 58.653 22.0653 58.3753L22.0877 58.4563H30.2602V57.7469C31.62 58.4703 33.1417 58.8355 34.6817 58.8083C37.1061 58.8083 39.1674 58.0234 40.8265 56.4676C41.7986 55.5553 42.5224 54.4105 42.9296 53.1411C43.3545 54.1567 43.9517 55.0912 44.6949 55.9034C46.4685 57.8307 48.7476 58.8083 51.4681 58.8083C53.232 58.8264 54.9632 58.3315 56.4509 57.3838C56.5487 57.3223 56.6437 57.2609 56.7302 57.1939C57.2735 57.7272 57.919 58.1452 58.6279 58.4227C59.3369 58.7001 60.0947 58.8313 60.8556 58.8083C61.6005 58.8071 62.3381 58.6629 63.0286 58.3837L63.0482 58.4563H104.534V57.7078C105.91 58.4575 107.458 58.8367 109.025 58.8083C111.449 58.8083 113.508 58.0234 115.153 56.4676C115.947 55.6877 116.578 54.7573 117.009 53.7308C117.44 52.7043 117.661 51.6023 117.661 50.4891C117.661 49.3759 117.44 48.2739 117.009 47.2473C116.578 46.2208 115.947 45.2904 115.153 44.5105L115.139 44.5189Z" fill="#B0AFAE"/>
<path fill-rule="evenodd" clip-rule="evenodd" d="M60.6265 11.5438C76.1756 11.5438 88.7892 16.2138 88.7892 21.9592C88.7892 27.7046 74.4774 32.3606 60.6265 32.3606C54.6493 32.3606 49.7475 31.8188 45.7953 30.8943C44.4797 30.6485 43.4603 30.3915 42.5637 30.1485C40.0248 29.4279 39.617 29.5228 35 28.0704C30.3831 26.618 24.0009 21.4704 21.448 20.7358C18.8951 20.0012 16.5741 24.9254 16.5741 24.9254C16.9168 23.9437 17.4116 23.0219 18.0405 22.1938C19.0711 20.8783 19.9398 19.532 21.705 20.1577C23.4702 20.7833 30.33 26.3499 33.6566 27.3945C36.1703 28.1822 38.7204 28.7911 41.0834 29.4335C39.7457 28.9093 38.4631 28.2544 37.2541 27.4783C35.8296 27.0314 34.919 27.0454 32.598 26.3108C29.5005 25.3667 27.7073 24.4171 26.2968 23.1826C24.8863 21.948 25.1153 21.8531 25.1153 21.8531C25.1153 21.8531 27.6123 23.9171 29.0256 24.7439C30.3551 25.5204 33.8186 26.0902 36.1284 26.699C35.9776 26.5929 35.8491 26.484 35.7067 26.375C34.4833 25.7634 33.4722 25.5176 31.5785 24.9338C31.1882 24.8665 30.8028 24.7732 30.425 24.6545C29.7874 24.447 29.1763 24.1658 28.6039 23.8166C25.6432 22.177 24.4757 20.3029 23.9339 18.3729C23.392 16.4429 23.5261 16.2557 23.5261 16.2557C23.5261 16.2557 25.4812 21.1715 26.4867 22.1491C27.4922 23.1267 27.7073 22.9368 28.6179 23.3027C29.7385 23.4099 30.8502 23.5966 31.9444 23.8613C32.1545 23.904 32.3595 23.9686 32.5561 24.054C32.5081 24.0158 32.4624 23.9747 32.4192 23.9311C32.3899 23.9107 32.3628 23.8873 32.3382 23.8613C32.0589 23.7132 31.7796 23.5624 31.4696 23.4004C30.8858 23.4675 29.7574 23.1686 28.7799 22.6128C28.1196 22.1866 27.5853 21.5916 27.2325 20.8894C27.5118 20.9844 27.7911 21.0654 28.0201 21.1324C25.3053 18.4539 24.4226 15.577 24.8025 12.8873C25.1824 10.1975 25.4952 10.0551 25.4952 10.0551C25.4952 10.0551 25.3053 16.9791 25.903 18.3114C26.5007 19.6437 26.4616 19.0711 26.8806 19.451C26.8155 19.306 26.7605 19.1567 26.7158 19.0041C28.0062 19.5208 29.0675 19.9007 29.6625 20.3336C30.2574 20.7665 30.344 20.8364 30.5199 21.0542C30.5276 21.0183 30.5276 20.9812 30.5199 20.9453C30.2955 20.7663 30.1141 20.5391 29.9893 20.2806C29.8431 19.9664 29.7778 19.6208 29.7993 19.275C29.7714 19.2471 29.7463 19.2359 29.7183 19.208C29.8412 19.451 29.9083 19.6018 29.5284 19.6968C29.1485 19.7918 27.9391 19.4175 27.1124 18.7583C26.2856 18.0992 26.2549 17.0964 26.2018 16.8925C27.3554 17.4512 28.4363 17.9399 28.9027 18.3338C29.0678 18.4511 29.222 18.5829 29.3636 18.7276C29.2732 18.5735 29.2011 18.4095 29.1485 18.2388C29.0906 18.0125 29.081 17.7764 29.1206 17.5461C29.0787 17.6132 29.1876 17.5992 28.9307 17.6662C28.6737 17.7333 27.5872 17.3283 26.9755 16.6747C26.3638 16.0211 26.3499 15.0826 26.3499 14.8983C27.3135 15.4569 28.1291 15.82 28.6179 16.3228C29.1066 16.8255 29.1765 17.0825 29.1765 17.3283C29.229 17.1741 29.2925 17.0238 29.3664 16.8786C29.228 16.7146 29.1054 16.5379 29.0005 16.3507C28.8738 16.0995 28.7915 15.8283 28.7575 15.5491C28.7156 15.591 28.8636 15.5491 28.6067 15.6161C28.3497 15.6831 27.2995 15.2362 26.8135 14.524C26.3275 13.8118 26.5342 12.8286 26.5342 12.6359C27.4168 13.2615 28.1905 13.7531 28.4894 14.2C28.7882 14.6469 28.7352 14.6329 28.7882 14.8229C28.8162 14.6888 28.8553 14.5436 28.8832 14.376C28.8832 14.376 28.9251 14.4039 28.9502 14.429C28.9207 14.3637 28.8982 14.2953 28.8832 14.2252C28.8467 14.1007 28.8196 13.9738 28.8022 13.8453C28.6906 13.7004 28.5682 13.5641 28.4363 13.4375C28.0285 13.3174 27.3889 12.6778 27.2129 12.3398C27.037 12.0019 27.118 12.094 27.104 11.9572C26.1963 10.2199 26.766 8.45465 27.7827 6.94639C28.7994 5.43813 29.048 5.38506 29.048 5.38506C29.048 5.38506 26.942 9.18923 26.861 10.002C26.78 10.8148 27.023 10.5997 27.2409 10.9265C27.2939 10.7087 27.3498 10.5467 27.3638 10.4768C28.0425 11.1165 28.6123 11.6471 28.7882 12.0801C28.8629 12.2383 28.9264 12.4017 28.9782 12.5689C29.0061 12.4348 29.048 12.3119 29.0871 12.175L29.2379 12.3259C29.252 12.2168 29.2821 12.1105 29.3273 12.0102C29.386 11.8328 29.4677 11.6638 29.5703 11.5075C29.5647 11.3663 29.5517 11.2255 29.5312 11.0857C29.4502 11.2757 29.4502 11.365 29.1513 11.4265C28.8525 11.4879 28.1989 10.9656 27.995 10.231C27.7911 9.49647 28.4168 8.5552 28.5117 8.34293C28.7435 8.68368 28.9474 8.92668 29.0955 9.18085C29.11 8.93478 29.1371 8.6896 29.1765 8.44627C29.1765 8.3932 29.1765 8.48817 29.1765 8.29824C29.1997 7.96517 29.282 7.63888 29.4195 7.33463C30.1367 5.78236 31.2059 4.41863 32.5421 3.3517C34.1593 1.98029 34.4833 1.76243 34.4833 1.76243C34.4833 1.76243 30.4641 5.9325 29.9893 6.67825C29.5144 7.42401 29.9502 6.75925 29.9362 6.78718C30.235 7.26201 30.5339 7.81783 30.5479 8.11669C30.5618 8.41555 30.5479 8.18652 30.5479 8.22562C30.6428 8.01055 30.7238 7.77873 30.8272 7.56087C30.6879 7.49756 30.5706 7.39409 30.4905 7.2637C30.4104 7.13332 30.371 6.98198 30.3775 6.82908C30.3775 6.42129 31.0311 5.75374 31.126 5.63364C31.2725 5.85309 31.3996 6.08485 31.5059 6.32632C31.5869 6.21739 31.6679 6.0945 31.7489 5.99953C31.7328 5.92781 31.7328 5.8534 31.7489 5.78167C31.8886 5.47401 32.0772 5.19103 32.3075 4.94375C32.3466 4.99682 32.3745 5.06665 32.4164 5.11971C34.5057 2.98859 36.7736 1.31833 38.078 0.745752C35.4972 2.25401 33.7459 3.81814 32.5505 5.33757C32.6151 5.45325 32.6442 5.58534 32.6343 5.71743C32.6203 5.8124 32.6203 5.78447 32.6064 5.8124C32.7153 5.7314 32.8242 5.63643 32.9304 5.55543C32.9862 5.47164 32.9052 5.55543 33.1091 5.30964C33.479 4.94185 33.8788 4.60552 34.3046 4.30414C34.2056 4.63643 34.0588 4.95257 33.8688 5.24261C33.7259 5.44104 33.5513 5.61466 33.3521 5.75654C33.313 5.84033 33.2711 5.92133 33.2292 6.01629C33.319 5.92707 33.4193 5.84921 33.5281 5.78447C35.7514 3.98014 38.8238 2.03615 42.1028 0C41.3431 0.62565 37.6898 2.8238 34.7151 5.18675C34.8771 5.13368 35.0419 5.06665 35.2319 4.98285C34.9789 5.28221 34.6921 5.55122 34.3772 5.78447C34.1854 5.90657 33.9857 6.01574 33.7795 6.11126C33.7236 6.17829 33.6426 6.24533 33.5756 6.31515C34.0225 6.09729 34.4833 5.92133 35.1229 5.66157C34.7678 6.07783 34.3668 6.45262 33.9275 6.7788C33.5072 7.10758 33.0353 7.36431 32.531 7.53852C32.3829 7.75638 32.2209 7.96028 32.0701 8.16417C32.112 8.12227 31.8383 8.3541 32.207 8.04128C32.8879 7.52408 33.6187 7.07591 34.3884 6.70339C35.8687 5.33199 39.8069 2.12833 39.8069 2.12833C39.8069 2.12833 39.5081 2.31826 37.9467 3.60866C36.3854 4.89906 35.5168 6.06657 34.0364 7.51897C33.8874 7.73715 33.714 7.93768 33.5197 8.11669C33.3018 8.33455 33.0868 8.56358 32.855 8.79541C33.1678 8.63341 33.5057 8.44348 33.9135 8.21165C33.602 8.85645 33.2096 9.459 32.746 10.0048C32.0952 10.7226 31.1037 11.3064 30.8858 11.2952C30.668 11.284 30.8579 11.2952 30.8439 11.2952C30.8409 11.3591 30.8325 11.4226 30.8188 11.4851V11.865C31.4417 11.1863 32.1064 10.8595 33.1259 10.2087C33.0859 10.2975 33.0586 10.3916 33.0449 10.488C33.8186 9.9294 34.1314 9.80929 34.9581 8.89875C35.7849 7.98821 38.9913 4.37676 38.9913 4.37676C38.9913 4.37676 38.9243 4.33486 37.6479 5.87105C36.3714 7.40725 34.0169 10.488 32.6203 11.5745C31.2238 12.661 32.5533 11.6276 32.5254 11.6555C32.4549 11.7719 32.3736 11.8813 32.2824 11.9823C31.923 12.4257 31.4982 12.8118 31.0227 13.1275C31.0367 13.2364 31.0618 13.3314 31.0758 13.4263C31.5115 12.9906 32.0533 12.6778 32.7516 12.1611C32.7237 12.3398 32.6985 13.3844 32.2908 13.9822C32.0177 14.3917 31.6767 14.7516 31.2824 15.0463C31.2964 15.1134 31.3104 15.1692 31.3243 15.2362C31.6344 14.9374 32.0561 14.6525 32.5868 14.2447C32.5868 14.4207 32.7907 15.2781 32.4109 15.996C32.031 16.7138 31.2014 17.3422 30.8886 17.3562C30.5758 17.3702 30.6456 17.3003 30.5758 17.2054C30.5588 17.2364 30.536 17.2639 30.5088 17.2864C30.6201 17.4932 30.7064 17.7126 30.7657 17.9399C30.862 18.2746 30.8858 18.626 30.8356 18.9706C31.1187 19.2198 31.3535 19.519 31.5282 19.8532C31.7025 20.1883 31.8169 20.5513 31.8662 20.9257C32.1236 21.0927 32.3488 21.3046 32.531 21.5514C32.8045 21.8791 32.9746 22.2805 33.0197 22.7049C33.1706 22.7999 33.3326 22.8949 33.4834 23.0038C33.4694 22.9368 33.4694 22.8697 33.4555 22.8139C33.1035 22.6519 32.9248 22.0262 33.0086 21.5905C33.0342 21.3188 33.1369 21.0601 33.3046 20.8447C33.2371 20.9501 33.1447 21.0373 33.0356 21.0986C32.9266 21.16 32.8041 21.1936 32.679 21.1967C32.2991 21.2386 31.7545 20.6688 31.9584 19.9091C32.1623 19.1494 32.7963 18.7276 33.5756 17.9539C33.6286 18.1187 34.0504 19.2192 33.8884 19.7331C33.8258 20.0236 33.7103 20.3 33.5476 20.5487C33.6985 20.3727 33.8605 20.1968 34.0504 19.9901C34.69 18.7136 35.19 18.1019 35.3687 16.4708C35.5475 14.8396 37.0446 8.74513 37.0446 8.74513C36.6759 10.9181 35.648 18.9427 35.1146 20.6688C34.5559 22.515 35.0894 20.8866 35.0615 20.9816C35.0825 21.112 35.0825 21.245 35.0615 21.3754C35.0138 21.5666 34.9503 21.7535 34.8716 21.9341V21.948C35.0615 21.7441 35.2654 21.5263 35.4944 21.2693C35.6033 21.4592 36.3323 22.3279 36.3323 23.0597C36.3323 23.7914 35.8966 24.4339 35.3548 24.5819C36.5502 26.3052 39.117 27.6543 40.8543 28.3972C38.0613 26.3192 35.6397 23.0345 37.9076 20.4956C39.0249 19.2583 44.3848 22.3949 44.3848 22.3949C44.3848 22.3949 39.6365 19.7471 38.6282 21.0794C35.4358 25.2327 40.6923 28.1682 45.5244 29.9586C49.7615 31.0311 55.1549 31.6344 61.551 31.6344C74.3433 31.6344 87.4457 27.5342 87.4457 22.4564C87.4457 17.3785 75.8209 13.2951 61.5231 13.2951C54.4343 13.2951 48.0102 14.3117 43.3374 15.9429L42.5246 13.9877C47.4264 12.4655 53.7416 11.5438 60.6265 11.5438ZM30.6819 21.5514C30.7574 21.7194 30.851 21.8787 30.9612 22.0262C31.088 22.2005 31.2342 22.3598 31.397 22.501C30.9333 22.2162 30.4576 21.9313 29.9697 21.6464C30.1548 21.6749 30.3432 21.6749 30.5283 21.6464C30.5872 21.6329 30.6396 21.5993 30.6764 21.5514H30.6819ZM30.0172 9.35682C29.9613 9.45178 29.9222 9.54675 29.8664 9.63612L29.8273 9.4043C29.8552 9.4043 29.8664 9.4043 29.9083 9.4043C29.948 9.40414 29.9864 9.39034 30.0172 9.36519V9.35682ZM32.0142 6.35426C31.9892 6.38067 31.9659 6.40866 31.9444 6.43805C31.8445 6.55945 31.7583 6.69153 31.6874 6.83187C31.6287 6.88087 31.5744 6.93509 31.5254 6.99387C31.6303 6.75169 31.7575 6.5198 31.9053 6.30119C31.9169 6.31911 31.9332 6.33352 31.9524 6.34287C31.9716 6.35223 31.993 6.35616 32.0142 6.35426ZM33.1315 16.0239C32.2098 16.7976 31.5171 17.1774 31.2182 17.9511C30.9193 18.7248 31.1763 19.3253 31.707 19.2834C32.2377 19.2415 32.8466 18.6047 33.1454 17.845C33.4443 17.0853 33.1454 16.1999 33.1315 16.0239ZM31.6372 9.28978C31.4196 9.49255 31.2161 9.70999 31.0283 9.94057C31.0422 9.88471 31.0534 9.87354 31.0813 9.77857C31.1093 9.68361 31.1484 9.49926 31.1763 9.34285C31.243 9.26701 31.302 9.18467 31.3523 9.09706C31.345 9.14075 31.3553 9.18555 31.3809 9.22166C31.4066 9.25777 31.4455 9.28226 31.4891 9.28978H31.6372ZM33.8242 24.8109L33.9191 24.85C34.042 24.9338 34.1649 25.0148 34.2878 25.1098C34.123 25.0539 33.961 24.9869 33.7711 24.9199C33.7871 24.9065 33.8001 24.8898 33.8093 24.8711C33.8184 24.8523 33.8235 24.8318 33.8242 24.8109ZM30.0982 15.5211V15.3619C30.1581 15.3345 30.2101 15.2922 30.249 15.239C30.411 15.5658 30.5479 15.8647 30.668 16.1077C30.6249 16.1897 30.593 16.277 30.573 16.3674C30.5159 16.2016 30.4429 16.0417 30.3551 15.8898C30.2803 15.7607 30.1943 15.6382 30.0982 15.5239V15.5211Z" fill="#B0AFAE"/>
<path fill-rule="evenodd" clip-rule="evenodd" d="M89.2249 29.7798V72H29.453V29.7798C34.6118 33.5141 46.0467 36.1229 59.3389 36.1229C72.6312 36.1229 84.0661 33.5141 89.2249 29.7798Z" fill="#B0AFAE"/>
<path d="M32.1344 61.8834L31.6205 62.3722L31.5367 62.5342L31.4976 62.78L31.5646 63.0593L31.6205 63.1683L31.6875 63.2213L31.8635 63.2632L32.1763 63.3722H32.2182L32.3131 63.3582L32.6371 63.1264L32.8829 62.8275L32.9081 62.5845L33.0868 62.4477L33.2628 62.3136L33.9136 61.9589L34.5672 61.5511L35.028 61.1852L35.2179 60.9422L35.4218 60.9142L35.7011 60.7774L36 60.6964L36.5307 60.4646L36.8435 60.3975L37.5474 59.9897L37.8602 59.9506L38.2149 59.8417L38.187 60.2216L37.9971 60.6014L37.7177 61.322L37.4049 61.755L37.3351 61.9728L37.1061 62.5035H37.2541L37.363 62.4086L37.4049 62.4477L37.363 62.5426L37.1452 62.5705H36.9692L36.9301 62.6236L36.7653 62.9504L36.6564 63.2074L36.4413 63.3582L36.3324 63.6962L36.2626 63.9755L36.0475 64.1095L35.9106 64.3553L35.6928 64.7492L35.5168 65.2379L35.3129 65.467L35.2459 65.5508L35.2179 65.6709L35.2459 65.9502L34.933 66.2295L35.0001 66.5088L34.7571 66.6038L34.6873 66.7797L34.6063 66.9166V67.1959L34.3744 67.3998L34.1314 67.5758L34.0756 67.8886L33.6147 69.084L33.6007 69.179L33.6147 69.2879L33.7236 69.3829L33.7516 69.6957L33.9555 69.8298L34.0225 69.9387L34.2543 70.0057L34.4303 70.0337H34.4973L34.7431 69.9247L35.0224 69.8046L35.1593 69.7348L35.2403 69.6259L36.2709 68.2014L36.7206 67.7405L36.8295 67.4138L36.9776 67.3998L37.1396 67.1428L37.3183 66.992L37.4273 66.83L37.4943 66.6931V66.3636L37.7373 66.2546H37.9161L37.9831 66.1206L38.0362 65.8887L38.3769 65.6094L38.416 65.3301L38.7707 65.1262L38.9188 64.8944L39.3405 64.5564L39.5723 64.2017L39.8517 63.9727L39.9606 63.6598L40.1757 63.5649L40.3265 63.4951L40.6393 63.1431L40.8823 62.9392L41.1002 62.7493L41.3795 62.6264L42.1001 61.9896L42.4408 61.8527L42.6168 61.6097L42.9967 61.3779L43.2536 61.1321L43.4715 61.0371L43.7033 60.9701L44.1111 60.5903L44.463 60.6321L44.4211 60.9561L44.2871 61.1321L44.1642 61.4729L43.8234 61.9617L43.7424 62.3024L43.5804 62.4923L43.1447 63.294L42.9967 63.456L42.9017 63.5649L42.7928 63.618L42.6978 63.9727L42.5079 64.3106L42.1951 65.1933L42.0191 65.4726V65.8273L41.9521 66.0703L42.047 66.33L42.1001 66.5479L42.4129 66.7378L42.5889 66.8188H42.6168L42.7928 66.7378L42.9967 66.7099L43.5385 66.33L43.7424 66.1932V65.9362L43.8793 65.8803L43.9463 65.7183L44.1307 65.6374L44.2005 65.4335L44.4574 65.0648L44.6194 64.9307L44.7982 64.6709L44.9323 64.6039L45.1222 64.3721L45.516 63.9252L45.6389 63.6934L45.8568 63.4783L46.0467 63.3135L46.3847 62.9337L46.6444 62.7437L46.7785 62.5007L46.6696 62.4169L46.8735 62.2968L47.0522 62.322L47.2002 62.146L47.4181 61.808L47.7309 61.6041L48.0829 61.2355L48.6135 60.7886L48.9655 60.4478L49.1163 60.3808L49.3593 60.1769L49.6051 60.0959L49.8202 59.8641L50.1749 59.6602L50.3369 59.4172L50.7726 59.3501L50.6218 59.6881L50.4458 59.9674L50.2419 60.2467L50.3508 60.4785L50.0241 60.6964L49.8481 61.0902L49.6442 61.3081L49.0856 62.2577L48.9096 62.5035L48.9375 62.6795L48.7057 62.9085L48.6499 63.2772L48.4739 63.3861L48.4069 63.4532L48.3789 63.5202L48.4069 63.8191L48.3398 63.9001H48.175L47.9991 64.1794L48.1359 64.3805H47.8901L47.5913 65.0061L47.3483 65.2659L47.2785 65.5452L47.0355 66.02L46.9684 66.4948L46.8316 67.1456V67.3244L46.9126 67.883L47.0075 68.1623L47.1304 68.3383L47.2533 68.5031L47.5801 68.5841L47.5522 68.7879L47.7952 68.8829L48.041 69.0868L48.1499 69.1259L48.4627 69.1929L48.8426 69.1119L48.9515 69.017L49.0325 68.7181V68.3802L48.7532 67.7545L48.6694 67.5227L48.7113 67.1428L48.7783 66.7909L49.0576 66.2462V65.9222L49.1805 65.7463L49.3034 65.5675L49.2224 65.2882L49.4654 65.2212L49.5464 64.8413L49.6833 64.7464L49.8313 64.4671L49.9682 64.3302L50.1302 64.0313L50.2531 63.8135L50.3089 63.5844L50.4849 63.4057L50.6609 63.0119L50.8508 62.808L50.9458 62.551L51.0687 62.456L51.1916 62.294L51.3117 62.1572L51.3675 61.8779L51.5156 61.7689L51.5574 61.6321L51.6524 61.3528H51.6664L51.7753 61.2299L51.9373 60.9869L52.1133 60.7076L52.1272 60.3947L52.373 59.9199V59.4032L52.3982 59.0904V59.0624L52.2222 58.5038L51.7613 58.043L51.482 57.948H51.3172L51.0603 58.043H50.8564L50.5045 58.2189L50.1358 58.3698L49.7978 58.5988L49.6218 58.6407L49.2001 58.9647L48.7783 59.3473L48.5884 59.6266L48.0996 59.9059L47.7784 60.3305L47.4544 60.5344L47.1751 60.8472L46.9433 61.0483L46.8874 61.2522L46.6835 61.3751L46.4042 61.579L46.0383 62.0957L45.7255 62.2996L45.6445 62.6515L45.4685 62.7465H45.3456V62.4477L45.4685 62.2717L45.5076 62.0957L45.8763 61.5371L46.0104 60.9925L46.2143 60.4757L46.2562 59.9618L46.3651 59.7579L46.3232 59.6881L46.2143 59.5931L46.1752 59.2831L45.9713 59.0373L45.7255 58.8334L45.5914 58.7664L45.1138 58.6574L45.0887 58.6714L44.8708 58.7384L44.625 58.8055L44.41 58.9703H44.2061L43.9882 59.1462L43.8513 59.2133L43.7173 59.4311L43.3626 59.5261L42.9296 59.973L42.5889 60.1098L42.4799 60.1769L42.3989 60.3808L42.371 60.6601L42.2761 60.7299L42.1951 60.6601H42.1532L42.0582 60.702L41.8012 60.9589L41.3795 61.2718L41.2845 61.5706L41.2175 61.6265L41.0946 61.6935H40.9856L40.8516 61.8974L40.3209 62.3052L40.184 62.5342L39.7232 63.0929L39.4439 63.3722L39.1646 63.5481L38.8238 64.0704L38.5808 64.2045L38.1199 64.6263L37.93 64.8162L37.7513 65.0731L37.5474 65.196L37.5222 65.3999L37.1954 65.6178L37.3323 65.3999L37.5083 64.8162L37.6563 64.5844L37.7513 64.4084L38.2149 63.6207L38.3238 63.3638L38.4579 63.2269L38.7847 62.5622L39.1785 62.1013L39.3545 61.7606L39.5863 61.4086L39.7064 61.0399L40.0472 60.593L40.1282 60.3137L40.1952 60.0344L39.9522 59.4088L39.6254 59.0429L39.1785 58.934L38.9886 58.9591L38.7568 59.001L38.349 59.0429L38.0501 59.1378L37.5474 59.2998L36.9105 59.5792L36.5558 59.6462L36.2765 59.8501L35.7486 60.054L35.3939 60.3528L35.0001 60.3947L34.933 60.5288L34.852 60.5707L34.3884 60.7746L34.0784 60.8835L33.8605 61.0455L33.4806 61.2103L32.3634 61.7689L32.1344 61.8834ZM48.9347 65.9977L48.8398 66.1597V66.5004L48.8258 66.7043V66.9836L48.9459 67.3244L49.0409 67.6763L49.1107 67.7992L49.4626 68.0562L50.0743 68.221L50.4821 68.1511L51.3927 67.5925L51.7306 67.3886L51.9904 67.1093L52.792 66.5116L52.8981 66.3747L53.0071 66.1708L53.183 66.1429L53.3757 65.9809L53.6048 65.872L53.6858 65.763L53.8897 65.629L54.0265 65.2882L54.2584 65.2212L54.4874 65.0452L54.5293 65.1123L54.4874 65.3553L54.4623 65.52V65.534L54.4874 65.8329L54.4623 66.0759L54.5684 66.1848L54.5293 66.4418V66.5926L54.6773 66.8495L54.8142 67.1289L55.0181 67.1708L55.208 67.2936L55.451 67.3328L56.0096 67.1568L56.3336 67.0199L56.4425 66.816L56.6744 66.749L56.7973 66.6149L57.0766 66.52L57.3224 66.1652L57.5123 66.0982L57.9871 65.5955L58.1352 65.4586L58.2161 65.0787L58.3949 64.7268L58.4619 64.4279L58.3949 64.1822L58.286 64.0481L58.205 64.0202L58.11 64.0481L57.9313 64.1961L57.6883 64.495L57.3335 64.7268L57.1576 65.0061L57.0486 65.034L56.6828 65.4139L56.4509 65.548L56.099 65.9027L55.9482 65.9977L55.8811 66.0256L55.8141 65.9977L55.7722 65.9558L55.7471 65.8217L55.7722 65.453V65.1011L55.8811 64.9111L56.1269 64.1905L56.3839 63.8107L56.6828 63.2269L56.7637 62.7102L56.6967 62.3443L56.5208 62.1935L56.261 62.1264L55.8141 62.2354L55.5543 62.4672L55.3253 62.7912L55.1493 62.956L55.0404 62.7102L54.9985 62.4113L54.9175 62.1683L54.5656 61.8695L54.3198 61.7997H54.2528L54.0489 61.9226L53.831 61.7997L53.4512 61.9645L52.9484 62.1264L52.5685 62.3443L52.2027 62.5063L51.563 62.956L50.834 63.4587L50.4263 63.8805L50.0604 64.1794L49.8844 64.4587L49.5855 64.738L49.5436 64.8888L49.0828 65.5675L49.0018 65.7714L49.0409 66.0144L48.9347 65.9977ZM53.3059 65.034L53.2529 65.196L53.1439 65.2659L52.968 65.4418L51.9764 66.0535L51.8396 66.2295L50.767 66.8384L50.2922 67.0032L50.1833 66.9752L50.1414 66.9473L50.1023 66.8663L50.0743 66.5674V66.4753L50.1023 66.3412L50.2922 66.0619L50.3871 65.7211L50.6665 65.5591L50.7614 65.3553L51.0184 65.0759L51.1273 64.8609L51.753 64.3833L51.9289 64.2073L52.1468 64.1123L52.8115 63.7325L53.2724 63.5984L53.5182 63.4895L53.5573 63.4615L54.2248 63.5705H54.5488L54.7667 63.5006L54.5907 63.78L54.4008 63.9838L54.0209 64.3637L53.845 64.4978L53.7612 64.7017L53.3059 65.034ZM57.3391 64.6542L57.2051 64.8302L57.1213 65.0061L57.0682 65.2659L57.1632 65.6038L57.2051 65.6709L57.5151 65.7407L57.6519 65.5508L58.0737 65.2715L58.6575 64.7575L59.0373 64.4782L59.1714 64.4112L59.3753 64.1319L59.716 63.928L60.0289 63.5202L60.4897 63.0454L60.6936 62.9364L60.7606 63.1543L60.8025 63.3861V63.4113L60.7886 63.6152L60.8025 63.7911L60.7886 63.928V64.1319L60.6657 64.3497L60.8305 64.6486L60.7355 64.7156L60.6126 64.7575L60.5456 64.8246L60.4758 65.3664L60.3138 65.5312L59.9199 66.196L59.8389 66.4278L59.6071 66.4948L59.2412 66.6987L58.9954 66.6317L58.7524 66.6568L58.5346 66.4278L58.1826 66.5367L57.8698 66.6038L57.6659 66.6987L57.5151 66.8328L57.4062 67.0367L57.2051 67.2545V67.4193L57.624 68.0031L57.8698 68.3411L58.0178 68.4081L58.4927 68.436L58.9284 68.4779L59.716 68.0701H59.959L60.1378 67.8942L60.4897 67.7852L60.6126 67.6204L60.6266 67.5953L61.0064 67.4445L61.2243 67.3244L61.3193 67.1456L61.5483 67.0786L61.8472 66.9976L62.079 66.8077L62.2019 66.7937L62.2829 66.6317L62.5259 66.5367L62.6097 66.2909L62.8108 66.263L63.0566 65.9837L63.2325 65.8608L63.3833 65.7938L63.4923 65.5619L63.7716 65.5228L63.9196 65.358L64.1989 65.1542L64.3889 64.8162L64.7938 64.6402L64.9167 64.4754L65.1961 64.2604L65.2798 64.1654L65.3329 63.8665L65.2659 63.5872L65.129 63.3554L64.886 63.4504L64.7073 63.5453L64.428 63.8721L63.6152 64.3721L63.3359 64.7128L62.7102 65.1597L62.5873 65.2966L61.97 65.6374L61.903 65.5005L62.0371 65.2016L62.065 64.9586L62.1739 64.7408L62.146 64.1961L62.241 63.9168L62.2158 63.7269L62.079 63.4699V63.1431L61.984 62.6934L61.808 62.1516L61.5483 61.3639L61.4533 61.255L61.2103 61.079L60.8835 61.012L60.5707 61.079L60.3808 61.2271L60.0428 62.2186L59.797 62.4979L59.3641 63.1487L59.1602 63.3386L58.7664 63.7604L58.4871 63.8945L58.3921 64.0034L58.2413 64.1263L58.1072 64.3023L57.6715 64.5341L57.4955 64.6821L57.3391 64.6542ZM63.0566 64.6542L62.9197 64.8302L62.8387 65.0061L62.7856 65.2659L62.8806 65.6038L62.9197 65.6709L63.2325 65.7407L63.3694 65.5508L63.7911 65.2715L64.3749 64.7575L64.7547 64.4782L64.8888 64.4112L65.0787 64.1319L65.4335 63.928L65.7463 63.5202L66.2071 63.0454L66.411 62.9364L66.4781 63.1543L66.52 63.3861V63.4113V63.6152V63.7911V63.928V64.1319L66.3971 64.3497L66.5619 64.6486L66.4641 64.7156L66.344 64.7575L66.2742 64.8246L66.2071 65.3664L66.0452 65.5312L65.6374 66.196L65.5564 66.4278L65.3245 66.4948L64.9586 66.6987L64.7129 66.6317L64.4699 66.6568L64.252 66.4278L63.8973 66.5367L63.5872 66.6038L63.3833 66.6987L63.2325 66.8328L63.1236 67.0339L62.9197 67.2518V67.4165L63.3414 68.0003L63.5872 68.3383L63.7353 68.4053L64.1961 68.4332L64.6458 68.4751L65.4335 68.0673H65.6765L65.8552 67.8914L66.2071 67.7824L66.33 67.6176L66.344 67.5925L66.7239 67.4417L66.9417 67.3216L67.0367 67.1428L67.2657 67.0758L67.5646 66.9948L67.7964 66.8049L67.9193 66.7909L68.0003 66.6289L68.2433 66.5339L68.3243 66.2881L68.5282 66.2602L68.774 65.9809L68.95 65.858L69.1008 65.791L69.2069 65.5591L69.4862 65.52L69.6343 65.3553L69.9136 65.1514L70.1035 64.8134L70.5113 64.6374L70.6342 64.4726L70.9135 64.2576L70.9973 64.1626L71.0504 63.8637L70.9833 63.5844L70.8465 63.3526L70.6035 63.4476L70.4247 63.5425L70.1454 63.8693L69.3298 64.3693L69.0505 64.71L68.4276 65.1569L68.3047 65.2938L67.6875 65.6374L67.6204 65.5005L67.7545 65.2016L67.7824 64.9586L67.8914 64.7408L67.8634 64.1961L67.9584 63.9168L67.9305 63.7269L67.7964 63.4699V63.1431L67.7014 62.6934L67.5255 62.1516L67.2657 61.3639L67.1708 61.255L66.9278 61.079L66.601 61.012L66.2881 61.079L66.0982 61.2271L65.7603 62.2186L65.5145 62.4979L65.0787 63.1599L64.8749 63.3498L64.481 63.7716L64.2017 63.9056L64.1068 64.0146L63.9559 64.1375L63.8191 64.3134L63.3861 64.5453L63.2102 64.6933L63.0566 64.6542ZM68.8131 65.9977L68.7321 66.1597V66.5004L68.707 66.7043V66.9836L68.841 67.3244L68.922 67.6763L68.9918 67.7992L69.3438 68.0562L69.9694 68.221L70.3632 68.1511L71.271 67.6093L71.5978 67.4054L71.8575 67.1261L72.6564 66.5283L72.7653 66.3915L72.8742 66.1876L73.0502 66.1597L73.2541 65.9977L73.4719 65.8887L73.5669 65.7798L73.7568 65.6457L73.8937 65.305L74.1367 65.2379L74.3546 65.062L74.3965 65.129L74.3546 65.372V65.5368V65.5508V65.8496V66.0926L74.4635 66.2016L74.4104 66.4585V66.6093L74.5724 66.8663L74.7093 67.1456L74.8992 67.1875L75.1031 67.3104L75.3461 67.3495L75.9047 67.1735L76.2427 67.0367L76.3516 66.8328L76.5695 66.7658L76.7063 66.6317L76.9633 66.5367L77.2063 66.182L77.4102 66.115L77.8738 65.6122L78.0219 65.4754L78.1168 65.0955L78.2928 64.7436L78.3626 64.4447L78.2928 64.1989L78.1839 64.0648L78.0889 64.0369L78.0079 64.0648L77.8319 64.2129L77.5889 64.5117L77.2342 64.7436L77.0583 65.0229L76.9493 65.0508L76.5304 65.4418L76.3125 65.5759L75.9718 65.9306L75.807 66.0256L75.7539 66.0535L75.6869 66.0256L75.631 65.9837V65.8496V65.4809V65.129L75.7539 64.9391L75.9857 64.2185L76.265 63.8386L76.5443 63.2549L76.6393 62.7381L76.5723 62.3722L76.3935 62.2214L76.1142 62.1544L75.6813 62.2633L75.402 62.4951L75.1869 62.8191L75.0081 62.9839L74.8992 62.7381L74.8601 62.4393L74.7651 62.1963L74.4104 61.8974L74.1674 61.8276H74.1004L73.9105 61.9505L73.6786 61.8276L73.3127 61.9924L72.796 62.1544L72.4301 62.3722L72.0475 62.5342L71.4107 62.9839L70.704 63.4587L70.3102 63.8805L69.9303 64.1794L69.7544 64.4587L69.4751 64.738L69.4332 64.8888L68.9891 65.5508L68.8941 65.7547L68.9332 65.9977H68.8131ZM73.1787 65.034L73.1368 65.196L73.0306 65.2659L72.8519 65.4418L71.8492 66.0535L71.7263 66.2295L70.6398 66.8384L70.1789 67.0032L70.07 66.9752L70.0281 66.9473L69.975 66.8663L69.961 66.5674V66.4753L69.975 66.3412L70.1789 66.0619L70.2599 65.7211L70.5588 65.5591L70.6398 65.3553L70.9191 65.0759L71.028 64.8609L71.6397 64.3833L71.8157 64.2073L72.0335 64.1123L72.6983 63.7325L73.1591 63.5984L73.4049 63.4895L73.444 63.4615L74.1116 63.5705H74.4495L74.6674 63.5006L74.4914 63.78L74.2875 63.9838L73.9216 64.3637L73.7429 64.4978L73.6479 64.7017L73.1787 65.034ZM77.2119 64.6542L77.089 64.8302L76.994 65.0061L76.9549 65.2659L77.0359 65.6038L77.089 65.6709L77.3878 65.7407L77.5247 65.5508L77.9465 65.2715L78.5414 64.7575L78.924 64.4782L79.0441 64.4112L79.248 64.1319L79.6028 63.928L79.9156 63.5202L80.3764 63.0454L80.5664 62.9364L80.6334 63.1543L80.6893 63.3861V63.4113L80.6613 63.6152L80.6893 63.7911L80.6613 63.928V64.1319L80.5524 64.3497L80.7032 64.6486L80.6194 64.7156L80.4854 64.7575L80.4155 64.8246L80.3485 65.3664L80.2005 65.5312L79.815 66.196L79.7201 66.4278L79.5022 66.4948L79.1223 66.6987L78.8766 66.6317L78.6336 66.6568L78.4157 66.4278L78.061 66.5367L77.7509 66.6038L77.561 66.6987L77.3962 66.8328L77.2873 67.0367L77.0974 67.2545V67.4193L77.5191 68.0031L77.7509 68.3411L77.9129 68.4081L78.3738 68.436L78.8095 68.4779L79.6111 68.0701H79.8541L80.0301 67.8942L80.3848 67.7852L80.4937 67.6204L80.5189 67.5953L80.8876 67.4445L81.1054 67.3244L81.2004 67.1456L81.4434 67.0786L81.7227 66.9976L81.9685 66.8077L82.0774 66.7937L82.1724 66.6317L82.4014 66.5367L82.4964 66.2909L82.7003 66.263L82.9321 65.9837L83.1081 65.8608L83.2701 65.7938L83.379 65.5619L83.6388 65.5228L83.8008 65.358L84.0577 65.1542L84.2616 64.8162L84.6554 64.6402L84.7923 64.4754L85.0493 64.2604L85.1442 64.1654L85.1861 63.8665L85.1191 63.5872L84.9962 63.3554L84.7504 63.4504L84.5744 63.5453L84.2951 63.8721L83.4572 64.3721L83.1779 64.7128L82.569 65.1597L82.4321 65.2966L81.8735 65.6374L81.8037 65.5005L81.9406 65.2016L81.9545 64.9586L82.0635 64.7408V64.1961L82.1445 63.9168V63.7269L82.0104 63.4699L81.9825 63.1431L81.9015 62.6934L81.7255 62.1516L81.4462 61.3639L81.3652 61.255L81.1222 61.079L80.7814 61.012L80.4826 61.079L80.2787 61.2271L79.9547 62.2186L79.7089 62.4979L79.262 63.1487L79.0721 63.3386L78.6643 63.7604L78.385 63.8945L78.3012 64.0034L78.1392 64.1263L78.0163 64.3023L77.5694 64.5341L77.3934 64.6821L77.2119 64.6542Z" fill="#D2D2D1"/>
<path d="M14.6162 40.6589L15.1748 39.8712L16.5853 40.7538L13.9794 44.9434C13.042 44.1087 12.0429 43.3459 10.9908 42.6615C10.178 42.1588 9.52439 41.9158 9.0356 41.9158C8.68934 41.8997 8.3484 42.0054 8.07199 42.2146C7.95529 42.301 7.86024 42.4134 7.79433 42.5428C7.72841 42.6722 7.69343 42.8151 7.69213 42.9604C7.7022 43.1732 7.76296 43.3806 7.86936 43.5652C7.97576 43.7498 8.12471 43.9063 8.30382 44.0217C8.97323 44.4726 9.69917 44.8332 10.4629 45.0943C10.6528 45.1753 10.9377 45.2702 11.3008 45.4043C13.3658 46.192 14.7102 46.8846 15.334 47.4824C15.7485 47.8837 16.0768 48.3654 16.2987 48.898C16.5206 49.4306 16.6314 50.0029 16.6244 50.5799C16.6306 51.4217 16.4542 52.2548 16.1076 53.022C15.7609 53.7891 15.2521 54.472 14.6162 55.0237C13.3079 56.2529 11.5706 56.9216 9.77577 56.8867C8.49669 56.884 7.22966 56.6395 6.04142 56.166C4.77733 55.6688 3.60636 54.9615 2.578 54.074L5.38784 49.9319C6.42518 51.108 7.60234 52.1529 8.89316 53.0434C9.93777 53.7221 10.8762 54.074 11.703 54.074C12.1814 54.1005 12.6536 53.9559 13.0353 53.6662C13.1972 53.5458 13.3273 53.3877 13.4144 53.2057C13.5015 53.0237 13.543 52.8232 13.5353 52.6216C13.5291 52.4673 13.4882 52.3163 13.4157 52.18C13.3432 52.0436 13.2408 51.9254 13.1163 51.834C12.6866 51.5032 12.2104 51.2377 11.703 51.0463C11.2282 50.8285 10.3735 50.5045 9.15012 50.0408C8.22027 49.7333 7.32381 49.3328 6.47435 48.8454C5.78712 48.4407 5.21124 47.8715 4.7985 47.1891C4.40191 46.554 4.19099 45.8206 4.18961 45.0719C4.18961 43.6056 4.81526 42.3012 6.0498 41.1477C7.21631 40.0338 8.76897 39.4151 10.3819 39.4215C11.044 39.4336 11.7015 39.5341 12.337 39.7204C13.1211 39.9605 13.8805 40.2747 14.605 40.6589H14.6162ZM23.1602 50.1218C23.0188 50.1116 22.878 50.0939 22.7385 50.0687C22.6752 50.0639 22.6117 50.0639 22.5485 50.0687C22.2583 50.0524 21.9681 50.1 21.6983 50.2081C21.4286 50.3162 21.1858 50.4822 20.9872 50.6944C20.5946 51.1616 20.3949 51.7609 20.4286 52.3702C20.3939 52.8687 20.5128 53.3659 20.7693 53.7947C20.8869 53.9518 21.0416 54.0773 21.2194 54.1602C21.3973 54.243 21.5929 54.2806 21.7888 54.2695C21.9775 54.2757 22.1652 54.24 22.3386 54.1652C22.5119 54.0904 22.6666 53.9782 22.7915 53.8366C23.0543 53.5253 23.19 53.1263 23.1714 52.7194L23.1602 50.1218ZM19.127 43.5916L20.4034 44.0525L20.1716 44.7451C21.1399 44.3204 22.1866 44.1034 23.244 44.1083C24.5484 44.1083 25.579 44.4602 26.3387 45.1529C27.0985 45.8456 27.456 46.7953 27.456 48.0047V55.0237H28.3106V56.5431H23.5261L23.1826 55.3784C22.6919 55.8347 22.1331 56.2116 21.5263 56.4956C21.0084 56.7414 20.4431 56.871 19.87 56.8755C19.3612 56.9006 18.8527 56.8197 18.3769 56.6379C17.901 56.4561 17.4682 56.1774 17.1057 55.8194C16.7433 55.4615 16.4593 55.0321 16.2716 54.5585C16.0839 54.085 15.9967 53.5776 16.0155 53.0685C16.0155 51.5882 16.5322 50.4737 17.5517 49.7392C18.5712 49.0046 20.1297 48.6219 22.1687 48.6219H22.5765C22.7245 48.6219 22.9144 48.6359 23.1602 48.661V48.0103C23.1643 47.8329 23.1289 47.657 23.0564 47.4951C22.9839 47.3332 22.8763 47.1896 22.7412 47.0746C22.4237 46.8257 22.027 46.6997 21.624 46.7198C21.1231 46.7259 20.6324 46.8615 20.1995 47.1137C19.7129 47.3946 19.2912 47.7753 18.9622 48.2309L17.5238 47.6723L19.127 43.5916ZM25.2913 38.8657H26.6879C26.4421 39.9382 26.1293 40.7259 25.7103 41.2007C25.5114 41.4275 25.2647 41.6075 24.988 41.7278C24.7113 41.848 24.4114 41.9055 24.1099 41.8962C23.9339 41.8962 23.7691 41.8962 23.6211 41.8683C23.4785 41.8461 23.3376 41.8144 23.1993 41.7733L22.1268 41.4605L22.0597 41.4353C21.8226 41.3505 21.5758 41.2952 21.3252 41.2705C21.0872 41.2655 20.8556 41.348 20.6744 41.5024C20.4765 41.7041 20.3316 41.9517 20.2526 42.223H18.8561C19.0739 41.2035 19.3868 40.4578 19.8085 39.9885C20.002 39.7566 20.2455 39.5716 20.5208 39.4473C20.796 39.3229 21.0959 39.2626 21.3978 39.2707C21.5475 39.2736 21.6968 39.2866 21.8447 39.3098C22.0514 39.3534 22.2556 39.4084 22.4564 39.4746L23.5736 39.7846C23.6685 39.8272 23.7692 39.8554 23.8724 39.8684C23.9947 39.8847 24.1178 39.8931 24.2411 39.8936C24.3614 39.8975 24.4812 39.8768 24.5932 39.8326C24.7051 39.7884 24.8068 39.7217 24.8919 39.6366C25.0917 39.4197 25.228 39.1521 25.2857 38.8629L25.2913 38.8657ZM36.9413 52.0239C36.9752 50.5456 36.6443 49.0816 35.9776 47.7617C35.3269 46.5411 34.6342 45.9294 33.8884 45.9294C33.6499 45.9319 33.4173 46.0037 33.2189 46.1361C33.0205 46.2686 32.865 46.4558 32.7712 46.6752C32.4663 47.3386 32.3264 48.0659 32.3634 48.7951C32.3263 50.31 32.6468 51.8124 33.2991 53.1802C33.9108 54.4036 34.6035 55.0265 35.3632 55.0265C35.6124 55.0255 35.8559 54.9518 36.0638 54.8144C36.2718 54.6769 36.435 54.4817 36.5335 54.2528C36.8035 53.75 36.9385 53.0052 36.9385 52.0183L36.9413 52.0239ZM34.6761 44.1083C36.5893 44.1083 38.1926 44.706 39.455 45.9126C40.0601 46.5124 40.5406 47.2258 40.869 48.0119C41.1974 48.798 41.3671 49.6413 41.3684 50.4932C41.3697 51.3451 41.2025 52.1889 40.8766 52.976C40.5506 53.7631 40.0722 54.478 39.469 55.0795C38.2065 56.275 36.6033 56.8867 34.6761 56.8867C32.7488 56.8867 31.1177 56.2889 29.8413 55.0795C29.2384 54.4781 28.7602 53.7637 28.4339 52.9772C28.1075 52.1907 27.9396 51.3476 27.9396 50.4961C27.9396 49.6446 28.1075 48.8014 28.4339 48.0149C28.7602 47.2284 29.2384 46.514 29.8413 45.9126C31.1177 44.706 32.7181 44.1083 34.6761 44.1083ZM56.1828 41.1477L56.9565 40.508L57.9759 41.9493L52.8423 46.1724L51.8396 44.9686C52.0257 44.7981 52.1738 44.5904 52.2744 44.359C52.3749 44.1275 52.4257 43.8775 52.4233 43.6251C52.4356 43.1669 52.2762 42.7206 51.9764 42.3738C51.8401 42.2104 51.6691 42.0795 51.4759 41.9906C51.2826 41.9017 51.0719 41.8571 50.8592 41.8599C50.1805 41.8599 49.6246 42.2118 49.2169 42.9045C48.8091 43.5972 48.6052 44.5329 48.6052 45.6976C48.6052 47.7756 49.08 49.5297 50.0296 50.9402C50.9793 52.3507 52.1775 53.0601 53.602 53.0601C54.2999 53.0698 54.9898 52.9108 55.613 52.5965C56.2797 52.2398 56.8699 51.7559 57.3503 51.172L58.5988 52.3256C57.6492 53.859 56.5766 55.0153 55.3951 55.761C54.214 56.5089 52.8408 56.8971 51.4429 56.8783C50.4387 56.9091 49.4398 56.7218 48.5149 56.3293C47.5901 55.9368 46.7613 55.3484 46.0858 54.6047C44.7042 53.0834 44.0124 51.1413 44.0105 48.7783C44.0007 47.6468 44.184 46.5218 44.5524 45.4518C45.3721 43.243 46.9581 41.4023 49.0213 40.265C50.0162 39.7345 51.1254 39.4546 52.2529 39.4495C53.0125 39.4402 53.7657 39.5886 54.465 39.8852C55.1299 40.1605 55.7177 40.5938 56.1772 41.1477H56.1828ZM64.1403 50.1218C63.9643 50.1218 63.8274 50.0827 63.7325 50.0687C63.6693 50.0639 63.6058 50.0639 63.5426 50.0687C63.2524 50.0524 62.9622 50.1 62.6924 50.2081C62.4226 50.3162 62.1798 50.4822 61.9812 50.6944C61.5843 51.1592 61.384 51.7603 61.4226 52.3702C61.3956 52.8677 61.5129 53.3624 61.7606 53.7947C61.8785 53.9514 62.0332 54.0767 62.211 54.1595C62.3888 54.2423 62.5842 54.2801 62.78 54.2695C62.9693 54.2771 63.1579 54.2421 63.3319 54.1672C63.5059 54.0923 63.6609 53.9793 63.7855 53.8366C64.0532 53.5281 64.1895 53.1271 64.1654 52.7194L64.1403 50.1218ZM60.121 43.5916L61.3835 44.0525L61.1517 44.7451C61.6284 44.5389 62.1242 44.3799 62.632 44.2703C63.1547 44.1613 63.6873 44.107 64.2213 44.1083C65.5396 44.1083 66.5703 44.4602 67.3188 45.1529C68.0673 45.8456 68.4584 46.7953 68.4584 48.0047V55.0237H69.2963V56.5431H64.495L64.171 55.3896C63.6775 55.8422 63.1192 56.2187 62.5147 56.5068C61.9906 56.7545 61.4185 56.8842 60.8389 56.8867C60.3296 56.9129 59.8205 56.8323 59.3443 56.65C58.8681 56.4677 58.4353 56.1877 58.0739 55.8281C57.7124 55.4684 57.4302 55.0371 57.2454 54.5618C57.0607 54.0866 56.9775 53.5779 57.0012 53.0685C57.0012 51.5882 57.5011 50.4737 58.5346 49.7392C59.568 49.0046 61.1014 48.6219 63.1515 48.6219H63.5593C63.7461 48.6256 63.9325 48.6386 64.1179 48.661L64.1319 48.0103C64.1382 47.8337 64.1048 47.658 64.0343 47.4961C63.9637 47.3342 63.8577 47.1901 63.7241 47.0746C63.4055 46.8277 63.0095 46.702 62.6069 46.7198C62.1055 46.7226 61.6139 46.8585 61.1824 47.1137C60.6928 47.3949 60.2675 47.7754 59.9339 48.2309L58.5066 47.6723L60.121 43.5916ZM74.645 44.1083H74.8098L74.6199 45.9266C75.3091 45.3775 76.0588 44.909 76.8544 44.5301C77.41 44.2631 78.0171 44.1201 78.6336 44.1111C79.3003 44.1044 79.9551 44.2875 80.5217 44.639C81.0802 44.9748 81.5174 45.4796 81.7702 46.0802C82.4512 45.4967 83.2017 44.9995 84.0047 44.5999C84.6116 44.2928 85.2797 44.1257 85.9598 44.1111C87.0193 44.1111 87.847 44.437 88.4428 45.0887C89.0387 45.7404 89.3376 46.65 89.3394 47.8175V55.0237H90.1774V56.5431H84.1471V55.0237H84.985V48.5745C85.0158 48.1523 84.9058 47.7319 84.6722 47.379C84.5502 47.2477 84.4003 47.1453 84.2336 47.0796C84.0668 47.0138 83.8874 46.9864 83.7086 46.9992C83.4272 46.9984 83.149 47.0585 82.893 47.1751C82.5705 47.3269 82.266 47.5142 81.9853 47.7337V54.9957H82.8232V56.5152H76.8264V55.0237H77.6811V48.5745C77.7189 48.1517 77.6083 47.7291 77.3683 47.379C77.2444 47.2462 77.0922 47.1431 76.9229 47.0773C76.7537 47.0115 76.5717 46.9848 76.3907 46.9992C76.1104 46.9998 75.8334 47.0598 75.5779 47.1751C75.2574 47.3241 74.9563 47.5117 74.6814 47.7337V54.9957H75.5193V56.5152H69.5197V55.0237H70.3577V46.7701L69.5197 46.9042V45.5272L74.645 44.1083ZM95.5038 44.1083H95.6685C95.6266 44.6222 95.5987 45.058 95.5736 45.3848C95.5484 45.7115 95.5457 45.9936 95.5457 46.2227V55.0237H96.3836V56.5431H90.3785V55.0237H91.2164V46.7701L90.3785 46.9042V45.5272L95.5038 44.1083ZM93.8279 40.279C94.3256 40.2545 94.8171 40.3971 95.2244 40.684C95.3865 40.806 95.5177 40.9643 95.6075 41.1462C95.6972 41.3281 95.743 41.5286 95.7412 41.7314C95.7345 42.0317 95.6513 42.3254 95.4992 42.5845C95.3472 42.8435 95.1315 43.0595 94.8725 43.2117C94.2638 43.6353 93.5358 43.8535 92.7945 43.8346C92.361 43.856 91.9349 43.7157 91.599 43.4408C91.4528 43.3159 91.3366 43.1596 91.2592 42.9836C91.1818 42.8075 91.1452 42.6163 91.1521 42.4241C91.1619 42.1309 91.2405 41.844 91.3818 41.5869C91.523 41.3297 91.7227 41.1094 91.9649 40.9438C92.4854 40.5065 93.1455 40.2707 93.8251 40.279H93.8279ZM102.682 39.5444V41.0918L101.799 41.3711V55.0237H102.637V56.5431H96.5986V55.0237H97.4533V42.79L96.5986 43.0693V41.5219L102.682 39.5444ZM111.307 52.0239C111.341 50.5436 111.004 49.0782 110.327 47.7617C109.688 46.5402 108.995 45.9294 108.249 45.9294C108.01 45.9322 107.778 46.0042 107.579 46.1366C107.381 46.269 107.225 46.4561 107.131 46.6752C106.826 47.3386 106.687 48.0659 106.724 48.7951C106.686 50.3104 107.007 51.8131 107.662 53.1802C108.271 54.4036 108.964 55.0265 109.726 55.0265C109.975 55.0257 110.218 54.952 110.426 54.8145C110.633 54.677 110.796 54.4817 110.894 54.2528C111.173 53.75 111.287 53.0043 111.287 52.0183L111.307 52.0239ZM109.053 44.1083C110.966 44.1083 112.569 44.706 113.832 45.9126C114.438 46.512 114.919 47.2253 115.248 48.0114C115.576 48.7976 115.746 49.641 115.748 50.4932C115.749 51.3453 115.582 52.1893 115.255 52.9764C114.929 53.7636 114.45 54.4783 113.846 55.0795C112.583 56.275 110.98 56.8867 109.053 56.8867C107.126 56.8867 105.467 56.2889 104.182 55.0795C103.579 54.4781 103.101 53.7637 102.774 52.9772C102.448 52.1907 102.28 51.3476 102.28 50.4961C102.28 49.6446 102.448 48.8014 102.774 48.0149C103.101 47.2284 103.579 46.514 104.182 45.9126C105.458 44.706 107.062 44.1083 109.017 44.1083H109.053Z" fill="#D2D2D1"/>
</g>
<defs>
<clipPath id="clip0">
<rect width="117.65" height="72" fill="white"/>
</clipPath>
</defs>
</svg>
