<svg width="72" height="72" viewBox="0 0 72 72" fill="none" xmlns="http://www.w3.org/2000/svg">
<path d="M69.3976 44.6267V6.86372H2.60246V44.6267C2.59996 44.9289 2.71718 45.2199 2.92858 45.4362C3.13998 45.6525 3.42844 45.7766 3.7311 45.7815H30.688L17.6293 67.5173C17.4503 67.7756 17.3262 68.0676 17.2647 68.3756C17.2031 68.6835 17.2053 69.0008 17.2711 69.3078C17.337 69.6149 17.4652 69.9052 17.6477 70.1609C17.8302 70.4166 18.0632 70.6323 18.3324 70.7947C18.6016 70.9571 18.9013 71.0628 19.2129 71.1052C19.5245 71.1476 19.8416 71.1258 20.1445 71.0413C20.4473 70.9567 20.7297 70.8111 20.9741 70.6135C21.2185 70.4158 21.4198 70.1703 21.5655 69.8921L34.9973 47.5975V68.7C34.9773 69.0138 35.0219 69.3283 35.1284 69.6242C35.2349 69.9201 35.401 70.191 35.6165 70.4203C35.8319 70.6495 36.0922 70.8323 36.3812 70.9572C36.6701 71.0821 36.9817 71.1466 37.2966 71.1466C37.6115 71.1466 37.923 71.0821 38.212 70.9572C38.501 70.8323 38.7612 70.6495 38.9767 70.4203C39.1922 70.191 39.3583 69.9201 39.4648 69.6242C39.5713 69.3283 39.6159 69.0138 39.5958 68.7V47.8303L52.4493 69.8455C52.7561 70.3716 53.2596 70.7545 53.8491 70.9099C54.4386 71.0653 55.0658 70.9806 55.5927 70.6743C56.1197 70.3681 56.5032 69.8654 56.6588 69.2768C56.8145 68.6882 56.7297 68.062 56.4229 67.5359L43.728 45.7815H68.241C68.3932 45.7827 68.5442 45.7537 68.6851 45.6961C68.826 45.6385 68.954 45.5535 69.0616 45.446C69.1693 45.3386 69.2544 45.2108 69.3121 45.0701C69.3698 44.9294 69.3989 44.7787 69.3976 44.6267ZM66.5993 43.1832H5.59663V9.65753H66.5993V43.1832Z" fill="black"/>
<path d="M32.9639 16.5676H8.42285V41.0413H32.9639V16.5676Z" fill="#E0E300"/>
<path d="M48.569 11.1848H7.26624V14.3698H48.569V11.1848Z" fill="#FF0053"/>
<path d="M64.6871 11.1848H49.5017V14.3698H64.6871V11.1848Z" fill="#FF0053"/>
<path d="M72 3.57634H0V4.93599H72V3.57634Z" fill="#E0E300"/>
<path d="M0 6.17459C0.00241785 6.26755 0.0231583 6.35912 0.0610362 6.44406C0.0989141 6.52901 0.153187 6.60568 0.220753 6.66968C0.28832 6.73368 0.367855 6.78375 0.454815 6.81705C0.541774 6.85035 0.634453 6.86621 0.727555 6.86373H71.2724C71.3655 6.86621 71.4582 6.85035 71.5452 6.81705C71.6321 6.78375 71.7117 6.73368 71.7792 6.66968C71.8468 6.60568 71.9011 6.52901 71.939 6.44406C71.9768 6.35912 71.9976 6.26755 72 6.17459V4.936H0V6.17459Z" fill="#FF0053"/>
<path d="M0.727555 0.000251448C0.634453 -0.0022269 0.541774 0.0136357 0.454815 0.0469327C0.367855 0.0802297 0.28832 0.130308 0.220753 0.194307C0.153187 0.258306 0.0989141 0.33497 0.0610362 0.419919C0.0231583 0.504868 0.00241785 0.596436 0 0.689391L0 3.57633H72V0.689391C71.9976 0.596436 71.9768 0.504868 71.939 0.419919C71.9011 0.33497 71.8468 0.258306 71.7792 0.194307C71.7117 0.130308 71.6321 0.0802297 71.5452 0.0469327C71.4582 0.0136357 71.3655 -0.0022269 71.2724 0.000251448H0.727555Z" fill="black"/>
<path d="M63.5772 16.5676H34.4097V18.4953H63.5772V16.5676Z" fill="#FF0053"/>
<path d="M63.5772 20.3206H34.4097V22.2483H63.5772V20.3206Z" fill="#FF0053"/>
<path d="M63.5772 24.0829H34.4097V26.0106H63.5772V24.0829Z" fill="#FF0053"/>
<path d="M63.5772 27.8359H34.4097V29.7636H63.5772V27.8359Z" fill="#FF0053"/>
<path d="M63.5491 31.5983H34.3816V33.526H63.5491V31.5983Z" fill="#FF0053"/>
<path d="M63.5491 35.3513H34.3816V37.279H63.5491V35.3513Z" fill="#FF0053"/>
<path d="M53.8857 39.1043H34.3816V41.032H53.8857V39.1043Z" fill="#FF0053"/>
</svg>
