<svg width="80" height="95" viewBox="0 0 80 95" fill="none" xmlns="http://www.w3.org/2000/svg">
<path d="M13.5849 94.9056L0 85.283C5.91195 77.1069 10.2516 68.9308 13.0189 60.7547C15.9119 52.5786 17.3585 43.4591 17.3585 33.3962V0H40V33.0189C40 44.8427 37.61 56.2264 32.8302 67.1698C28.1761 78.1132 21.761 87.3585 13.5849 94.9056Z" fill="#F4F4F4"/>
<path d="M53.5849 94.9056L40 85.283C45.9119 77.1069 50.2516 68.9308 53.0189 60.7547C55.9119 52.5786 57.3585 43.4591 57.3585 33.3962V0H80V33.0189C80 44.8427 77.61 56.2264 72.8302 67.1698C68.1761 78.1132 61.761 87.3585 53.5849 94.9056Z" fill="#F4F4F4"/>
</svg>
