<svg width="72" height="72" viewBox="0 0 72 72" fill="none" xmlns="http://www.w3.org/2000/svg">
<g clip-path="url(#clip0)">
<path d="M36.0009 72C16.1505 72 0 55.8499 0 36C0 16.1501 16.1505 0 36.0009 0C55.8512 0 72 16.1501 72 36C72 55.8499 55.8512 72 36.0009 72ZM36.0009 1.63187C17.0499 1.63187 1.63191 17.0478 1.63191 36C1.63191 54.9522 17.0499 70.3681 36.0009 70.3681C54.9518 70.3681 70.3698 54.9505 70.3698 36C70.3698 17.0495 54.9518 1.63187 36.0009 1.63187Z" fill="#B0AFAE"/>
<path fill-rule="evenodd" clip-rule="evenodd" d="M24.6576 21.2928C25.6933 21.3933 26.7017 21.4631 27.7391 21.4631C28.3393 21.4586 28.9383 21.4096 29.5312 21.3166C30.0984 21.2314 30.71 21.01 31.2772 21.1463C31.7678 21.2604 32.2993 21.877 32.6604 22.2075C32.9687 22.4937 33.2788 22.7475 33.6092 23.0064C33.9397 23.2653 34.105 23.6537 34.3962 23.9126C34.6007 24.054 35.0214 24.1613 35.2207 24.3163C35.5273 24.5531 35.7318 24.7166 35.8408 25.0999C35.9277 25.4235 35.9515 25.7625 36.0333 26.0879C36.2293 26.9696 36.6955 27.7681 37.3671 28.3722C38.0314 28.9411 38.7418 29.2682 39.0978 30.1284C39.2575 30.4966 39.2988 30.9053 39.2161 31.298C39.1334 31.6908 38.9308 32.0481 38.6361 32.3207C38.4476 32.4968 38.2389 32.65 38.0144 32.7772C36.5119 33.5574 35.943 32.5557 35.943 32.5557C35.3689 31.549 34.2719 31.0329 33.1357 31.0397C32.4117 31.0397 31.7371 31.3276 31.0319 31.4605C29.7305 31.704 28.412 31.8199 27.1395 31.4008C26.5075 31.1913 25.8892 30.9494 25.2453 30.7774C24.7223 30.6377 24.1789 30.5168 23.7973 30.096C24.9012 29.8218 25.9471 29.6208 27.0339 29.292C27.3488 29.1884 27.6736 29.1182 28.0032 29.0825C28.2911 29.0603 28.4546 29.1574 28.7084 29.2733C29.3455 29.5628 30.0013 29.6804 30.6606 29.924C30.9696 30.0582 31.2871 30.172 31.6111 30.2647C31.9608 30.2828 32.3083 30.1987 32.611 30.0228C33.0812 29.7468 33.4934 29.3653 33.9908 29.1404C34.1373 29.074 34.7914 28.8934 34.3809 28.7912C34.0607 28.7128 33.7132 28.7299 33.381 28.6566C33.07 28.5973 32.7678 28.4988 32.4816 28.3636C32.3368 28.2904 31.7014 27.8424 31.6298 27.6823C31.9893 27.6823 32.5054 27.7538 32.858 27.6516C33.071 27.5903 33.6416 27.4932 33.7762 27.299C33.5082 27.3827 33.2326 27.4397 32.9534 27.4693C32.3402 27.437 31.715 27.4693 31.112 27.3365C30.7866 27.2598 30.5038 27.0384 30.2143 26.8714C30.1563 26.8357 29.601 26.5836 29.601 26.4916C29.8872 26.4916 30.1495 26.587 30.4272 26.6057C30.9553 26.6449 31.4714 26.449 31.9876 26.3945C32.1715 26.3473 32.3449 26.2658 32.4986 26.1543C32.4833 26.11 32.2175 26.1117 32.1783 26.1151C31.9762 26.1378 31.7759 26.1742 31.5787 26.2241C31.2441 26.3038 30.9004 26.3382 30.5567 26.3264C30.0984 26.3093 29.4341 26.248 29.0372 26.0044C28.6965 25.7932 28.4938 25.5036 28.1718 25.2702C27.8788 25.0556 27.6199 24.7677 27.2996 24.6008C27.4904 24.502 27.8362 24.5531 28.0441 24.5548C28.3469 24.5587 28.6494 24.5781 28.9503 24.6127C29.4375 24.6127 30.0831 24.7286 30.509 24.4424C30.2773 24.3776 30.0235 24.4543 29.7799 24.4611C29.5386 24.4617 29.2977 24.4434 29.0593 24.4066C28.6675 24.3606 28.2723 24.364 27.8788 24.3351C27.5055 24.3173 27.1397 24.2234 26.8039 24.0591C26.3764 23.8377 26.0732 23.5276 25.6439 23.3505C25.7614 23.2193 26.5569 23.2568 26.7477 23.2568C27.2111 23.2568 27.5995 23.2415 28.0696 23.2415C28.3439 23.2415 29.3029 23.3181 29.4324 22.9894C29.1377 22.9604 28.751 22.9894 28.4324 22.9894H27.2554C26.5603 22.9894 25.712 23.1137 25.0409 22.8633C24.5043 22.6623 24.0273 22.2569 23.6065 21.877C23.4301 21.7338 23.2649 21.5772 23.1125 21.4086C23.0154 21.2911 22.6254 20.717 22.7122 20.5569C23.3067 20.8584 23.9711 21.2042 24.6474 21.2689C24.8705 21.3132 24.6184 21.2928 24.6576 21.2928Z" fill="#B0AFAE"/>
<path fill-rule="evenodd" clip-rule="evenodd" d="M41.1096 24.7558C43.445 30.0602 38.304 32.9322 38.304 32.9322C40.3805 32.1129 41.4775 30.4077 42.1555 28.3108C42.507 27.1973 42.6901 26.0376 42.6989 24.8699C42.6989 24.6298 42.6989 24.3896 42.6887 24.1494C42.6887 23.7406 42.4553 23.2721 42.239 22.9332C42.0283 22.5658 41.9244 22.1469 41.9392 21.7237C41.9392 20.8345 41.7245 19.3389 42.7023 18.8671C43.0328 18.707 43.5268 18.5264 43.8947 18.5656C44.255 18.6133 44.6192 18.6235 44.9815 18.5963C45.234 18.535 45.4678 18.4135 45.6629 18.2419C45.8162 18.1193 45.7856 18.0563 45.7106 17.8842C45.6357 17.7122 45.7225 17.7037 45.7345 17.5214C45.7702 16.9456 45.0752 17.1432 44.7124 17.0274C44.3239 16.9124 43.9526 16.7457 43.6085 16.5317C43.3772 16.3797 43.1196 16.2723 42.8488 16.2149C42.4144 16.0667 42.4774 15.7924 42.5745 15.3172C42.4638 15.2593 42.1146 15.726 41.9664 15.7788C41.9664 15.6085 41.8591 15.3444 41.8591 15.1809C41.4843 15.5046 41.2561 16.0854 40.8711 16.4091C40.5474 16.6816 40.2204 16.9456 39.8967 17.2148C39.6242 17.4413 39.1353 17.7752 39.016 18.1278C38.1745 19.2895 37.7946 20.5875 37.4829 21.9656C37.4897 21.9741 39.7775 21.9741 41.1096 24.7558Z" fill="#B0AFAE"/>
<path fill-rule="evenodd" clip-rule="evenodd" d="M41.1981 26.185C40.8574 24.6025 40.0176 23.3317 38.4726 22.6453C38.0988 22.4901 37.7092 22.3758 37.3108 22.3046C37.25 22.2992 37.1897 22.2895 37.1302 22.2756C36.8526 22.2194 36.5426 21.6948 36.5885 21.4239C36.7248 20.8584 37.0383 19.993 36.3381 19.6592C35.9753 19.4888 35.6091 19.7239 35.4302 20.0527C35.2973 20.4904 35.6005 20.9674 35.8016 21.3575C35.7164 21.659 35.6636 21.9298 35.3706 22.124C35.2258 22.2194 34.7965 21.3967 34.7437 21.2893C34.5553 20.8532 34.4214 20.3955 34.3451 19.9266C34.3009 19.7346 34.2685 19.54 34.248 19.344C34.2182 18.9042 34.1509 18.4677 34.047 18.0392L34.0691 17.6985C34.1441 17.4277 34.2395 17.1177 34.1475 16.8468C34.0555 16.576 33.7915 16.4704 33.5462 16.3528C32.8818 16.1161 32.1936 15.9338 31.502 16.1467C31.1256 16.2626 30.836 16.5964 30.5004 16.8008C30.2086 16.9916 29.8694 17.0972 29.5209 17.1058C29.4954 17.1058 29.2637 17.0495 29.2569 17.0751C29.2501 17.1006 29.3199 17.1858 29.4443 17.2642C29.7526 17.4567 30.1716 17.3187 30.4953 17.2761C30.4357 17.6168 30.1256 17.8723 29.8616 18.0511C29.5976 18.23 29.0933 18.2607 28.7765 18.3918C29.0473 18.7036 29.6384 18.7547 30.02 18.5979C30.7287 18.3084 29.8803 19.0476 29.7202 19.1533C29.3029 19.4275 28.6232 19.3883 28.1394 19.3883C28.1394 19.6302 29.2569 19.7477 29.446 19.7392C30.4936 19.6847 31.2465 18.9488 32.1562 18.5128C32.473 18.3612 32.8375 18.1721 33.1867 18.3084C33.536 18.4446 33.5036 19.1039 33.5155 19.419C33.5155 19.419 33.5155 19.4292 33.5155 19.4343C33.5308 19.6297 33.5959 19.818 33.7046 19.9811C33.7966 20.2108 33.849 20.4544 33.8596 20.7017C33.8676 21.1026 33.9636 21.4968 34.1407 21.8566C34.3238 22.22 34.4831 22.595 34.6177 22.9791L34.788 23.577C34.8527 23.8394 35.3161 23.933 35.5307 24.0881C35.7119 24.2227 35.8641 24.3926 35.9779 24.5876C36.0918 24.7825 36.1651 24.9985 36.1933 25.2225C36.3092 26.2071 36.6328 27.2309 37.3755 27.948C37.873 28.4215 38.4572 28.7128 38.9206 29.2903C39.2284 29.6704 39.4151 30.1341 39.4567 30.6215C39.4983 31.1088 39.3929 31.5975 39.154 32.0243C42.2219 29.4163 41.1981 26.185 41.1981 26.185Z" fill="#B0AFAE"/>
<path fill-rule="evenodd" clip-rule="evenodd" d="M30.785 44.2582C30.9076 44.2071 30.6436 43.5036 30.5073 43.134C30.3795 42.7933 29.9673 42.8154 29.9963 42.376C30.0295 42.0187 30.038 41.6595 30.0218 41.3011C30.0074 40.9024 30.0302 40.5032 30.09 40.1087C30.1458 39.697 30.2606 39.2954 30.4306 38.9163C30.6742 38.3252 31.3778 37.9573 31.9161 37.6353C32.4544 37.3134 33.0659 37.0085 33.6553 36.7189C34.0573 36.5213 34.214 36.1823 34.5172 35.8672C34.7404 35.6321 34.8034 35.6543 34.9789 35.9268C35.1455 36.1908 35.2918 36.4669 35.4167 36.753C35.5585 37.0159 35.6416 37.3065 35.6603 37.6047C35.635 37.8571 35.6581 38.1121 35.7284 38.3559C35.8166 38.5982 35.9849 38.8031 36.2055 38.9366C36.4261 39.0701 36.6857 39.1243 36.9413 39.0901C37.3416 39.027 37.8458 39.2979 38.178 39.4972C38.3947 39.6124 38.5819 39.7762 38.7248 39.9758C38.8628 40.1939 39.0484 40.3472 39.2954 40.2637C39.476 40.2041 39.907 40.1326 40.0194 40.3148C40.1318 40.4971 40.171 40.7509 40.3908 40.8838C40.8129 40.866 41.2289 40.7761 41.6207 40.618C41.7128 40.5865 41.7923 40.526 41.8473 40.4456C41.9023 40.3651 41.9297 40.2691 41.9256 40.1717C41.6564 40.0003 41.3805 39.8379 41.0977 39.6846C40.786 39.5142 40.0399 39.056 39.6889 39.4052C39.2767 39.4052 38.6975 38.9776 38.379 38.7392C38.0264 38.4802 37.4472 38.0339 37.328 37.5842C37.2291 37.2146 37.8611 36.5843 37.994 36.2488C38.2291 35.6526 38.5902 35.0853 38.5221 34.4363C38.4971 34.1838 38.4469 33.9344 38.3722 33.6919C38.3585 33.6442 38.1218 33.1537 38.1166 33.1571C38.0536 33.0974 37.9344 33.1571 37.9344 33.1571C37.5869 33.2756 37.2215 33.3332 36.8544 33.3274C36.5052 33.3138 36.11 33.1877 35.9124 32.8777C34.72 31.0465 33.0676 31.2441 32.0353 31.515C30.8241 31.8233 30.4818 33.2661 30.4818 33.2661C30.3114 33.818 30.7049 34.4227 30.7219 34.9899C30.7565 35.4174 30.7149 35.8477 30.5993 36.2607C30.4289 36.7717 29.7612 37.2827 29.2927 37.5008C28.6556 37.8227 28.8839 38.3934 29.0526 38.9368C29.2164 39.5359 29.2672 40.1604 29.2025 40.7782C29.1974 41.0855 29.1516 41.3908 29.0662 41.6861C28.9776 41.9467 28.7459 42.1801 28.8958 42.4543C28.998 42.6502 29.3949 43.243 29.3268 43.4423C29.2212 43.7489 28.998 43.8188 28.998 44.1424C29.0117 44.1986 29.1088 44.2378 29.1548 44.2633C29.4512 44.4337 29.8549 44.1952 30.1922 44.2787C30.3899 44.2957 30.5889 44.2888 30.785 44.2582Z" fill="#B0AFAE"/>
<path fill-rule="evenodd" clip-rule="evenodd" d="M48.8893 26.9566C49.0596 27.0026 49.3237 26.851 49.2913 26.6687C49.184 26.0606 49.0903 26.328 48.8126 25.7778C48.678 25.5121 48.2437 25.2668 48.1312 24.9909C47.9915 24.6655 47.6474 24.4679 47.3289 24.3299C46.4959 23.9688 46.2063 23.0302 45.6459 22.3898C44.8725 21.5074 43.9731 22.3216 43.4842 23.1018C43.2896 23.4426 43.1771 23.824 43.1554 24.2158C43.1444 25.9604 42.7769 27.6844 42.0754 29.2818C43.3275 29.0552 43.893 28.6447 43.893 28.6447C44.4175 28.3105 44.922 27.9459 45.404 27.5528C45.5982 27.4046 45.6714 27.3194 45.9048 27.4233C46.0687 27.4998 46.2185 27.6034 46.3477 27.73C46.4821 27.8564 46.5878 28.0101 46.6577 28.1809C46.7276 28.3516 46.7602 28.5353 46.7531 28.7196C46.7531 29.1608 46.5044 29.5509 46.5044 29.9734C46.6203 30.2016 46.7923 30.435 46.7923 30.6973C46.7191 30.9085 46.5521 30.9307 46.4005 31.0806C46.0087 31.2611 45.9218 31.3957 46.0922 31.8199C46.2148 32.1323 46.3547 32.4377 46.5112 32.7346C46.6816 33.0651 46.7804 33.0191 46.9081 32.6869C47.0018 32.4433 47.0904 32.1963 47.179 31.9493C47.5027 31.0465 48.1483 30.0926 47.8996 29.1217C47.7292 28.4556 47.4856 27.8083 47.2523 27.1627C47.0546 26.6091 46.9116 26.1049 46.4687 25.691C46.0258 25.277 45.4313 25.4712 44.9355 25.6314C44.713 25.724 44.4774 25.7815 44.2371 25.8017C44.123 25.7455 44.3155 25.243 44.3461 25.1203C44.4364 24.7677 44.542 24.4219 44.6562 24.0761C44.8265 23.5651 45.3631 23.6673 45.6885 23.9859C45.8827 24.1749 46.0377 24.3998 46.2114 24.6059C46.3613 24.7 46.5022 24.8078 46.6322 24.9278C46.7592 25.0771 46.8538 25.2511 46.9099 25.4389C46.961 25.553 46.9286 25.6092 46.9746 25.737C47.0376 25.9073 47.2522 25.8681 47.4141 25.9363C47.6611 26.0402 47.4516 26.7045 47.6338 26.8357C47.8161 26.9668 47.891 26.9481 48.3271 26.943C48.7632 26.9379 48.8893 26.9566 48.8893 26.9566Z" fill="#B0AFAE"/>
<path d="M17.8012 46.5187H15.091V52.5624H13.4079V46.5187H10.7318V45.2837H17.8012V46.5187Z" fill="#B0AFAE"/>
<path d="M26.16 52.5419H24.1158L22.2301 49.7074H20.2711V52.5419H18.5387V45.2836H23.8484C24.1346 45.2783 24.4182 45.3387 24.6775 45.4601C24.9367 45.5814 25.1648 45.7606 25.344 45.9838C25.7372 46.4428 25.9481 47.0301 25.9368 47.6344C25.9415 47.8717 25.8987 48.1076 25.8109 48.3281C25.7232 48.5487 25.5922 48.7495 25.4258 48.9187C25.0802 49.2744 24.6281 49.5076 24.138 49.5831L26.16 52.5419ZM23.8484 47.5628C23.8557 47.4113 23.8247 47.2605 23.7583 47.1241C23.6919 46.9878 23.5923 46.8703 23.4685 46.7827C23.1656 46.5851 22.8076 46.489 22.4464 46.5084H20.2711V48.5338H22.5026C22.8073 48.5395 23.1081 48.4649 23.3748 48.3174C23.5172 48.2495 23.6374 48.1425 23.7212 48.0089C23.8051 47.8753 23.8492 47.7206 23.8484 47.5628Z" fill="#B0AFAE"/>
<path d="M28.4562 52.542H26.5143V45.2837H28.4562V52.542Z" fill="#B0AFAE"/>
<path d="M36.5562 50.0805C36.5562 51.0367 36.1752 51.7112 35.4132 52.1042C34.8454 52.3937 34.0317 52.5385 32.9721 52.5385C31.941 52.5385 31.1142 52.3682 30.4919 52.0275C30.1176 51.8431 29.8053 51.5533 29.5934 51.1938C29.3816 50.8343 29.2794 50.4207 29.2995 50.0039V45.2837H31.1375V49.7824C31.1375 50.3502 31.3414 50.7613 31.749 51.0157C32.0849 51.2133 32.4703 51.3108 32.8597 51.2968C33.6143 51.2968 34.1356 51.1468 34.4184 50.8505C34.6603 50.5932 34.7812 50.2185 34.7812 49.7211V45.2837H36.5562V50.0805Z" fill="#B0AFAE"/>
<path d="M44.9577 52.542H42.6512L39.1421 47.1728V52.542H37.408V45.2837H39.7434L43.1929 50.7244V45.2837H44.9577V52.542Z" fill="#B0AFAE"/>
<path d="M52.6011 49.52H47.5844V52.5418H45.7992V48.0823C45.8045 47.7724 45.8568 47.4652 45.9542 47.171C46.1366 46.5917 46.5391 46.1073 47.0751 45.8219C47.7258 45.4619 48.782 45.2824 50.2435 45.2836H52.6011V46.5032H50.1396C49.6733 46.4865 49.2066 46.5214 48.7479 46.6071C48.5383 46.6525 48.3412 46.7435 48.1708 46.8736C48.0003 47.0037 47.8606 47.1698 47.7616 47.36C47.6137 47.6548 47.5389 47.9808 47.5435 48.3105H52.6011V49.52Z" fill="#B0AFAE"/>
<path d="M61.2614 48.9017C61.2614 50.3167 60.8707 51.3291 60.0894 51.9389C59.4523 52.4306 58.5245 52.677 57.306 52.6782C55.9545 52.6782 54.9569 52.3943 54.313 51.8265C53.6077 51.203 53.2551 50.2014 53.2551 48.8216C53.2551 47.686 53.5697 46.8054 54.1988 46.1796C54.8802 45.4983 55.9051 45.1576 57.2736 45.1576C58.776 45.1576 59.8356 45.4869 60.4523 46.1456C60.9928 46.7247 61.2625 47.6434 61.2614 48.9017ZM59.4131 48.8608C59.4131 48.1454 59.2428 47.5776 58.9021 47.1574C58.5222 46.6873 57.9567 46.4488 57.2106 46.4488C56.4645 46.4488 55.921 46.7026 55.548 47.2085C55.2177 47.6956 55.054 48.2764 55.0812 48.8642C55.0812 49.6478 55.2056 50.227 55.4543 50.6017C55.8018 51.1207 56.4423 51.3807 57.3758 51.3819C58.1708 51.3819 58.7244 51.1292 59.0367 50.6239C59.2888 50.2241 59.4143 49.6364 59.4131 48.8608Z" fill="#B0AFAE"/>
<path d="M30.3761 54.5349C30.3819 54.5686 30.3972 54.5999 30.4201 54.6252C30.443 54.6506 30.4726 54.6689 30.5055 54.678C30.5501 54.6924 30.5967 54.6999 30.6435 54.7002C30.8275 54.7002 30.865 54.6031 30.865 54.5537C30.865 54.4481 30.7781 54.4225 30.7287 54.4089L30.48 54.3459C30.4115 54.3329 30.3498 54.296 30.3061 54.2416C30.2624 54.1873 30.2395 54.1192 30.2415 54.0495C30.2415 53.8399 30.4119 53.719 30.6333 53.719C30.7428 53.7155 30.8503 53.7491 30.9382 53.8144C30.9849 53.8497 31.0175 53.9004 31.0302 53.9575L30.8411 54.0052C30.8275 53.9677 30.7951 53.8791 30.6367 53.8791C30.4783 53.8791 30.4459 53.9609 30.4459 54.0188C30.4459 54.104 30.543 54.1363 30.5992 54.15L30.7883 54.1977C30.8667 54.2056 30.9393 54.2422 30.9924 54.3003C31.0455 54.3584 31.0754 54.4341 31.0762 54.5128C31.0762 54.7325 30.8871 54.8535 30.6367 54.8535C30.5147 54.8582 30.3946 54.8216 30.296 54.7496C30.2402 54.7029 30.2008 54.6397 30.1836 54.569L30.3761 54.5349Z" fill="#B0AFAE"/>
<path d="M31.5787 54.85V53.7428H31.778V54.85H31.5787Z" fill="#B0AFAE"/>
<path d="M33.1919 54.85H33.0096L32.5769 54.1431C32.5633 54.1244 32.5241 54.0392 32.5139 54.0188V54.85H32.3555V53.7428H32.5769L32.9653 54.3952C32.9653 54.3952 32.9943 54.4514 33.0334 54.5247V53.7428H33.1919V54.85Z" fill="#B0AFAE"/>
<path d="M34.5802 54.4787C34.5745 54.5849 34.5271 54.6845 34.4483 54.7559C34.3695 54.8274 34.2657 54.8649 34.1594 54.8602C33.7864 54.8602 33.7166 54.4787 33.7166 54.2896C33.7166 54.0017 33.8494 53.7189 34.1663 53.7189C34.2728 53.7171 34.3758 53.7571 34.4532 53.8303C34.5306 53.9036 34.5762 54.0042 34.5802 54.1107L34.3945 54.1312C34.3741 54.0426 34.3366 53.8791 34.168 53.8791C33.9448 53.8791 33.9312 54.184 33.9312 54.2828C33.9312 54.6013 34.0572 54.6933 34.1748 54.6933C34.2344 54.6894 34.2904 54.6629 34.3312 54.6192C34.372 54.5756 34.3947 54.518 34.3945 54.4582L34.5802 54.4787Z" fill="#B0AFAE"/>
<path d="M35.0623 54.85V53.7428H35.7726V53.9131H35.2616V54.2146H35.6738V54.3765H35.2616V54.6797H35.7811V54.85H35.0623Z" fill="#B0AFAE"/>
<path d="M37.6107 54.6797H37.9224V54.85H37.0707V54.6797H37.4114V53.9813C37.3227 54.0649 37.2201 54.1323 37.1082 54.1806V53.9813C37.215 53.9498 37.3118 53.8911 37.3892 53.8109C37.4248 53.7815 37.4553 53.7464 37.4795 53.707H37.6124L37.6107 54.6797Z" fill="#B0AFAE"/>
<path d="M38.551 54.5952C38.5681 54.6303 38.5947 54.6597 38.6279 54.6803C38.6611 54.7008 38.6994 54.7114 38.7384 54.711C38.9343 54.711 38.999 54.4947 39.0024 54.2716C38.9771 54.3264 38.9356 54.3721 38.8836 54.4025C38.8315 54.433 38.7713 54.4467 38.7111 54.4419C38.663 54.4456 38.6146 54.439 38.5691 54.4225C38.5237 54.4061 38.4823 54.3802 38.4477 54.3465C38.4131 54.3128 38.386 54.2722 38.3683 54.2272C38.3505 54.1823 38.3426 54.1341 38.3449 54.0859C38.3442 54.0347 38.3543 53.984 38.3743 53.937C38.3944 53.8899 38.4241 53.8476 38.4614 53.8126C38.4988 53.7777 38.543 53.7509 38.5912 53.734C38.6395 53.7171 38.6908 53.7105 38.7418 53.7145C38.9683 53.7145 39.1949 53.8576 39.1949 54.2545C39.1949 54.5662 39.0586 54.8558 38.7333 54.8558C38.6606 54.8607 38.5884 54.8421 38.5271 54.8028C38.4657 54.7636 38.4186 54.7058 38.3926 54.6378L38.551 54.5952ZM38.7503 53.8695C38.7213 53.8669 38.6921 53.8704 38.6645 53.8797C38.6369 53.889 38.6116 53.9039 38.5901 53.9235C38.5686 53.9432 38.5514 53.9671 38.5397 53.9937C38.528 54.0203 38.5219 54.0491 38.5219 54.0782C38.5219 54.1073 38.528 54.1361 38.5397 54.1627C38.5514 54.1894 38.5686 54.2133 38.5901 54.2329C38.6116 54.2525 38.6369 54.2675 38.6645 54.2768C38.6921 54.2861 38.7213 54.2895 38.7503 54.2869C38.7796 54.2881 38.8089 54.2832 38.8362 54.2725C38.8635 54.2618 38.8883 54.2455 38.909 54.2246C38.9297 54.2038 38.9458 54.1789 38.9563 54.1515C38.9668 54.124 38.9715 54.0948 38.97 54.0654C38.9687 54.0381 38.962 54.0112 38.9502 53.9865C38.9384 53.9617 38.9218 53.9396 38.9013 53.9213C38.8808 53.9031 38.8569 53.8891 38.831 53.8802C38.8051 53.8713 38.7776 53.8677 38.7503 53.8695Z" fill="#B0AFAE"/>
<path d="M40.4811 53.7361V53.8775C40.2471 54.144 40.1218 54.4887 40.1301 54.8433H39.9019C39.9094 54.64 39.9624 54.4409 40.0569 54.2607C40.1252 54.1313 40.2112 54.0121 40.3124 53.9064H39.6787L39.6957 53.7361H40.4811Z" fill="#B0AFAE"/>
<path d="M41.0619 53.7361H41.7433L41.7245 53.9064H41.1999L41.1692 54.2284C41.1987 54.1876 41.2377 54.1546 41.2828 54.1323C41.3279 54.11 41.3778 54.0992 41.4281 54.1006C41.4779 54.0999 41.5272 54.1091 41.5734 54.1276C41.6195 54.1461 41.6616 54.1736 41.697 54.2085C41.7325 54.2433 41.7607 54.2848 41.7801 54.3306C41.7994 54.3765 41.8095 54.4256 41.8097 54.4754C41.8088 54.5298 41.7966 54.5834 41.7739 54.6329C41.7512 54.6824 41.7185 54.7266 41.6778 54.7628C41.6372 54.799 41.5894 54.8263 41.5377 54.8431C41.4859 54.8599 41.4312 54.8658 41.377 54.8603C41.251 54.8631 41.1288 54.8166 41.0363 54.7309C40.9918 54.6832 40.9612 54.6243 40.9478 54.5605L41.1419 54.5333C41.1549 54.5841 41.185 54.6289 41.2273 54.6599C41.2695 54.691 41.3213 54.7064 41.3736 54.7036C41.4038 54.7054 41.4341 54.7007 41.4623 54.6899C41.4906 54.6791 41.5163 54.6625 41.5377 54.6411C41.5591 54.6197 41.5757 54.5941 41.5865 54.5658C41.5972 54.5375 41.6019 54.5073 41.6002 54.4771C41.602 54.4487 41.5981 54.4203 41.5886 54.3935C41.5791 54.3667 41.5643 54.3421 41.545 54.3213C41.5257 54.3004 41.5024 54.2837 41.4765 54.2721C41.4505 54.2605 41.4225 54.2543 41.3941 54.2539C41.3496 54.2522 41.3055 54.2636 41.2674 54.2866C41.2292 54.3096 41.1987 54.3432 41.1794 54.3834L41.0091 54.3493L41.0619 53.7361Z" fill="#B0AFAE"/>
<path d="M36.0009 69.3887C17.5899 69.3887 2.61316 54.4105 2.61316 36.0017C2.61316 17.5929 17.5934 2.61475 36.0009 2.61475C54.4085 2.61475 69.3886 17.5946 69.3886 36.0017C69.3886 54.4088 54.4119 69.3887 36.0009 69.3887ZM36.0009 4.24151C18.4894 4.24151 4.24166 18.4889 4.24166 36C4.24166 53.5111 18.4894 67.7585 36.0009 67.7585C53.5124 67.7585 67.7601 53.5111 67.7601 36C67.7601 18.4889 53.5124 4.24151 36.0009 4.24151Z" fill="#B0AFAE"/>
</g>
<defs>
<clipPath id="clip0">
<rect width="72" height="72" fill="white"/>
</clipPath>
</defs>
</svg>
