<svg width="109" height="22" viewBox="0 0 109 22" fill="none" xmlns="http://www.w3.org/2000/svg">
<path d="M16.656 9.792H16.104L12.936 5.664H11.832C11.464 5.664 11.192 5.76 11.016 5.952C10.856 6.144 10.76 6.424 10.728 6.792V19.272C10.728 19.752 10.872 20.104 11.16 20.328C11.464 20.552 11.944 20.672 12.6 20.688V21.264H4.056V20.688C4.744 20.672 5.224 20.552 5.496 20.328C5.784 20.104 5.928 19.752 5.928 19.272L5.904 6.648C5.792 5.992 5.432 5.664 4.824 5.664H3.72L0.552 9.792H0L0.552 4.464H16.104L16.656 9.792Z" fill="#B0AFAE"/>
<path d="M24.9366 4.464C26.3286 4.464 27.6246 4.616 28.8246 4.92C30.0246 5.208 30.9926 5.672 31.7286 6.312C32.4806 6.936 32.8566 7.72 32.8566 8.664C32.8566 9.832 32.2646 10.728 31.0806 11.352C29.9126 11.976 28.4406 12.344 26.6646 12.456C28.1526 12.456 29.3126 12.704 30.1446 13.2C30.9926 13.696 31.5846 14.584 31.9206 15.864C32.2086 16.968 32.4566 17.848 32.6646 18.504C32.8886 19.144 33.1606 19.672 33.4806 20.088C33.8166 20.488 34.2166 20.688 34.6806 20.688V21.264C34.4086 21.408 34.0166 21.544 33.5046 21.672C33.0086 21.8 32.4406 21.864 31.8006 21.864C30.9526 21.864 30.1686 21.672 29.4486 21.288C28.7446 20.904 28.2646 20.248 28.0086 19.32L27.6246 17.808C27.5926 17.712 27.4246 17.064 27.1206 15.864C26.6246 13.944 25.6566 12.984 24.2166 12.984H23.8086V19.272C23.8086 19.752 23.9526 20.104 24.2406 20.328C24.5446 20.552 25.0246 20.672 25.6806 20.688V21.264H17.1366V20.688C17.8246 20.672 18.3046 20.552 18.5766 20.328C18.8646 20.104 19.0086 19.752 19.0086 19.272V6.456C19.0086 5.976 18.8566 5.624 18.5526 5.4C18.2646 5.176 17.7926 5.056 17.1366 5.04V4.464H24.9366ZM27.7446 8.664C27.7446 7.608 27.4166 6.848 26.7606 6.384C26.1206 5.904 25.1926 5.664 23.9766 5.664H23.8086V12.024H23.9766C25.1606 12.024 26.0806 11.736 26.7366 11.16C27.4086 10.568 27.7446 9.736 27.7446 8.664Z" fill="#B0AFAE"/>
<path d="M41.7825 0L44.6145 0.48L41.7345 3.36L40.8705 3.12L41.7825 0ZM51.5025 13.512C51.3745 15.032 50.8865 16.408 50.0385 17.64C49.2065 18.872 48.1425 19.848 46.8465 20.568C45.5665 21.272 44.2225 21.624 42.8145 21.624C41.3105 21.624 39.8945 21.232 38.5665 20.448C37.2545 19.664 36.1985 18.608 35.3985 17.28C34.6145 15.952 34.2225 14.512 34.2225 12.96C34.2225 12.64 34.2305 12.392 34.2465 12.216C34.3745 10.712 34.8625 9.344 35.7105 8.112C36.5745 6.864 37.6465 5.888 38.9265 5.184C40.2225 4.464 41.5745 4.104 42.9825 4.104C44.5025 4.104 45.9185 4.496 47.2305 5.28C48.5425 6.048 49.5825 7.096 50.3505 8.424C51.1345 9.752 51.5265 11.192 51.5265 12.744C51.5265 13.08 51.5185 13.336 51.5025 13.512ZM46.2225 12.528C46.0945 11.392 45.8545 10.264 45.5025 9.144C45.1665 8.008 44.7185 7.064 44.1585 6.312C43.6145 5.544 42.9905 5.16 42.2865 5.16C41.2945 5.16 40.5745 5.76 40.1265 6.96C39.6785 8.144 39.4545 9.584 39.4545 11.28C39.4545 12.032 39.4865 12.672 39.5505 13.2C39.6785 14.4 39.9185 15.56 40.2705 16.68C40.6225 17.8 41.0705 18.728 41.6145 19.464C42.1745 20.184 42.7985 20.544 43.4865 20.544C44.4785 20.544 45.1985 19.992 45.6465 18.888C46.1105 17.784 46.3425 16.4 46.3425 14.736C46.3425 14.032 46.3025 13.296 46.2225 12.528Z" fill="#B0AFAE"/>
<path d="M58.1914 15.264V19.272C58.1914 19.752 58.3354 20.104 58.6234 20.328C58.9274 20.552 59.4074 20.672 60.0634 20.688V21.264H51.5194V20.688C52.2074 20.672 52.6874 20.552 52.9594 20.328C53.2474 20.104 53.3914 19.752 53.3914 19.272V6.456C53.3914 5.976 53.2394 5.624 52.9354 5.4C52.6474 5.176 52.1754 5.056 51.5194 5.04V4.464H59.1754C60.6634 4.464 62.0314 4.672 63.2794 5.088C64.5274 5.488 65.5274 6.096 66.2794 6.912C67.0314 7.728 67.4074 8.712 67.4074 9.864C67.4074 11.032 67.0234 12.024 66.2554 12.84C65.5034 13.64 64.5034 14.248 63.2554 14.664C62.0074 15.064 60.6474 15.264 59.1754 15.264H58.1914ZM58.1914 14.064H58.4554C59.1274 14.064 59.7754 13.904 60.3994 13.584C61.0234 13.264 61.5274 12.792 61.9114 12.168C62.3114 11.528 62.5114 10.76 62.5114 9.864C62.5114 8.36 62.1194 7.288 61.3354 6.648C60.5514 5.992 59.5914 5.664 58.4554 5.664H58.1914V14.064Z" fill="#B0AFAE"/>
<path d="M73.8711 15.264V19.272C73.8711 19.752 74.0151 20.104 74.3031 20.328C74.6071 20.552 75.0871 20.672 75.7431 20.688V21.264H67.1991V20.688C67.8871 20.672 68.3671 20.552 68.6391 20.328C68.9271 20.104 69.0711 19.752 69.0711 19.272V6.456C69.0711 5.976 68.9191 5.624 68.6151 5.4C68.3271 5.176 67.8551 5.056 67.1991 5.04V4.464H74.8551C76.3431 4.464 77.7111 4.672 78.9591 5.088C80.2071 5.488 81.2071 6.096 81.9591 6.912C82.7111 7.728 83.0871 8.712 83.0871 9.864C83.0871 11.032 82.7031 12.024 81.9351 12.84C81.1831 13.64 80.1831 14.248 78.9351 14.664C77.6871 15.064 76.3271 15.264 74.8551 15.264H73.8711ZM73.8711 14.064H74.1351C74.8071 14.064 75.4551 13.904 76.0791 13.584C76.7031 13.264 77.2071 12.792 77.5911 12.168C77.9911 11.528 78.1911 10.76 78.1911 9.864C78.1911 8.36 77.7991 7.288 77.0151 6.648C76.2311 5.992 75.2711 5.664 74.1351 5.664H73.8711V14.064Z" fill="#B0AFAE"/>
<path d="M101.981 12.792C101.981 14.648 101.573 16.248 100.757 17.592C99.9569 18.92 98.8849 19.928 97.5409 20.616C96.2129 21.288 94.7569 21.624 93.1729 21.624C92.8049 21.624 92.5249 21.616 92.3329 21.6C90.8129 21.472 89.4129 21.032 88.1329 20.28C86.8689 19.512 85.8529 18.496 85.0849 17.232C84.3329 15.952 83.9569 14.512 83.9569 12.912C83.9569 12.608 83.9649 12.376 83.9809 12.216C84.0929 10.552 84.5409 9.112 85.3249 7.896C86.1249 6.664 87.1649 5.728 88.4449 5.088C89.7409 4.432 91.1809 4.104 92.7649 4.104C93.1489 4.104 93.4369 4.112 93.6289 4.128C95.1169 4.24 96.4929 4.664 97.7569 5.4C99.0369 6.12 100.061 7.12 100.829 8.4C101.597 9.68 101.981 11.144 101.981 12.792ZM96.6769 12.528C96.5649 11.28 96.2769 10.08 95.8129 8.928C95.3649 7.776 94.7969 6.864 94.1089 6.192C93.4369 5.52 92.7169 5.224 91.9489 5.304C90.9409 5.416 90.2209 5.992 89.7889 7.032C89.3569 8.056 89.1409 9.328 89.1409 10.848C89.1409 11.424 89.1889 12.208 89.2849 13.2C89.4129 14.352 89.6849 15.488 90.1009 16.608C90.5329 17.712 91.0609 18.624 91.6849 19.344C92.3249 20.064 92.9969 20.424 93.7009 20.424C93.8449 20.424 93.9489 20.416 94.0129 20.4C94.9569 20.256 95.6449 19.6 96.0769 18.432C96.5249 17.264 96.7489 15.864 96.7489 14.232C96.7489 13.64 96.7249 13.072 96.6769 12.528Z" fill="#B0AFAE"/>
<path d="M102.508 7.704C102.508 6.936 102.644 6.28 102.916 5.736C103.204 5.192 103.572 4.784 104.02 4.512C104.468 4.224 104.948 4.08 105.46 4.08C105.972 4.08 106.444 4.216 106.876 4.488C107.324 4.76 107.684 5.176 107.956 5.736C108.228 6.28 108.364 6.936 108.364 7.704C108.364 8.488 108.26 9.2 108.052 9.84C107.86 10.48 107.564 11.264 107.164 12.192C106.78 13.056 106.476 13.824 106.252 14.496C106.044 15.152 105.916 15.888 105.868 16.704H105.004C104.956 15.888 104.82 15.152 104.596 14.496C104.388 13.824 104.092 13.056 103.708 12.192C103.308 11.264 103.004 10.48 102.796 9.84C102.604 9.2 102.508 8.488 102.508 7.704ZM103.876 19.92C103.876 19.472 104.012 19.104 104.284 18.816C104.556 18.528 104.94 18.384 105.436 18.384C105.932 18.384 106.316 18.528 106.588 18.816C106.86 19.104 106.996 19.472 106.996 19.92C106.996 20.368 106.86 20.736 106.588 21.024C106.316 21.312 105.932 21.456 105.436 21.456C104.94 21.456 104.556 21.312 104.284 21.024C104.012 20.736 103.876 20.368 103.876 19.92Z" fill="#B0AFAE"/>
</svg>
