<svg width="83" height="72" viewBox="0 0 83 72" fill="none" xmlns="http://www.w3.org/2000/svg">
<g clip-path="url(#clip0)">
<path d="M3.89708 55.767C4.02681 57.6196 3.99568 60.4373 5.04908 60.4373C6.38789 60.4373 8.72303 55.134 10.2383 50.2146L13.8707 50.884C12.3139 57.054 8.92022 65.1647 4.15654 65.1647C2.04973 65.1647 0.866595 63.1512 0.643459 61.0756C0.223135 57.2408 0 51.0397 0 51.0397H3.76735C3.76735 51.0397 3.76735 53.9664 3.89708 55.767Z" fill="#B0AFAE"/>
<path d="M20.57 59.7951C20.57 60.3711 21.146 60.6876 21.722 60.6876C24.3166 60.6876 25.6191 55.13 26.3196 51.0409H29.7704L28.141 65.4513C27.8774 67.3096 26.9375 69.0055 25.5012 70.2138C24.0649 71.4222 22.2333 72.0582 20.3572 72C18.0053 72.0069 15.7006 71.3407 13.7151 70.08L15.3756 67.0807C17.1659 68.0355 18.1207 68.5492 20.0459 68.5492C23.1594 68.5492 24.5812 65.6069 24.903 62.2859C23.4967 63.8841 21.7895 65.2904 19.7916 65.2904C19.351 65.2993 18.9128 65.2213 18.5024 65.0607C18.0919 64.9002 17.7171 64.6602 17.3995 64.3546C17.0819 64.049 16.8276 63.6838 16.6513 63.2799C16.475 62.8759 16.38 62.4411 16.372 62.0005C16.372 61.4815 17.5188 51.0409 17.5188 51.0409H21.2757C20.891 53.945 20.6555 56.8669 20.57 59.7951Z" fill="#B0AFAE"/>
<path d="M38.3585 59.8988C39.6973 58.4354 41.4721 54.1907 42.7071 50.2106L46.3395 50.88C44.7828 57.0499 41.389 65.1606 36.6254 65.1606C34.5185 65.1606 33.3354 63.1472 33.1123 61.0715C32.6971 57.2419 32.474 51.0408 32.474 51.0408H36.2465C36.2465 51.0408 36.2465 53.9468 36.3711 55.7682C36.4956 57.5896 36.4697 60.4385 37.5231 60.4385C37.8656 60.3848 38.1733 60.1984 38.3793 59.9195" fill="#B0AFAE"/>
<path d="M61.2013 59.9248C61.2013 60.5942 61.5542 61.2636 62.2392 61.2636C62.7112 61.2436 63.1811 61.1898 63.6454 61.1027L64.5432 63.8219C63.6454 64.2993 62.4312 65.2281 60.9107 65.2281C60.2495 65.2131 59.6043 65.0214 59.0422 64.6728C58.4801 64.3242 58.0216 63.8315 57.7142 63.2459C56.1574 64.2837 54.6785 65.4513 52.7326 65.4513C50.304 65.4513 47.8755 62.7996 47.8755 59.9248C47.8755 55.6126 50.496 51.0409 54.9017 51.0409C56.0213 51.0996 57.1167 51.3893 58.1189 51.8919L58.3109 51.0617H62.0835C62.0835 51.0617 61.2013 59.6342 61.2013 59.9248ZM51.9698 59.7328C51.9627 60.2611 52.163 60.7712 52.5278 61.1535C52.8926 61.5357 53.3928 61.7597 53.9209 61.7773C55.8357 61.7773 57.5948 58.6638 57.5948 56.6348C57.5948 55.514 56.6971 54.4294 55.7734 54.4294C53.7289 54.4294 51.9698 57.1745 51.9698 59.7328Z" fill="#B0AFAE"/>
<path d="M71.6108 53.4071C72.8562 52.3693 74.2054 50.8125 76.6599 50.8125C78.4138 50.8125 80.0432 51.8503 80.0432 53.7496C80.0432 56.4324 79.597 57.9009 79.597 60.5889C79.6105 60.7116 79.6481 60.8304 79.7076 60.9386C79.7672 61.0467 79.8474 61.1421 79.9438 61.2192C80.0402 61.2963 80.1508 61.3537 80.2694 61.388C80.388 61.4223 80.5121 61.4329 80.6348 61.4192C81.0655 61.3962 81.493 61.3319 81.9114 61.2272L82.9492 64.1331C82.0566 64.6106 80.3961 65.3786 79.1507 65.3786C78.6658 65.382 78.185 65.2895 77.736 65.1065C77.287 64.9234 76.8785 64.6534 76.5342 64.312C76.1899 63.9706 75.9165 63.5644 75.7296 63.117C75.5428 62.6695 75.4463 62.1895 75.4456 61.7046C75.4456 59.5978 75.9645 57.7141 75.9645 56.3079C75.9645 55.8927 75.7725 55.4101 75.3263 55.4101C72.2128 55.4101 70.9518 60.9366 70.0852 64.9323H66.4735L68.0718 51.0668H71.6108V53.4071Z" fill="#B0AFAE"/>
<path d="M41.8404 18.8211C40.896 14.6698 39.2458 11.6082 36.9522 9.74007C35.2021 8.33818 33.0298 7.56838 30.7875 7.55542H30.4502C29.7897 7.55721 29.1303 7.611 28.4783 7.71628C28.5613 8.5725 28.6806 9.47023 28.7844 10.4095C28.8623 11.0114 28.9712 11.6237 29.0646 12.2464C29.1114 12.563 29.1581 12.8795 29.2099 13.2013C29.2618 13.523 29.3293 13.8395 29.3916 14.1613L29.4694 14.566C30.2278 14.4032 30.9985 14.3043 31.7734 14.2702C31.9862 14.2702 32.2041 14.2702 32.4117 14.2702H33.0292C33.4288 14.2702 33.8024 14.3221 34.1189 14.3533C34.2746 14.3533 34.4199 14.3948 34.5444 14.4103L34.8765 14.4622L35.1619 14.5089H34.5392H34.1137C33.7972 14.5089 33.4339 14.5556 33.0448 14.6075C32.8528 14.6075 32.6556 14.6646 32.4532 14.6957C32.2508 14.7269 32.0484 14.7684 31.8461 14.8151C31.111 14.9738 30.3906 15.1943 29.6925 15.4741H29.651C29.6925 15.6869 29.7289 15.8996 29.7756 16.1124C29.9261 16.7766 30.0765 17.446 30.2322 18.1206C30.3049 18.4631 30.3931 18.8004 30.4813 19.1584L30.7459 20.1963L31.0106 21.2341L31.2701 22.1215L31.8253 21.971C32.2145 21.8724 32.6763 21.7686 33.1745 21.6856L33.9373 21.5714C34.2019 21.5403 34.4562 21.504 34.7312 21.4884C35.0063 21.4728 35.2502 21.4469 35.5252 21.4365C35.8002 21.4261 36.0441 21.4365 36.2932 21.4365C36.8121 21.4365 37.2584 21.4365 37.6528 21.4832C37.8499 21.4832 38.0316 21.5195 38.1717 21.5299L38.5816 21.5766L38.9397 21.6233H38.5816H38.1665C38.0056 21.6233 37.824 21.6233 37.6476 21.6233C37.2532 21.6233 36.7965 21.6856 36.3139 21.753C36.0701 21.7842 35.821 21.8257 35.5719 21.8672C35.3228 21.9087 35.053 21.9606 34.8143 22.0229C34.5756 22.0851 34.2954 22.1422 34.0618 22.2045L33.3457 22.4121C32.8891 22.5574 32.4636 22.713 32.1107 22.8531C31.8928 22.9362 31.7111 23.014 31.5555 23.0867C31.6696 23.481 31.7838 23.8702 31.9083 24.2594L32.557 26.2573C32.7749 26.9215 33.0188 27.5649 33.2419 28.2136L33.5844 29.1736C33.6519 29.3656 33.7245 29.5576 33.7972 29.7444L33.9736 29.7081C34.4987 29.5972 35.0311 29.5244 35.5667 29.4901C36.0851 29.4573 36.6051 29.4573 37.1235 29.4901C37.549 29.5213 37.8292 29.5576 37.8292 29.5576C37.8292 29.5576 37.549 29.5887 37.1338 29.6666C36.6312 29.7593 36.1354 29.8859 35.6497 30.0454C35.1805 30.2039 34.7227 30.3946 34.2798 30.6162L34.1552 30.6784C34.3213 31.104 34.4822 31.5295 34.643 31.9498L35.3539 33.683C35.7691 34.7208 36.205 35.6964 36.5994 36.6097C36.8699 36.5803 37.1421 36.5699 37.4141 36.5786C37.8482 36.5936 38.2796 36.6545 38.701 36.7602C38.701 36.7602 38.5401 36.7913 38.317 36.8536C38.0416 36.9248 37.7726 37.0185 37.5126 37.1338C37.3212 37.2194 37.1341 37.3147 36.9522 37.4192C37.2895 38.1716 37.6164 38.8618 37.9018 39.4949C38.2547 40.2836 38.5868 40.9634 38.8566 41.5187L39.3081 42.4631C41.6017 35.7016 43.6307 26.6776 41.8404 18.8211Z" fill="#D2D2D1"/>
<path d="M38.7944 42.8316L38.2495 41.7937C37.9589 41.2437 37.6008 40.5743 37.2117 39.7959C36.9055 39.1784 36.5526 38.5038 36.1738 37.7669L36.0337 37.8032C35.7576 37.8687 35.4869 37.9554 35.2242 38.0627C34.8251 38.2274 34.4413 38.4271 34.0774 38.6595C34.3204 38.2892 34.5965 37.9418 34.9025 37.6216C35.1209 37.3913 35.355 37.1763 35.603 36.9782L35.7327 36.8744C35.3124 36.0026 34.8558 35.0737 34.4147 34.0722L33.6311 32.3494L33.1122 31.0988L32.9513 31.1351C32.4494 31.3099 31.9605 31.5197 31.488 31.763C31.0057 32.011 30.541 32.2919 30.0973 32.6037C29.7288 32.8579 29.4953 33.0499 29.4953 33.0499C29.4953 33.0499 29.677 32.8112 29.9779 32.4739C30.35 32.0576 30.7487 31.6659 31.1714 31.3012C31.6008 30.9228 32.0569 30.576 32.5362 30.2633L32.7282 30.1388C32.6452 29.9468 32.5621 29.7548 32.4843 29.5628L32.1003 28.6028C31.8512 27.9593 31.5814 27.3159 31.3375 26.6569L30.6162 24.6798C30.4813 24.3217 30.3619 23.9585 30.2374 23.5952L29.8067 23.7613C29.459 23.9014 29.0543 24.0675 28.6287 24.2802C28.416 24.3788 28.2032 24.4878 27.9801 24.6019C27.757 24.7161 27.539 24.8354 27.3211 24.96C26.5067 25.4117 25.7215 25.9144 24.9704 26.4649C24.6642 26.6932 24.4151 26.8904 24.2387 27.0305L23.9688 27.2536L24.2075 26.9942C24.3632 26.8333 24.5812 26.5998 24.8562 26.3299C25.528 25.674 26.2385 25.0588 26.9838 24.4878C27.1861 24.3269 27.3989 24.1764 27.6065 24.0259C27.814 23.8755 28.0216 23.7353 28.2292 23.6056C28.6391 23.3358 29.0283 23.0867 29.3708 22.9051C29.542 22.8065 29.7029 22.7235 29.843 22.6508H29.8897L29.5784 21.6233L29.267 20.5855L28.9557 19.5477C28.8571 19.2052 28.7533 18.8627 28.6651 18.5098C28.4834 17.83 28.3018 17.1503 28.1461 16.4809C28.1098 16.3459 28.0839 16.2162 28.0527 16.0813L27.8296 16.1591C27.118 16.4288 26.4276 16.7514 25.7643 17.1243C25.0975 17.4803 24.4545 17.8789 23.8391 18.3178C23.5848 18.4995 23.3825 18.6551 23.2372 18.7641L23.0088 18.9405L23.2008 18.7278L23.7198 18.1829C24.2648 17.6367 24.8436 17.1254 25.453 16.6521C26.0687 16.1706 26.7191 15.7353 27.3989 15.3496L27.7829 15.142C27.7414 14.9345 27.6947 14.7321 27.6428 14.5297C27.5701 14.2028 27.4923 13.8759 27.4248 13.549C27.3574 13.222 27.2951 12.9055 27.238 12.5838C27.1135 11.9455 26.9838 11.3228 26.88 10.7105C26.7503 9.84388 26.6101 9.01361 26.496 8.21448C24.8063 8.77681 23.2552 9.69121 21.9451 10.8973C20.2725 12.3885 19.1503 14.3991 18.7589 16.6054C18.2659 19.5217 19.0495 22.9051 21.0888 26.6517C24.9755 33.8127 32.5829 39.2925 38.7944 42.8316Z" fill="#D2D2D1"/>
<path d="M58.4355 10.067C56.9515 8.69095 55.1785 7.66436 53.2463 7.06249C53.2982 6.59027 53.3553 6.12843 53.4072 5.69254C53.459 5.25665 53.4902 4.72735 53.5265 4.28627C53.5992 3.40411 53.6666 2.62573 53.6822 2.01341L53.7652 0.0570811L51.456 0V1.95632C51.456 2.59459 51.4145 3.32108 51.373 4.15135C51.373 4.57687 51.3419 5.02832 51.3107 5.50573L51.2225 6.5747C50.4139 6.45261 49.5958 6.40398 48.7784 6.42941C47.0107 6.44395 45.2721 6.88109 43.7077 7.70436C42.1433 8.52763 40.7985 9.71314 39.7855 11.1619C38.7737 9.71324 37.4299 8.5277 35.8663 7.7044C34.3028 6.88109 32.5649 6.44392 30.7979 6.42941H30.4294C29.7342 6.4293 29.0401 6.48482 28.3538 6.59546C28.3226 6.22703 28.2915 5.86897 28.2655 5.52649C28.2344 5.04908 28.224 4.59762 28.2033 4.17211C28.1618 3.32627 28.1254 2.61535 28.1358 1.96151C28.1358 0.716108 28.1358 0.00518919 28.1358 0.00518919L25.8422 0.0570811L25.946 2.01341C25.946 2.62573 26.029 3.40411 26.1016 4.28627C26.138 4.72735 26.1691 5.20476 26.221 5.69254C26.2729 6.18032 26.3248 6.59027 26.3819 7.06249C24.4513 7.6682 22.6791 8.69433 21.1927 10.067C18.0325 13.0041 15.3133 18.3697 20.1133 27.1914C24.3062 34.9336 32.5881 40.7663 39.7233 44.627H39.8945C47.0296 40.7611 55.3116 34.9284 59.52 27.1862C64.346 18.349 61.6009 13.0041 58.4355 10.067ZM30.4502 7.55027H30.7875C33.0298 7.56323 35.2021 8.33303 36.9522 9.73492C39.2511 11.603 40.896 14.6543 41.8405 18.816C43.6307 26.6724 41.6018 35.6964 39.3081 42.432L38.8567 41.5135C38.5868 40.9583 38.2547 40.2785 37.9019 39.4897C37.6165 38.8566 37.2895 38.1665 36.9522 37.4141C37.1341 37.3095 37.3212 37.2143 37.5127 37.1287C37.7725 37.0116 38.0415 36.9161 38.317 36.8432C38.5401 36.781 38.701 36.7498 38.701 36.7498C38.2796 36.6441 37.8483 36.5832 37.4141 36.5682C37.1421 36.5595 36.8699 36.5699 36.5994 36.5993C36.205 35.6861 35.7691 34.7157 35.354 33.6726L34.6431 31.9395C34.4822 31.5191 34.3213 31.0936 34.1553 30.6681L34.2798 30.6058C34.7313 30.3849 35.1978 30.1959 35.6757 30.0402C36.1613 29.8807 36.6572 29.7542 37.1598 29.6614C37.5749 29.5836 37.8552 29.5524 37.8552 29.5524C37.8552 29.5524 37.5749 29.5161 37.1494 29.485C36.631 29.4522 36.1111 29.4522 35.5927 29.485C35.0571 29.5192 34.5247 29.5921 33.9996 29.7029L33.8232 29.7392C33.7505 29.5524 33.6779 29.3604 33.6104 29.1684L33.2679 28.2084C33.0448 27.5598 32.8009 26.9163 32.5829 26.2521L31.9135 24.2439C31.789 23.8547 31.6748 23.4655 31.5607 23.0711C31.7164 22.9985 31.898 22.9206 32.1159 22.8376C32.4688 22.6975 32.8943 22.5418 33.3509 22.3965L34.0671 22.189C34.3161 22.1267 34.586 22.0592 34.8195 22.0074C35.053 21.9555 35.3384 21.8984 35.5771 21.8517C35.8158 21.805 36.096 21.7686 36.3192 21.7375C36.8018 21.6701 37.2584 21.6337 37.6528 21.6078C37.8448 21.6078 38.0264 21.6078 38.1717 21.6078H38.5868H38.9449L38.5868 21.5611L38.1769 21.5144C38.016 21.5144 37.8344 21.4781 37.658 21.4677C37.2636 21.4677 36.7966 21.4158 36.2984 21.421C36.0493 21.421 35.7795 21.421 35.5304 21.421C35.2813 21.421 35.0115 21.421 34.7365 21.4729C34.4614 21.5248 34.2175 21.5248 33.9425 21.5559L33.1797 21.6701C32.6608 21.7531 32.2197 21.8569 31.8305 21.9555L31.2753 22.1059L31.0158 21.2186L30.7512 20.1808L30.4865 19.1429C30.3983 18.8056 30.3101 18.4683 30.2374 18.1051C30.0818 17.4305 29.9313 16.7611 29.7808 16.0969C29.7341 15.8841 29.6978 15.6714 29.6562 15.4586H29.6978C30.3958 15.1788 31.1162 14.9583 31.8513 14.7996C32.0536 14.7529 32.256 14.7165 32.4584 14.6802C32.6608 14.6439 32.858 14.6128 33.05 14.592C33.4392 14.5401 33.8024 14.5142 34.1189 14.4934H34.5445H35.1672L34.8818 14.4467L34.5496 14.3948C34.4251 14.3948 34.2798 14.3533 34.1241 14.3377C33.8076 14.3066 33.434 14.2703 33.0344 14.2547H32.4169C32.2093 14.2547 31.9914 14.2547 31.7786 14.2547C31.0037 14.2887 30.233 14.3877 29.4746 14.5505L29.3968 14.1457C29.3345 13.824 29.2722 13.5023 29.2152 13.1857C29.1581 12.8692 29.1114 12.5578 29.0595 12.2413C28.9661 11.6186 28.8571 11.0063 28.7793 10.4043C28.6755 9.46508 28.5561 8.56735 28.4731 7.71113C29.1269 7.60557 29.788 7.55179 30.4502 7.55027ZM21.1097 26.6517C19.0495 22.9051 18.266 19.5217 18.7589 16.6054C19.1504 14.3991 20.2726 12.3885 21.9451 10.8973C23.2563 9.68873 24.8093 8.7725 26.5012 8.2093C26.6154 9.00843 26.7555 9.8387 26.8852 10.7053C26.989 11.3176 27.1187 11.9403 27.2433 12.5786C27.2986 12.9003 27.3609 13.2221 27.4301 13.5438C27.4975 13.8707 27.5754 14.1976 27.648 14.5245C27.6999 14.7269 27.7466 14.9293 27.7881 15.1369L27.4041 15.3444C26.7243 15.7301 26.0739 16.1655 25.4582 16.6469C24.8493 17.1152 24.2705 17.6213 23.725 18.1622L23.2061 18.707L23.0141 18.9198L23.2424 18.7434C23.3877 18.6344 23.5901 18.4787 23.8444 18.2971C24.4586 17.8655 25.0999 17.4738 25.7644 17.1243C26.4208 16.7703 27.1025 16.4651 27.8037 16.211L28.0268 16.1332C28.058 16.2681 28.0839 16.3978 28.1202 16.5328C28.2967 17.2022 28.4783 17.8819 28.6392 18.5617C28.7274 18.9042 28.8312 19.2467 28.9298 19.5996L29.2411 20.6374L29.5525 21.6752L29.8846 22.6768H29.8379C29.6978 22.7494 29.5369 22.8324 29.3656 22.931C29.0232 23.1282 28.634 23.3617 28.224 23.6316C28.0165 23.7613 27.8089 23.9066 27.6013 24.0519C27.3938 24.1972 27.181 24.3529 26.9786 24.5137C26.2275 25.0893 25.5119 25.7097 24.8355 26.3715C24.5605 26.6413 24.3425 26.8904 24.1868 27.0357L23.9481 27.2951L24.218 27.072C24.3944 26.9319 24.6435 26.7347 24.9497 26.5064C25.6969 25.9492 26.4786 25.4396 27.29 24.9808C27.5079 24.8562 27.7311 24.7369 27.949 24.6227C28.1669 24.5085 28.3849 24.3996 28.5976 24.301C29.0232 24.0934 29.4279 23.9274 29.7756 23.7821L30.2063 23.616C30.3308 23.9792 30.4502 24.3425 30.5851 24.7005L31.3168 26.7036C31.5607 27.3626 31.8357 28.0061 32.0796 28.6495L32.4844 29.5784C32.5622 29.7704 32.6452 29.9624 32.7282 30.1544L32.5362 30.2789C32.0569 30.5916 31.6008 30.9384 31.1715 31.3168C30.7487 31.6815 30.35 32.0732 29.978 32.4895C29.677 32.8268 29.4954 33.0655 29.4954 33.0655C29.4954 33.0655 29.7289 32.8735 30.0973 32.6192C30.5412 32.3092 31.0059 32.0301 31.488 31.7838C31.9599 31.5334 32.4489 31.3166 32.9514 31.1351L33.1174 31.0781L33.6364 32.3286L34.4199 34.0515C34.861 35.053 35.3176 35.9818 35.738 36.8536L35.6082 36.9574C35.3602 37.1555 35.1261 37.3705 34.9077 37.6009C34.6018 37.9211 34.3256 38.2685 34.0826 38.6387C34.4466 38.4064 34.8303 38.2067 35.2294 38.0419C35.4922 37.9347 35.7628 37.8479 36.0389 37.7825L36.1791 37.7462C36.5371 38.483 36.89 39.1576 37.2169 39.7751C37.6061 40.5535 37.9641 41.2229 38.2547 41.773L38.7996 42.8108C32.5829 39.2925 24.9756 33.8128 21.0889 26.6517H21.1097Z" fill="#B0AFAE"/>
</g>
<defs>
<clipPath id="clip0">
<rect width="82.9232" height="72" fill="white"/>
</clipPath>
</defs>
</svg>
